<svg xmlns="http://www.w3.org/2000/svg" viewBox="0 0 67.1 82.66"><g id="Layer_2" data-name="Layer 2"><g id="Layer_1-2" data-name="Layer 1"><polygon points="34.75 82.66 0 62.64 0 59.1 34.75 79.12 34.75 82.66" style="fill:#474747"/><polygon points="19.08 74 7.99 67.61 11.38 65.66 22.47 72.04 19.08 74" style="fill:#969696"/><polygon points="17.31 75.84 6.21 69.45 7.99 68.47 19.08 74.86 17.31 75.84" style="fill:#969696"/><polygon points="15.54 77.68 4.44 71.29 6.21 70.31 17.31 76.7 15.54 77.68" style="fill:#969696"/><polygon points="13.76 79.51 2.67 73.13 4.44 72.15 15.54 78.53 13.76 79.51" style="fill:#969696"/><polygon points="19.08 74.86 7.99 68.47 7.99 67.61 19.08 74 19.08 74.86" style="fill:#757575"/><polygon points="17.31 76.7 6.21 70.31 6.21 69.45 17.31 75.84 17.31 76.7" style="fill:#757575"/><polygon points="15.54 78.53 4.44 72.15 4.44 71.29 15.54 77.68 15.54 78.53" style="fill:#757575"/><polygon points="13.76 80.68 2.67 74.3 2.67 73.13 13.76 79.51 13.76 80.68" style="fill:#757575"/><polygon points="22.47 75.59 13.76 80.68 13.76 79.51 15.54 78.53 15.54 77.68 17.31 76.7 17.31 75.84 19.08 74.86 19.08 74 22.47 72.04 22.47 75.59" style="fill:#c7c7c7"/><polygon points="34.75 82.66 34.75 79.12 67.1 60.42 67.1 63.96 34.75 82.66" style="fill:#575757"/><polygon points="34.75 79.12 0 59.1 32.36 40.39 67.1 60.42 34.75 79.12" style="fill:#616161"/><polygon points="34.71 55.77 34.75 42.09 65.57 24.25 65.53 37.93 34.71 55.77" style="fill:#d4d4d4"/><polygon points="34.71 55.77 1.55 36.66 1.55 22.96 34.75 42.09 34.71 55.77" style="fill:#adadad"/><polygon points="34.71 78.13 34.75 61.87 65.57 44.02 65.53 60.29 34.71 78.13" style="fill:#637287"/><polygon points="34.71 78.13 1.55 59.02 1.55 42.73 34.75 61.87 34.71 78.13" style="fill:#485463"/><polygon points="34.71 61.87 34.75 55.77 65.57 37.93 65.53 44.02 34.71 61.87" style="fill:#3a65a3"/><polygon points="34.71 61.87 1.55 42.75 1.55 36.63 34.75 55.77 34.71 61.87" style="fill:#294975"/><polygon points="34.75 42.09 0 22.07 0 18.52 34.75 38.55 34.75 42.09" style="fill:#474747"/><polygon points="34.75 42.09 34.75 38.55 66.75 20.02 66.75 23.57 34.75 42.09" style="fill:#575757"/><polygon points="34.75 38.55 0 18.52 32.01 0 66.75 20.02 34.75 38.55" style="fill:#616161"/><polygon points="32.01 4.14 5.7 19.37 3.55 18.13 32.01 1.66 32.01 4.14" style="fill:#696969"/><polygon points="63.21 19.63 61.06 20.87 32.01 4.14 32.01 1.66 63.21 19.63" style="fill:#404040"/><polygon points="61.06 20.87 34.74 36.11 5.7 19.37 32.01 4.14 61.06 20.87" style="fill:#545454"/><polygon points="49.24 19.8 54.4 22.78 59.07 20.08 53.91 17.11 49.24 19.8" style="fill:#383838"/><polygon points="52.5 16.96 56.3 19.15 58 18.18 54.2 15.98 52.5 16.96" style="fill:#ccc"/><polygon points="52.5 18.92 56.3 21.11 56.3 19.15 52.5 16.96 52.5 18.92" style="fill:gray"/><polygon points="56.3 21.11 58 20.13 58 18.18 56.3 19.15 56.3 21.11" style="fill:#999"/><path d="M54.89,16.56a1.53,1.53,0,0,0-1.35,0,.41.41,0,0,0,0,.78,1.53,1.53,0,0,0,1.35,0A.41.41,0,0,0,54.89,16.56Z" style="fill:#2e2e2e"/><path d="M53.54,16.56c-.23.14.62.36.62.36S53.77,16.43,53.54,16.56Z" style="fill:#5c5c5c"/><path d="M54.21,16.4c-.33,0,0,.5,0,.5S54.54,16.4,54.21,16.4Z" style="fill:#5c5c5c"/><path d="M54.88,16.56c-.24-.14-.62.36-.62.36S55.11,16.69,54.88,16.56Z" style="fill:#5c5c5c"/><path d="M54.28,16.94s.87.2.87,0S54.28,16.94,54.28,16.94Z" style="fill:#5c5c5c"/><path d="M54.26,17s.38.5.62.36S54.26,17,54.26,17Z" style="fill:#5c5c5c"/><path d="M54.21,17.49c.33,0,0-.5,0-.5S53.88,17.49,54.21,17.49Z" style="fill:#5c5c5c"/><path d="M53.54,17.33c.24.14.62-.35.62-.35S53.31,17.2,53.54,17.33Z" style="fill:#5c5c5c"/><path d="M53.27,17c0,.19.87,0,.87,0S53.27,16.76,53.27,17Z" style="fill:#5c5c5c"/><path d="M54.38,16.85a.4.4,0,0,0-.34,0,.11.11,0,0,0,0,.2.4.4,0,0,0,.34,0C54.48,17,54.48,16.91,54.38,16.85Z" style="fill:#696969"/><path d="M54.33,16.88a.3.3,0,0,0-.23,0,.08.08,0,0,0,0,.14.3.3,0,0,0,.23,0A.08.08,0,0,0,54.33,16.88Z" style="fill:#424242"/><path d="M54.17,16.87s0,0,0,0a0,0,0,0,0,0,0,0,0,0,0,0,0,0A0,0,0,0,0,54.17,16.87Z" style="fill:#fff"/><path d="M56.87,17.66a1.5,1.5,0,0,0-1.34,0c-.38.22-.38.56,0,.78a1.5,1.5,0,0,0,1.34,0C57.25,18.22,57.25,17.88,56.87,17.66Z" style="fill:#2e2e2e"/><path d="M55.53,17.66c-.24.14.61.36.61.36S55.76,17.53,55.53,17.66Z" style="fill:#5c5c5c"/><path d="M56.19,17.5c-.33,0,0,.5,0,.5S56.53,17.5,56.19,17.5Z" style="fill:#5c5c5c"/><path d="M56.86,17.66c-.23-.14-.62.36-.62.36S57.1,17.79,56.86,17.66Z" style="fill:#5c5c5c"/><path d="M56.27,18s.87.2.87,0S56.27,18,56.27,18Z" style="fill:#5c5c5c"/><path d="M56.25,18.07s.38.5.62.36S56.25,18.07,56.25,18.07Z" style="fill:#5c5c5c"/><path d="M56.2,18.59c.33,0,0-.5,0-.5S55.87,18.59,56.2,18.59Z" style="fill:#5c5c5c"/><path d="M55.53,18.43c.23.14.62-.35.62-.35S55.3,18.3,55.53,18.43Z" style="fill:#5c5c5c"/><path d="M55.25,18.05c0,.19.88,0,.88,0S55.25,17.86,55.25,18.05Z" style="fill:#5c5c5c"/><ellipse cx="56.2" cy="18.05" rx="0.24" ry="0.14" style="fill:#696969"/><path d="M56.31,18a.28.28,0,0,0-.22,0c-.07,0-.07.1,0,.14a.28.28,0,0,0,.22,0C56.38,18.08,56.38,18,56.31,18Z" style="fill:#424242"/><path d="M56.15,18a0,0,0,0,0,0,0,0,0,0,0,0,.05,0s0,0,0,0Z" style="fill:#fff"/><polygon points="50.59 18.01 54.39 20.21 56.09 19.23 52.29 17.04 50.59 18.01" style="fill:#ccc"/><polygon points="50.59 19.97 54.39 22.16 54.39 20.21 50.59 18.01 50.59 19.97" style="fill:gray"/><polygon points="54.39 22.16 56.09 21.18 56.09 19.23 54.39 20.21 54.39 22.16" style="fill:#999"/><ellipse cx="52.31" cy="18" rx="0.95" ry="0.55" style="fill:#2e2e2e"/><path d="M51.64,17.61c-.24.14.61.36.61.36S51.87,17.48,51.64,17.61Z" style="fill:#5c5c5c"/><path d="M52.3,17.45c-.33,0,0,.51,0,.51S52.63,17.45,52.3,17.45Z" style="fill:#5c5c5c"/><path d="M53,17.61c-.23-.13-.62.36-.62.36S53.21,17.75,53,17.61Z" style="fill:#5c5c5c"/><path d="M52.38,18s.87.19.87,0S52.38,18,52.38,18Z" style="fill:#5c5c5c"/><path d="M52.36,18s.38.49.61.35S52.36,18,52.36,18Z" style="fill:#5c5c5c"/><path d="M52.31,18.54c.33,0,0-.5,0-.5S52,18.54,52.31,18.54Z" style="fill:#5c5c5c"/><path d="M51.64,18.39c.23.13.62-.36.62-.36S51.4,18.25,51.64,18.39Z" style="fill:#5c5c5c"/><path d="M51.36,18c0,.19.87,0,.87,0S51.36,17.81,51.36,18Z" style="fill:#5c5c5c"/><path d="M52.48,17.9a.4.4,0,0,0-.34,0c-.1.06-.1.15,0,.2a.34.34,0,0,0,.34,0C52.57,18.05,52.57,18,52.48,17.9Z" style="fill:#696969"/><path d="M52.42,17.94a.22.22,0,0,0-.22,0c-.07,0-.07.09,0,.13a.22.22,0,0,0,.22,0C52.48,18,52.48,18,52.42,17.94Z" style="fill:#424242"/><path d="M52.26,17.92a0,0,0,0,0,0,0,0,0,0,0,0,.05,0s0,0,0,0Z" style="fill:#fff"/><path d="M55,18.71a1.53,1.53,0,0,0-1.35,0c-.37.22-.37.57,0,.78a1.46,1.46,0,0,0,1.35,0C55.34,19.28,55.34,18.93,55,18.71Z" style="fill:#2e2e2e"/><path d="M53.62,18.71c-.23.14.62.36.62.36S53.86,18.58,53.62,18.71Z" style="fill:#5c5c5c"/><path d="M54.29,18.55c-.33,0,0,.51,0,.51S54.62,18.55,54.29,18.55Z" style="fill:#5c5c5c"/><path d="M55,18.71c-.24-.13-.62.36-.62.36S55.19,18.85,55,18.71Z" style="fill:#5c5c5c"/><path d="M54.36,19.1s.88.19.88,0S54.36,19.1,54.36,19.1Z" style="fill:#5c5c5c"/><path d="M54.34,19.13s.39.49.62.35S54.34,19.13,54.34,19.13Z" style="fill:#5c5c5c"/><path d="M54.29,19.64c.34,0,0-.5,0-.5S54,19.64,54.29,19.64Z" style="fill:#5c5c5c"/><path d="M53.63,19.49c.23.13.61-.36.61-.36S53.39,19.35,53.63,19.49Z" style="fill:#5c5c5c"/><path d="M53.35,19.1c0,.19.87,0,.87,0S53.35,18.91,53.35,19.1Z" style="fill:#5c5c5c"/><ellipse cx="54.3" cy="19.1" rx="0.24" ry="0.14" style="fill:#696969"/><path d="M54.41,19a.24.24,0,0,0-.23,0c-.06,0-.06.09,0,.13a.24.24,0,0,0,.23,0C54.47,19.13,54.47,19.07,54.41,19Z" style="fill:#424242"/><path d="M54.25,19a0,0,0,0,0,0,0h0a0,0,0,0,0,0,0Z" style="fill:#fff"/><polygon points="42.69 23.85 47.85 26.82 52.52 24.13 47.36 21.15 42.69 23.85" style="fill:#383838"/><polygon points="45.95 21 49.75 23.2 51.45 22.22 47.65 20.02 45.95 21" style="fill:#ccc"/><polygon points="45.95 22.96 49.75 25.15 49.75 23.2 45.95 21 45.95 22.96" style="fill:gray"/><polygon points="49.75 25.15 51.45 24.17 51.45 22.22 49.75 23.2 49.75 25.15" style="fill:#999"/><path d="M48.34,20.6a1.53,1.53,0,0,0-1.35,0c-.37.22-.37.57,0,.78a1.46,1.46,0,0,0,1.35,0C48.71,21.17,48.71,20.82,48.34,20.6Z" style="fill:#2e2e2e"/><path d="M47,20.6c-.23.14.62.36.62.36S47.23,20.47,47,20.6Z" style="fill:#5c5c5c"/><path d="M47.66,20.44c-.33,0,0,.51,0,.51S48,20.44,47.66,20.44Z" style="fill:#5c5c5c"/><path d="M48.33,20.6c-.24-.13-.62.36-.62.36S48.56,20.74,48.33,20.6Z" style="fill:#5c5c5c"/><path d="M47.73,21s.88.19.88,0S47.73,21,47.73,21Z" style="fill:#5c5c5c"/><path d="M47.71,21s.39.49.62.35S47.71,21,47.71,21Z" style="fill:#5c5c5c"/><path d="M47.67,21.53c.33,0,0-.5,0-.5S47.33,21.53,47.67,21.53Z" style="fill:#5c5c5c"/><path d="M47,21.38c.23.13.61-.36.61-.36S46.76,21.24,47,21.38Z" style="fill:#5c5c5c"/><path d="M46.72,21c0,.19.87,0,.87,0S46.72,20.8,46.72,21Z" style="fill:#5c5c5c"/><path d="M47.84,20.89a.4.4,0,0,0-.34,0c-.1.06-.1.15,0,.2a.34.34,0,0,0,.34,0C47.93,21,47.93,21,47.84,20.89Z" style="fill:#696969"/><path d="M47.78,20.93a.24.24,0,0,0-.23,0c-.06,0-.06.09,0,.13a.24.24,0,0,0,.23,0C47.84,21,47.84,21,47.78,20.93Z" style="fill:#424242"/><path d="M47.62,20.91a0,0,0,0,0,0,0h.05a0,0,0,0,0,0,0Z" style="fill:#fff"/><path d="M50.33,21.7a1.53,1.53,0,0,0-1.35,0c-.37.22-.37.57,0,.78a1.46,1.46,0,0,0,1.35,0C50.7,22.27,50.7,21.92,50.33,21.7Z" style="fill:#2e2e2e"/><path d="M49,21.7c-.23.14.62.36.62.36S49.21,21.57,49,21.7Z" style="fill:#5c5c5c"/><path d="M49.65,21.54c-.33,0,0,.51,0,.51S50,21.54,49.65,21.54Z" style="fill:#5c5c5c"/><path d="M50.32,21.7c-.24-.13-.62.36-.62.36S50.55,21.84,50.32,21.7Z" style="fill:#5c5c5c"/><path d="M49.72,22.09s.87.19.87,0S49.72,22.09,49.72,22.09Z" style="fill:#5c5c5c"/><path d="M49.7,22.12s.38.49.62.35S49.7,22.12,49.7,22.12Z" style="fill:#5c5c5c"/><path d="M49.65,22.63c.33,0,0-.5,0-.5S49.32,22.63,49.65,22.63Z" style="fill:#5c5c5c"/><path d="M49,22.48c.24.13.62-.36.62-.36S48.75,22.34,49,22.48Z" style="fill:#5c5c5c"/><path d="M48.7,22.09c0,.19.88,0,.88,0S48.7,21.9,48.7,22.09Z" style="fill:#5c5c5c"/><path d="M49.82,22a.4.4,0,0,0-.34,0c-.09.06-.09.15,0,.2a.34.34,0,0,0,.34,0C49.92,22.14,49.92,22.05,49.82,22Z" style="fill:#696969"/><path d="M49.77,22a.24.24,0,0,0-.23,0c-.06,0-.06.09,0,.13a.3.3,0,0,0,.23,0C49.83,22.12,49.83,22.06,49.77,22Z" style="fill:#424242"/><path d="M49.61,22s0,0,0,0a0,0,0,0,0,0,0,0,0,0,0,0,0,0Z" style="fill:#fff"/><polygon points="44.05 22.06 47.85 24.25 49.55 23.27 45.75 21.08 44.05 22.06" style="fill:#ccc"/><polygon points="44.05 24.01 47.85 26.21 47.85 24.25 44.05 22.06 44.05 24.01" style="fill:gray"/><polygon points="47.85 26.21 49.55 25.23 49.55 23.27 47.85 24.25 47.85 26.21" style="fill:#999"/><ellipse cx="45.76" cy="22.05" rx="0.95" ry="0.55" style="fill:#2e2e2e"/><path d="M45.09,21.66c-.24.13.62.35.62.35S45.32,21.52,45.09,21.66Z" style="fill:#5c5c5c"/><path d="M45.76,21.5c-.34,0,0,.5,0,.5S46.09,21.5,45.76,21.5Z" style="fill:#5c5c5c"/><path d="M46.42,21.66c-.23-.14-.61.35-.61.35S46.66,21.79,46.42,21.66Z" style="fill:#5c5c5c"/><path d="M45.83,22s.87.19.87,0S45.83,22,45.83,22Z" style="fill:#5c5c5c"/><path d="M45.81,22.07s.38.49.62.36S45.81,22.07,45.81,22.07Z" style="fill:#5c5c5c"/><path d="M45.76,22.59c.33,0,0-.51,0-.51S45.43,22.59,45.76,22.59Z" style="fill:#5c5c5c"/><path d="M45.09,22.43c.24.13.62-.36.62-.36S44.86,22.29,45.09,22.43Z" style="fill:#5c5c5c"/><path d="M44.81,22c0,.2.88,0,.88,0S44.81,21.85,44.81,22Z" style="fill:#5c5c5c"/><path d="M45.93,22a.34.34,0,0,0-.34,0c-.09.05-.09.14,0,.2a.4.4,0,0,0,.34,0C46,22.09,46,22,45.93,22Z" style="fill:#696969"/><ellipse cx="45.76" cy="22.05" rx="0.16" ry="0.09" style="fill:#424242"/><path d="M45.72,22s0,0,0,0h.05a0,0,0,0,0,0,0Z" style="fill:#fff"/><path d="M48.42,22.76a1.46,1.46,0,0,0-1.35,0c-.37.21-.37.56,0,.78a1.53,1.53,0,0,0,1.35,0C48.79,23.32,48.79,23,48.42,22.76Z" style="fill:#2e2e2e"/><path d="M47.07,22.76c-.23.13.62.35.62.35S47.31,22.62,47.07,22.76Z" style="fill:#5c5c5c"/><path d="M47.74,22.6c-.33,0,0,.5,0,.5S48.07,22.6,47.74,22.6Z" style="fill:#5c5c5c"/><path d="M48.41,22.76c-.23-.14-.62.35-.62.35S48.64,22.89,48.41,22.76Z" style="fill:#5c5c5c"/><path d="M47.82,23.14s.87.19.87,0S47.82,23.14,47.82,23.14Z" style="fill:#5c5c5c"/><path d="M47.8,23.17s.38.49.61.36S47.8,23.17,47.8,23.17Z" style="fill:#5c5c5c"/><path d="M47.75,23.69c.33,0,0-.51,0-.51S47.42,23.69,47.75,23.69Z" style="fill:#5c5c5c"/><path d="M47.08,23.53c.23.13.62-.36.62-.36S46.84,23.39,47.08,23.53Z" style="fill:#5c5c5c"/><path d="M46.8,23.14c0,.2.87,0,.87,0S46.8,23,46.8,23.14Z" style="fill:#5c5c5c"/><ellipse cx="47.75" cy="23.15" rx="0.24" ry="0.14" style="fill:#696969"/><path d="M47.86,23.08a.3.3,0,0,0-.23,0c-.06,0-.06.1,0,.13a.24.24,0,0,0,.23,0C47.92,23.18,47.92,23.12,47.86,23.08Z" style="fill:#424242"/><path d="M47.7,23.07s0,0,0,0h0s0,0,0,0A0,0,0,0,0,47.7,23.07Z" style="fill:#fff"/><path d="M19.46,56.34c0,1.18-.83,1.66-1.85,1.07a4.09,4.09,0,0,1-1.85-3.2c0-1.18.83-1.66,1.85-1.07A4.1,4.1,0,0,1,19.46,56.34Z" style="fill:#233e63"/><path d="M17.76,54.69l-.21-.36-.2.12-.58-.57V55a2.15,2.15,0,0,0,.47,1.24l.31.39.31,0c.29,0,.47-.3.47-.69V54.78Z" style="fill:#e8b62a"/><polygon points="17.66 58.47 17.66 67.8 13.8 65.57 13.8 56.24 17.66 58.47" style="fill:#c9c9c9"/><polygon points="17.35 62.94 17.35 63.21 14.08 61.34 14.08 57.02 14.31 57.16 14.31 61.21 17.35 62.94" style="fill:gray"/><polygon points="17.35 58.89 17.35 62.94 14.31 61.21 14.31 57.16 17.35 58.89" style="fill:#0c778f"/><polygon points="17.05 58.73 16.2 58.24 14.55 61.35 15.27 61.75 17.05 58.73" style="fill:#fff;opacity:0.2"/><polygon points="17.35 60.37 17.35 59.52 15.95 62.15 16.27 62.33 17.35 60.37" style="fill:#fff;opacity:0.2"/><polygon points="17.35 66.75 17.35 67.02 14.08 65.15 14.08 61.78 14.31 61.92 14.31 65.02 17.35 66.75" style="fill:gray"/><polygon points="17.35 63.65 17.35 66.75 14.31 65.02 14.31 61.92 17.35 63.65" style="fill:#0c778f"/><polygon points="16.63 63.24 15.78 62.75 14.55 65.15 15.27 65.56 16.63 63.24" style="fill:#fff;opacity:0.2"/><polygon points="17.35 64.17 17.35 63.65 17.21 63.58 15.95 65.95 16.27 66.13 17.35 64.17" style="fill:#fff;opacity:0.2"/><polygon points="21.53 70.03 21.53 70.46 13.44 65.79 13.44 56.02 13.8 56.24 13.8 65.57 21.53 70.03" style="fill:#182b45"/><polygon points="21.53 60.7 21.53 70.03 17.66 67.8 17.66 58.47 21.53 60.7" style="fill:#c9c9c9"/><polygon points="17.55 58.4 17.55 67.74 17.66 67.8 17.66 58.47 17.55 58.4" style="fill:#8a8a8a"/><polygon points="21.21 65.17 21.21 65.44 17.94 63.57 17.94 59.26 18.17 59.39 18.17 63.44 21.21 65.17" style="fill:gray"/><polygon points="21.21 61.12 21.21 65.17 18.17 63.44 18.17 59.39 21.21 61.12" style="fill:#0c778f"/><polygon points="20.92 60.95 20.06 60.47 18.42 63.58 19.13 63.98 20.92 60.95" style="fill:#fff;opacity:0.2"/><polygon points="21.21 62.59 21.21 61.75 19.82 64.38 20.13 64.56 21.21 62.59" style="fill:#fff;opacity:0.2"/><polygon points="21.21 68.98 21.21 69.25 17.94 67.38 17.94 64.01 18.17 64.15 18.17 67.25 21.21 68.98" style="fill:gray"/><polygon points="21.21 65.88 21.21 68.98 18.17 67.25 18.17 64.15 21.21 65.88" style="fill:#0c778f"/><polygon points="20.49 65.47 19.64 64.98 18.42 67.38 19.13 67.79 20.49 65.47" style="fill:#fff;opacity:0.2"/><polygon points="21.21 66.4 21.21 65.88 21.08 65.81 19.82 68.18 20.13 68.36 21.21 66.4" style="fill:#fff;opacity:0.2"/><path d="M18.06,63.83a.26.26,0,1,1-.25-.25A.25.25,0,0,1,18.06,63.83Z" style="fill:#666"/><path d="M18,63.68s0,.06,0,.07,0,0-.07,0a0,0,0,0,1,0-.07A.05.05,0,0,1,18,63.68Z" style="fill:#d6d6d6"/><path d="M17.5,63.54a.25.25,0,1,1-.25-.25A.25.25,0,0,1,17.5,63.54Z" style="fill:#666"/><path d="M17.41,63.39s0,.06,0,.07a0,0,0,0,1-.07,0s0-.06,0-.08S17.38,63.37,17.41,63.39Z" style="fill:#d6d6d6"/><polygon points="30.07 63.41 30.07 65.69 26.68 63.73 26.68 61.45 30.07 63.41" style="fill:#0c778f"/><polygon points="30.07 66.47 30.07 69.86 26.68 67.9 26.68 64.51 30.07 66.47" style="fill:#0c778f"/><polygon points="29.92 66.39 29.06 65.89 26.93 68.05 27.75 68.52 29.92 66.39" style="fill:#fff;opacity:0.2"/><polygon points="28.6 65.63 26.68 67.57 26.68 66.81 28.14 65.36 28.6 65.63" style="fill:#fff;opacity:0.2"/><polygon points="29.44 63.05 27.95 64.47 27.35 64.12 28.82 62.7 29.44 63.05" style="fill:#fff;opacity:0.2"/><polygon points="30.07 63.41 30.07 63.98 29.05 65.1 28.32 64.68 29.74 63.22 30.07 63.41" style="fill:#fff;opacity:0.2"/><path d="M26,60.78v7.5l4.42,2.55v-7.5Zm4.1,9.08-3.4-2V64.51l3.4,2Zm0-4.17-3.4-2V61.45l3.4,2Z" style="fill:#fff"/><polygon points="30.07 65.69 30.07 66.13 26.3 63.95 26.3 61.23 26.68 61.45 26.68 63.73 30.07 65.69" style="fill:#9c9c9c"/><polygon points="30.07 69.86 30.07 70.3 26.3 68.12 26.3 64.29 26.68 64.51 26.68 67.9 30.07 69.86" style="fill:#9c9c9c"/><polygon points="38.84 63.56 38.84 65.85 42.23 63.89 42.23 61.61 38.84 63.56" style="fill:#1ac"/><polygon points="38.84 66.63 38.84 70.02 42.23 68.06 42.23 64.67 38.84 66.63" style="fill:#1ac"/><polygon points="38.98 66.54 39.85 66.04 41.97 68.21 41.15 68.68 38.98 66.54" style="fill:#fff;opacity:0.2"/><polygon points="40.3 65.78 42.23 67.72 42.23 66.96 40.77 65.51 40.3 65.78" style="fill:#fff;opacity:0.2"/><polygon points="39.46 63.2 40.95 64.63 41.55 64.28 40.08 62.85 39.46 63.2" style="fill:#fff;opacity:0.2"/><polygon points="38.84 63.56 38.84 64.14 39.86 65.26 40.58 64.84 39.16 63.38 38.84 63.56" style="fill:#fff;opacity:0.2"/><path d="M38.51,63.48V71l4.42-2.55V60.93Zm.33,3.15,3.39-2v3.39l-3.39,2Zm0-3.06,3.39-2v2.28l-3.39,2Z" style="fill:#fff"/><polygon points="38.84 65.85 38.84 66.28 42.61 64.11 42.61 61.39 42.23 61.61 42.23 63.89 38.84 65.85" style="fill:#9c9c9c"/><polygon points="38.84 70.02 38.84 70.45 42.61 68.28 42.61 64.45 42.23 64.67 42.23 68.06 38.84 70.02" style="fill:#9c9c9c"/><polygon points="9.44 51.5 9.44 53.78 6.05 51.82 6.05 49.54 9.44 51.5" style="fill:#0c778f"/><polygon points="9.44 54.56 9.44 57.95 6.05 55.99 6.05 52.6 9.44 54.56" style="fill:#0c778f"/><polygon points="9.29 54.48 8.43 53.98 6.31 56.14 7.12 56.62 9.29 54.48" style="fill:#fff;opacity:0.2"/><polygon points="7.98 53.72 6.05 55.66 6.05 54.9 7.51 53.45 7.98 53.72" style="fill:#fff;opacity:0.2"/><polygon points="8.81 51.14 7.33 52.56 6.72 52.21 8.19 50.79 8.81 51.14" style="fill:#fff;opacity:0.2"/><polygon points="9.44 51.5 9.44 52.07 8.42 53.19 7.69 52.77 9.11 51.31 9.44 51.5" style="fill:#fff;opacity:0.2"/><path d="M5.35,48.87v7.5l4.41,2.55v-7.5ZM9.44,58,6.05,56V52.6l3.39,2Zm0-4.17-3.39-2V49.54l3.39,2Z" style="fill:#fff"/><polygon points="9.44 53.78 9.44 54.22 5.67 52.04 5.67 49.32 6.05 49.54 6.05 51.82 9.44 53.78" style="fill:#9c9c9c"/><polygon points="9.44 57.95 9.44 58.39 5.67 56.21 5.67 52.38 6.05 52.6 6.05 55.99 9.44 57.95" style="fill:#9c9c9c"/><polygon points="51.94 56.12 51.94 61.09 47.64 63.57 47.64 62.47 50.99 60.53 50.99 56.67 51.94 56.12" style="fill:#434e5c"/><polygon points="50.99 56.67 50.99 60.53 47.64 62.47 47.64 58.6 50.99 56.67" style="fill:#085566"/><polygon points="49.7 61.26 48.78 61.79 47.71 58.56 48.65 58 49.7 61.26" style="fill:#fff;opacity:0.1"/><polygon points="50.79 60.65 50.39 60.89 49.14 57.73 49.74 57.4 50.79 60.65" style="fill:#fff;opacity:0.1"/><path d="M51.17,61V56.57l-.36.2V61a.09.09,0,0,0,.06.08.28.28,0,0,0,.25,0A.1.1,0,0,0,51.17,61Z" style="fill:#2e2e2e"/><path d="M50.14,61.58V57.16l-.35.21v4.21s0,.05.05.07a.28.28,0,0,0,.25,0S50.14,61.61,50.14,61.58Z" style="fill:#2e2e2e"/><path d="M49.13,62.15V57.74l-.36.2v4.21a.1.1,0,0,0,0,.08.28.28,0,0,0,.25,0A.09.09,0,0,0,49.13,62.15Z" style="fill:#2e2e2e"/><path d="M48.18,62.73V58.31l-.35.2v4.22a.1.1,0,0,0,.05.07.28.28,0,0,0,.25,0A.08.08,0,0,0,48.18,62.73Z" style="fill:#2e2e2e"/><polygon points="57.81 52.73 57.81 57.7 53.5 60.19 53.5 59.08 56.85 57.15 56.85 53.28 57.81 52.73" style="fill:#434e5c"/><polygon points="56.85 53.28 56.85 57.15 53.5 59.08 53.5 55.22 56.85 53.28" style="fill:#085566"/><polygon points="55.57 57.87 54.65 58.41 53.58 55.18 54.51 54.62 55.57 57.87" style="fill:#fff;opacity:0.1"/><polygon points="56.66 57.27 56.25 57.5 55.01 54.35 55.6 54.01 56.66 57.27" style="fill:#fff;opacity:0.1"/><path d="M57,57.6V53.18l-.35.21V57.6a.1.1,0,0,0,0,.07.28.28,0,0,0,.25,0A.08.08,0,0,0,57,57.6Z" style="fill:#2e2e2e"/><path d="M56,58.2V53.78l-.35.2V58.2a.08.08,0,0,0,.05.07.28.28,0,0,0,.25,0A.1.1,0,0,0,56,58.2Z" style="fill:#2e2e2e"/><path d="M55,58.77V54.35l-.35.21v4.21s0,0,0,.07a.28.28,0,0,0,.25,0S55,58.8,55,58.77Z" style="fill:#2e2e2e"/><path d="M54.05,59.34V54.92l-.36.21v4.21s0,0,.06.07a.28.28,0,0,0,.25,0S54.05,59.37,54.05,59.34Z" style="fill:#2e2e2e"/><polygon points="63.61 49.38 63.61 54.35 59.31 56.84 59.31 55.73 62.66 53.8 62.66 49.94 63.61 49.38" style="fill:#434e5c"/><polygon points="62.66 49.94 62.66 53.8 59.31 55.73 59.31 51.87 62.66 49.94" style="fill:#085566"/><polygon points="61.37 54.52 60.45 55.06 59.38 51.83 60.32 51.27 61.37 54.52" style="fill:#fff;opacity:0.1"/><polygon points="62.46 53.92 62.05 54.15 60.81 51 61.41 50.66 62.46 53.92" style="fill:#fff;opacity:0.1"/><path d="M62.84,54.25V49.83l-.36.2v4.22a.1.1,0,0,0,.05.07.28.28,0,0,0,.25,0A.1.1,0,0,0,62.84,54.25Z" style="fill:#2e2e2e"/><path d="M61.81,54.85V50.43l-.35.2v4.22a.1.1,0,0,0,0,.07.28.28,0,0,0,.25,0A.08.08,0,0,0,61.81,54.85Z" style="fill:#2e2e2e"/><path d="M60.79,55.42V51l-.35.2v4.22a.1.1,0,0,0,.05.07.28.28,0,0,0,.25,0A.08.08,0,0,0,60.79,55.42Z" style="fill:#2e2e2e"/><path d="M59.85,56V51.57l-.35.21V56s0,0,0,.07a.28.28,0,0,0,.25,0S59.85,56,59.85,56Z" style="fill:#2e2e2e"/><polygon points="64.3 25.61 64.27 37.95 36.46 54.04 36.46 53.12 63.47 37.49 63.5 26.07 64.3 25.61" style="fill:#a3a3a3"/><polygon points="63.5 26.07 63.47 37.49 36.46 53.12 36.49 41.7 63.5 26.07" style="fill:#1ac"/><polygon points="63.5 26.07 63.47 37.49 53.66 31.82 63.5 26.07" style="fill:#00cefc"/><polygon points="44.53 37.05 54.05 42.94 48.24 46.3 38.18 40.73 44.53 37.05" style="fill:#fff;opacity:0.2"/><polygon points="52.18 32.63 61.69 38.52 60.44 39.25 50.38 33.67 52.18 32.63" style="fill:#fff;opacity:0.2"/><polygon points="57.03 42.27 56.29 42.7 56.29 30.17 57.03 29.74 57.03 42.27" style="fill:#d4d4d4"/><polygon points="56.29 42.56 55.51 42.09 55.51 30.7 56.29 30.25 56.29 42.56" style="fill:#a3a3a3"/><polygon points="46.34 48.47 45.6 48.9 45.6 36.37 46.34 35.94 46.34 48.47" style="fill:#d4d4d4"/><polygon points="45.6 48.76 44.82 48.29 44.82 36.89 45.6 36.44 45.6 48.76" style="fill:#a3a3a3"/><polygon points="2.8 24.14 2.83 36.48 33.22 54.04 33.22 53.12 3.63 36.02 3.6 24.61 2.8 24.14" style="fill:#878787"/><polygon points="3.6 24.61 3.63 36.02 33.22 53.12 33.18 41.7 3.6 24.61" style="fill:#0c778f"/><polygon points="3.6 24.61 3.63 36.02 13.44 30.31 3.6 24.61" style="fill:#0f95b3"/><polygon points="6.81 26.46 9.88 39.62 11.67 40.66 8.61 27.51 6.81 26.46" style="fill:#fff;opacity:0.1"/><polygon points="15.9 31.73 18.98 44.91 27.54 49.85 24.41 36.59 15.9 31.73" style="fill:#fff;opacity:0.1"/><polygon points="10.47 41.02 11.21 41.45 11.21 28.92 10.47 28.49 10.47 41.02" style="fill:#adadad"/><polygon points="11.21 41.31 11.99 40.84 11.99 29.45 11.21 29 11.21 41.31" style="fill:#878787"/><polygon points="23.33 48.47 24.08 48.9 24.08 36.37 23.33 35.94 23.33 48.47" style="fill:#adadad"/><polygon points="24.08 48.76 24.86 48.29 24.86 36.89 24.08 36.44 24.08 48.76" style="fill:#878787"/><polygon points="25.66 51.99 9.02 42.39 9.67 42.01 26.31 51.61 25.66 51.99" style="fill:#e8e8e8"/><polygon points="26.31 55.77 25.66 56.15 25.66 51.99 26.31 51.61 26.31 55.77" style="fill:#d4d4d4"/><polygon points="25.66 56.15 9.02 46.54 9.02 42.39 25.66 51.99 25.66 56.15" style="fill:#b5b5b5"/><path d="M11.89,44.76l.84.49a1.6,1.6,0,0,1,.9,1.37c0,.63-.42.67-.9.38l-.32-.18v.9l-.52-.3Zm.81,1.75c.28.17.42.1.42-.18a.7.7,0,0,0-.42-.62l-.29-.17v.8Z" style="fill:#254169"/><path d="M13.92,47.25c0-.87.42-1.12,1-.76a2.25,2.25,0,0,1,1,2c0,.86-.42,1.14-1,.78A2.28,2.28,0,0,1,13.92,47.25Zm1.55.9A1.29,1.29,0,0,0,15,47c-.32-.19-.51,0-.51.55A1.33,1.33,0,0,0,15,48.73C15.27,48.91,15.47,48.68,15.47,48.15Z" style="fill:#254169"/><path d="M16.43,47.39l.52.3v2.15l.91.53v.5l-1.43-.82Z" style="fill:#254169"/><path d="M18.26,48.44l.52.3V51.4l-.52-.3Z" style="fill:#254169"/><path d="M20.31,49.58a1.86,1.86,0,0,1,.68.74l-.28.2a1.14,1.14,0,0,0-.39-.42c-.32-.19-.57,0-.57.52a1.34,1.34,0,0,0,.55,1.19.39.39,0,0,0,.44,0l.29.52a.62.62,0,0,1-.73,0,2.29,2.29,0,0,1-1.09-2C19.21,49.46,19.72,49.24,20.31,49.58Z" style="fill:#254169"/><path d="M21.37,50.24l1.44.83v.51l-.92-.53v.53l.79.45v.5l-.79-.45v.61l1,.55v.51l-1.48-.85Z" style="fill:#254169"/><path d="M19.29,72.73a1.27,1.27,0,0,0,1.14,0,.35.35,0,0,0,0-.66,1.27,1.27,0,0,0-1.14,0A.35.35,0,0,0,19.29,72.73Z" style="opacity:0.30000000000000004"/><path d="M19.16,72.24h0l.12-.18.09,0a1.12,1.12,0,0,1,1,0l.09,0,.12.18c.1.15,0,.34-.17.46a1.17,1.17,0,0,1-1.06,0C19.12,72.57,19.06,72.39,19.16,72.24Z" style="fill:#212121"/><path d="M19.41,72.46a1,1,0,0,0,.9,0c.25-.14.25-.37,0-.52a1,1,0,0,0-.9,0C19.16,72.09,19.16,72.32,19.41,72.46Z" style="fill:#3b3b3b"/><ellipse cx="19.86" cy="72.2" rx="0.19" ry="0.11" style="fill:#292929"/><path d="M20,65.12V72.2s0,0,0,0a.25.25,0,0,1-.17,0s0,0,0,0h0V65.12Z" style="fill:#1a1a1a"/><path d="M20.75,64.31a1,1,0,0,1-.08.37,1.07,1.07,0,0,1-1.62,0,1,1,0,0,1-.08-.37.89.89,0,0,1,1.78,0Z" style="fill:#fffa52"/><path d="M19.86,64.94a1.42,1.42,0,0,1-.81-.26.9.9,0,0,0,.81.51.89.89,0,0,0,.81-.51A1.42,1.42,0,0,1,19.86,64.94Z" style="fill:#3b3b3b"/><circle cx="19.86" cy="64.24" r="0.25" style="fill:#fffdbf"/><ellipse cx="10.65" cy="67.01" rx="0.8" ry="0.46" style="opacity:0.30000000000000004"/><path d="M10,66.85h0l.12-.18h.09a1.2,1.2,0,0,1,1,0h.09l.11.17c.11.16.05.34-.16.47a1.23,1.23,0,0,1-1.06,0C9.91,67.18,9.85,67,10,66.85Z" style="fill:#212121"/><path d="M10.2,67.08a1,1,0,0,0,.9,0c.25-.15.25-.38,0-.52a1,1,0,0,0-.9,0C10,66.7,10,66.93,10.2,67.08Z" style="fill:#3b3b3b"/><path d="M10.51,66.9a.34.34,0,0,0,.28,0c.07-.05.07-.12,0-.16a.28.28,0,0,0-.28,0C10.44,66.78,10.44,66.85,10.51,66.9Z" style="fill:#292929"/><path d="M10.77,59.74v7.07a.05.05,0,0,1,0,0,.17.17,0,0,1-.17,0,.05.05,0,0,1,0,0h0V59.74Z" style="fill:#1a1a1a"/><path d="M11.54,58.92a.91.91,0,0,1-.08.37,1.07,1.07,0,0,1-1.62,0,.91.91,0,0,1-.08-.37.89.89,0,1,1,1.78,0Z" style="fill:#fffa52"/><path d="M10.65,59.56a1.36,1.36,0,0,1-.81-.27.89.89,0,0,0,1.62,0A1.36,1.36,0,0,1,10.65,59.56Z" style="fill:#3b3b3b"/><path d="M10.9,58.85a.25.25,0,1,1-.25-.25A.25.25,0,0,1,10.9,58.85Z" style="fill:#fffdbf"/></g></g></svg>