<svg xmlns="http://www.w3.org/2000/svg" viewBox="0 0 45.72 29.17"><g id="Layer_2" data-name="Layer 2"><g id="Layer_1-2" data-name="Layer 1"><path d="M34.28,26.87a1.56,1.56,0,0,1-.82-.21L10.24,13.25a.91.91,0,0,1-.5-.8,1,1,0,0,1,.55-.86l10-5.76A1.89,1.89,0,0,1,22,5.8L45.22,19.21a.93.93,0,0,1,.5.81,1,1,0,0,1-.55.86l-10,5.76A2,2,0,0,1,34.28,26.87Z" style="opacity:0.30000000000000004"/><path d="M45.15,18.59l-1.56,0v.38L21.71,6.3a1.28,1.28,0,0,0-1.16,0l-8.71,5,.09-.1-1.61-.21v1.39h0a.34.34,0,0,0,.21.31L33.76,26.16a1.23,1.23,0,0,0,1.15,0l10-5.75c.18-.11.27-.24.26-.37h0Z" style="fill:#0a8074"/><path d="M44.93,18.3,21.71,4.89a1.32,1.32,0,0,0-1.16,0l-10,5.76c-.33.19-.36.49-.05.66L33.76,24.75a1.26,1.26,0,0,0,1.15,0l10-5.76C45.21,18.77,45.24,18.48,44.93,18.3Z" style="fill:#16a89f"/><path d="M41.59,18.05l.1-.05c.3-.18.31-.46,0-.63L23,6.58a1.22,1.22,0,0,0-1.1,0l-.05,0a1.22,1.22,0,0,1-1.1,0h0a1.2,1.2,0,0,0-1.09,0l-6.13,3.53c-.3.18-.31.46,0,.63h0c.3.17.3.45,0,.63l-.09.05c-.31.18-.31.46,0,.63L32.1,22.91a1.23,1.23,0,0,0,1.09,0l.1-.06a1.2,1.2,0,0,1,1.09,0l.24.14a1.2,1.2,0,0,0,1.09,0l6.1-3.52c.3-.18.31-.46,0-.63l-.25-.15C41.28,18.51,41.29,18.23,41.59,18.05Z" style="fill:#bafffb"/><path d="M30.49,16.44c2.19-1.26,2.72-3,1.18-3.89s-4.55-.58-6.74.68-2.71,3-1.18,3.89S28.31,17.7,30.49,16.44Z" style="fill:#16a89f"/><path d="M19.75,10.22c-.69.4-.74,1-.1,1.39a2.66,2.66,0,0,0,2.41-.06c.7-.4.74-1,.1-1.39A2.66,2.66,0,0,0,19.75,10.22Z" style="fill:#16a89f"/><path d="M33.33,18.06c-.7.4-.74,1-.1,1.39a2.7,2.7,0,0,0,2.41-.06c.69-.4.73-1,.1-1.39A2.66,2.66,0,0,0,33.33,18.06Z" style="fill:#16a89f"/><path d="M45.15,17l-1.56,0v.38L21.71,4.71a1.25,1.25,0,0,0-1.16,0l-8.71,5,.09-.1-1.61-.21v1.38h0a.34.34,0,0,0,.21.32L33.76,24.57a1.26,1.26,0,0,0,1.15,0l10-5.76c.18-.1.27-.23.26-.36h0Z" style="fill:#0a8074"/><path d="M44.93,16.71,21.71,3.3a1.32,1.32,0,0,0-1.16,0l-10,5.76c-.33.19-.36.49-.05.66L33.76,23.16a1.23,1.23,0,0,0,1.15,0l10-5.76C45.21,17.18,45.24,16.88,44.93,16.71Z" style="fill:#16a89f"/><path d="M41.59,16.46l.1-.05c.3-.18.31-.46,0-.64L23,5a1.22,1.22,0,0,0-1.1,0l-.05,0a1.22,1.22,0,0,1-1.1,0h0a1.2,1.2,0,0,0-1.09,0L13.53,8.58c-.3.17-.31.46,0,.63h0c.3.17.3.45,0,.63l-.09.05c-.31.18-.31.46,0,.63L32.1,21.32a1.2,1.2,0,0,0,1.09,0l.1-.06a1.23,1.23,0,0,1,1.09,0l.24.14a1.2,1.2,0,0,0,1.09,0l6.1-3.51c.3-.18.31-.46,0-.63l-.25-.15C41.28,16.92,41.29,16.64,41.59,16.46Z" style="fill:#bafffb"/><path d="M30.49,14.85c2.19-1.27,2.72-3,1.18-3.89s-4.55-.59-6.74.67-2.71,3-1.18,3.9S28.31,16.11,30.49,14.85Z" style="fill:#16a89f"/><path d="M19.75,8.62c-.69.4-.74,1-.1,1.4A2.66,2.66,0,0,0,22.06,10c.7-.4.74-1,.1-1.39A2.69,2.69,0,0,0,19.75,8.62Z" style="fill:#16a89f"/><path d="M33.33,16.46c-.7.4-.74,1-.1,1.39a2.69,2.69,0,0,0,2.41-.05c.69-.4.73-1,.1-1.4A2.7,2.7,0,0,0,33.33,16.46Z" style="fill:#16a89f"/><path d="M45.15,15.41l-1.56,0v.39L21.71,3.13a1.28,1.28,0,0,0-1.16,0l-8.71,5,.09-.09-1.61-.21V9.26h0a.35.35,0,0,0,.21.32L33.76,23a1.3,1.3,0,0,0,1.15,0l10-5.76a.42.42,0,0,0,.26-.36h0Z" style="fill:#0a8074"/><path d="M44.93,15.13,21.71,1.72a1.28,1.28,0,0,0-1.16,0l-10,5.76c-.33.2-.36.49-.05.67L33.76,21.58a1.3,1.3,0,0,0,1.15,0l10-5.76C45.21,15.6,45.24,15.3,44.93,15.13Z" style="fill:#16a89f"/><path d="M41.59,14.88l.1-.06c.3-.17.31-.46,0-.63L23,3.41a1.19,1.19,0,0,0-1.1,0l-.05,0a1.19,1.19,0,0,1-1.1,0h0a1.2,1.2,0,0,0-1.09,0L13.53,7c-.3.18-.31.46,0,.64h0c.3.18.3.46,0,.63l-.09.05c-.31.18-.31.46,0,.64L32.1,19.73a1.23,1.23,0,0,0,1.09,0l.1-.06a1.23,1.23,0,0,1,1.09,0l.24.14a1.2,1.2,0,0,0,1.09,0l6.1-3.52c.3-.18.31-.45,0-.63l-.25-.15C41.28,15.33,41.29,15.05,41.59,14.88Z" style="fill:#bafffb"/><path d="M30.49,13.26c2.19-1.26,2.72-3,1.18-3.89s-4.55-.58-6.74.68-2.71,3-1.18,3.89S28.31,14.53,30.49,13.26Z" style="fill:#16a89f"/><path d="M19.75,7c-.69.4-.74,1-.1,1.39a2.69,2.69,0,0,0,2.41,0c.7-.41.74-1,.1-1.4A2.66,2.66,0,0,0,19.75,7Z" style="fill:#16a89f"/><path d="M33.33,14.88c-.7.4-.74,1-.1,1.39a2.66,2.66,0,0,0,2.41-.06c.69-.4.73-1,.1-1.39A2.66,2.66,0,0,0,33.33,14.88Z" style="fill:#16a89f"/><path d="M45.15,13.82l-1.56,0v.39L21.71,1.53a1.28,1.28,0,0,0-1.16,0l-8.71,5,.09-.1-1.61-.21V7.67h0a.36.36,0,0,0,.21.32l23.23,13.4a1.26,1.26,0,0,0,1.15,0l10-5.76c.18-.11.27-.24.26-.37h0Z" style="fill:#0a8074"/><path d="M44.93,13.53l-8-4.61-1-.23L30,5.29l-.28-.54-8-4.63a1.32,1.32,0,0,0-1.16,0l-10,5.76c-.33.19-.36.49-.05.67L33.76,20a1.3,1.3,0,0,0,1.15,0l10-5.76C45.21,14,45.24,13.71,44.93,13.53Z" style="fill:#16a89f"/><path d="M41.59,13.29l.1-.06c.3-.18.31-.46,0-.63L23,1.82a1.19,1.19,0,0,0-1.1,0l-.05,0a1.22,1.22,0,0,1-1.1,0h0a1.2,1.2,0,0,0-1.09,0L13.53,5.4c-.3.18-.31.46,0,.63h0c.3.17.3.45,0,.63l-.09,0c-.31.18-.31.46,0,.63L32.1,18.14a1.23,1.23,0,0,0,1.09,0l.1-.06a1.2,1.2,0,0,1,1.09,0l.24.14a1.2,1.2,0,0,0,1.09,0l6.1-3.52c.3-.18.31-.46,0-.63l-.25-.15C41.28,13.74,41.29,13.46,41.59,13.29Z" style="fill:#bafffb"/><path d="M30.49,11.67c2.19-1.26,2.72-3,1.18-3.89s-4.55-.58-6.74.68-2.71,3-1.18,3.89S28.31,12.93,30.49,11.67Z" style="fill:#16a89f"/><path d="M19.75,5.45c-.69.4-.74,1-.1,1.39a2.66,2.66,0,0,0,2.41-.06c.7-.4.74-1,.1-1.39A2.66,2.66,0,0,0,19.75,5.45Z" style="fill:#16a89f"/><path d="M33.33,13.29c-.7.4-.74,1-.1,1.39a2.66,2.66,0,0,0,2.41-.06c.69-.4.73-1,.1-1.39A2.66,2.66,0,0,0,33.33,13.29Z" style="fill:#16a89f"/><polygon points="24.41 20.78 19.83 18.14 19.83 11.98 24.4 14.62 24.41 20.78" style="fill:#d1d3d4"/><polygon points="25.73 21.54 24.41 20.78 24.4 14.62 25.73 15.38 25.73 21.54" style="fill:#ff8400"/><polygon points="19.83 18.14 18.51 17.37 18.51 11.21 19.83 11.98 19.83 18.14" style="fill:#ff8400"/><polygon points="35.62 8.14 31.05 5.5 19.83 11.98 24.41 14.62 35.62 8.14" style="fill:#fff"/><polygon points="36.95 8.9 35.62 8.14 24.41 14.62 25.73 15.38 36.95 8.9" style="fill:#ff9d26"/><polygon points="31.05 5.5 29.73 4.74 18.51 11.21 19.83 11.98 31.05 5.5" style="fill:#ff9d26"/><path d="M24.55,29.17a1.66,1.66,0,0,1-.82-.2L.5,15.56a.93.93,0,0,1-.5-.81,1,1,0,0,1,.55-.86l10-5.76a1.92,1.92,0,0,1,1.73,0L35.49,21.51a.94.94,0,0,1,.5.81,1,1,0,0,1-.55.86l-10,5.76A1.84,1.84,0,0,1,24.55,29.17Z" style="opacity:0.30000000000000004"/><path d="M35.41,20.89l-1.56,0v.38L12,8.61a1.26,1.26,0,0,0-1.15,0l-8.71,5,.08-.1L.58,13.36v1.39h0a.37.37,0,0,0,.21.31L24,28.47a1.3,1.3,0,0,0,1.15,0l10-5.76a.43.43,0,0,0,.26-.36h0Z" style="fill:#0a8074"/><path d="M35.2,20.61,12,7.2a1.23,1.23,0,0,0-1.15,0L.84,13c-.33.19-.35.49,0,.66L24,27.06a1.26,1.26,0,0,0,1.15,0l10-5.76C35.48,21.08,35.5,20.78,35.2,20.61Z" style="fill:#16a89f"/><path d="M31.86,20.36,32,20.3c.31-.17.31-.45,0-.63L13.29,8.89a1.22,1.22,0,0,0-1.1,0l-.06,0A1.22,1.22,0,0,1,11,9h0a1.2,1.2,0,0,0-1.09,0L3.8,12.48a.33.33,0,0,0,0,.63h0c.29.18.29.46,0,.64l-.08.05c-.31.17-.32.46,0,.63L22.37,25.21a1.18,1.18,0,0,0,1.08,0l.1-.06a1.23,1.23,0,0,1,1.09,0l.24.14a1.22,1.22,0,0,0,1.1,0l6.09-3.52c.31-.17.31-.45,0-.62L31.84,21A.33.33,0,0,1,31.86,20.36Z" style="fill:#bafffb"/><path d="M20.76,18.75c2.19-1.27,2.71-3,1.18-3.89s-4.56-.59-6.74.67-2.72,3-1.18,3.89S18.57,20,20.76,18.75Z" style="fill:#16a89f"/><path d="M10,12.52c-.7.4-.74,1-.1,1.39a2.66,2.66,0,0,0,2.41-.05c.69-.4.74-1,.1-1.39A2.66,2.66,0,0,0,10,12.52Z" style="fill:#16a89f"/><path d="M23.59,20.36c-.69.4-.74,1-.1,1.39a2.66,2.66,0,0,0,2.41-.06c.69-.4.74-1,.1-1.39A2.7,2.7,0,0,0,23.59,20.36Z" style="fill:#16a89f"/><path d="M35.41,19.3l-1.56,0v.38L12,7a1.3,1.3,0,0,0-1.15,0l-8.71,5L2.19,12,.58,11.77v1.38h0a.39.39,0,0,0,.21.32L24,26.88a1.3,1.3,0,0,0,1.15,0l10-5.76a.43.43,0,0,0,.26-.36h0Z" style="fill:#0a8074"/><path d="M35.2,19,12,5.61a1.26,1.26,0,0,0-1.15,0l-10,5.76c-.33.2-.35.49,0,.67L24,25.47a1.3,1.3,0,0,0,1.15,0l10-5.76C35.48,19.49,35.5,19.19,35.2,19Z" style="fill:#16a89f"/><path d="M31.86,18.77l.09-.06a.33.33,0,0,0,0-.63L13.29,7.3a1.19,1.19,0,0,0-1.1,0l-.06,0a1.19,1.19,0,0,1-1.1,0h0a1.2,1.2,0,0,0-1.09,0L3.8,10.89c-.31.17-.31.45,0,.63h0c.29.17.29.46,0,.63l-.08,0c-.31.18-.32.46,0,.64L22.37,23.62a1.21,1.21,0,0,0,1.08,0l.1-.06a1.23,1.23,0,0,1,1.09,0l.24.14a1.22,1.22,0,0,0,1.1,0l6.09-3.52c.31-.18.31-.45,0-.63l-.25-.14A.33.33,0,0,1,31.86,18.77Z" style="fill:#bafffb"/><path d="M20.76,17.15c2.19-1.26,2.71-3,1.18-3.89s-4.56-.58-6.74.68-2.72,3-1.18,3.89S18.57,18.42,20.76,17.15Z" style="fill:#16a89f"/><path d="M10,10.93c-.7.4-.74,1-.1,1.39a2.66,2.66,0,0,0,2.41-.06c.69-.4.74-1,.1-1.39A2.66,2.66,0,0,0,10,10.93Z" style="fill:#16a89f"/><path d="M23.59,18.77c-.69.4-.74,1-.1,1.39a2.66,2.66,0,0,0,2.41-.06c.69-.4.74-1,.1-1.39A2.66,2.66,0,0,0,23.59,18.77Z" style="fill:#16a89f"/><path d="M35.41,17.72l-1.56,0v.38L12,5.43a1.26,1.26,0,0,0-1.15,0l-8.71,5,.08-.09L.58,10.18v1.39h0a.37.37,0,0,0,.21.31L24,25.29a1.23,1.23,0,0,0,1.15,0l10-5.76a.43.43,0,0,0,.26-.36h0Z" style="fill:#0a8074"/><path d="M35.2,17.43,12,4a1.26,1.26,0,0,0-1.15,0L.84,9.81c-.33.19-.35.49,0,.67L24,23.88a1.26,1.26,0,0,0,1.15,0l10-5.76C35.48,17.9,35.5,17.61,35.2,17.43Z" style="fill:#16a89f"/><path d="M31.86,17.18l.09-.05c.31-.18.31-.46,0-.63L13.29,5.71a1.22,1.22,0,0,0-1.1,0l-.06,0a1.22,1.22,0,0,1-1.1,0h0a1.2,1.2,0,0,0-1.09,0L3.8,9.3c-.31.18-.31.46,0,.63h0c.29.17.29.46,0,.63l-.08,0c-.31.18-.32.46,0,.63L22.37,22a1.21,1.21,0,0,0,1.08,0l.1-.06a1.2,1.2,0,0,1,1.09,0l.24.14a1.22,1.22,0,0,0,1.1,0l6.09-3.52c.31-.18.31-.46,0-.63l-.25-.15C31.55,17.64,31.55,17.36,31.86,17.18Z" style="fill:#bafffb"/><path d="M20.76,15.57c2.19-1.26,2.71-3,1.18-3.89s-4.56-.58-6.74.68-2.72,3-1.18,3.89S18.57,16.83,20.76,15.57Z" style="fill:#16a89f"/><path d="M10,9.35c-.7.4-.74,1-.1,1.39a2.66,2.66,0,0,0,2.41-.06c.69-.4.74-1,.1-1.39A2.66,2.66,0,0,0,10,9.35Z" style="fill:#16a89f"/><path d="M23.59,17.19c-.69.39-.74,1-.1,1.39a2.7,2.7,0,0,0,2.41-.06c.69-.4.74-1,.1-1.4A2.7,2.7,0,0,0,23.59,17.19Z" style="fill:#16a89f"/><path d="M35.41,16.13l-1.56,0v.38L12,3.84a1.23,1.23,0,0,0-1.15,0l-8.71,5,.08-.1L.58,8.59V10h0a.37.37,0,0,0,.21.31L24,23.7a1.26,1.26,0,0,0,1.15,0l10-5.76a.43.43,0,0,0,.26-.36h0Z" style="fill:#0a8074"/><path d="M35.2,15.84l-8-4.62-1-.22L20.26,7.6,20,7.05,12,2.43a1.3,1.3,0,0,0-1.15,0L.84,8.22c-.33.19-.35.49,0,.66L24,22.29a1.26,1.26,0,0,0,1.15,0l10-5.76C35.48,16.31,35.5,16,35.2,15.84Z" style="fill:#16a89f"/><path d="M31.86,15.59l.09-.05c.31-.18.31-.46,0-.64L13.29,4.12a1.22,1.22,0,0,0-1.1,0l-.06,0a1.19,1.19,0,0,1-1.1,0l0,0a1.23,1.23,0,0,0-1.09,0L3.8,7.71a.33.33,0,0,0,0,.63h0c.29.17.29.45,0,.63L3.7,9c-.31.17-.32.46,0,.63L22.37,20.45a1.18,1.18,0,0,0,1.08,0l.1-.06a1.23,1.23,0,0,1,1.09,0l.24.14a1.22,1.22,0,0,0,1.1,0L32.07,17c.31-.17.31-.45,0-.62l-.25-.15C31.55,16.05,31.55,15.77,31.86,15.59Z" style="fill:#bafffb"/><path d="M20.76,14c2.19-1.26,2.71-3,1.18-3.9s-4.56-.58-6.74.68-2.72,3-1.18,3.9S18.57,15.24,20.76,14Z" style="fill:#16a89f"/><path d="M10,7.75c-.7.4-.74,1-.1,1.4a2.7,2.7,0,0,0,2.41-.06c.69-.4.74-1,.1-1.39A2.66,2.66,0,0,0,10,7.75Z" style="fill:#16a89f"/><path d="M23.59,15.59c-.69.4-.74,1-.1,1.39a2.66,2.66,0,0,0,2.41-.05c.69-.41.74-1,.1-1.4A2.66,2.66,0,0,0,23.59,15.59Z" style="fill:#16a89f"/><polygon points="14.67 23.08 10.1 20.44 10.1 14.28 14.67 16.92 14.67 23.08" style="fill:#d1d3d4"/><polygon points="15.99 23.85 14.67 23.08 14.67 16.92 15.99 17.69 15.99 23.85" style="fill:#ff8400"/><polygon points="10.1 20.44 8.77 19.68 8.77 13.52 10.1 14.28 10.1 20.44" style="fill:#ff8400"/><polygon points="25.89 10.45 21.31 7.81 10.1 14.28 14.67 16.92 25.89 10.45" style="fill:#fff"/><polygon points="27.21 11.21 25.89 10.45 14.67 16.92 15.99 17.69 27.21 11.21" style="fill:#ff9d26"/><polygon points="21.31 7.81 19.99 7.04 8.77 13.52 10.1 14.28 21.31 7.81" style="fill:#ff9d26"/></g></g></svg>