<svg xmlns="http://www.w3.org/2000/svg" viewBox="0 0 44.11 53.74"><g id="Layer_2" data-name="Layer 2"><g id="Layer_1-2" data-name="Layer 1"><path d="M44.11,51.92c0,1.38-1,1.95-2.17,1.25L2.69,30.51A4.81,4.81,0,0,1,.51,26.75V1.55C.51.17,1.49-.4,2.69.29L41.94,23a4.82,4.82,0,0,1,2.17,3.76Z" style="fill:#0f2034"/><path d="M43.6,52.2c0,1.37-1,1.94-2.18,1.25L2.17,30.79A4.84,4.84,0,0,1,0,27V1.82C0,.44,1-.12,2.17.57L41.42,23.23A4.81,4.81,0,0,1,43.6,27Z" style="fill:#3576ab"/><path d="M31.85,34.61c0-8.53-6-18.91-13.38-23.17S5.08,10.63,5.08,19.16c0,5.67,2.64,12.15,6.58,17.11l13.61,7.85C29.21,43.71,31.85,40.28,31.85,34.61Z" style="fill:#2b5e85;opacity:0.52"/><path d="M18.47,23.62c0,7.05,3.28,15.12,8.19,21.3l14.76,8.53c1.2.69,2.18.12,2.18-1.25V27a4.81,4.81,0,0,0-2.18-3.76l-18-10.42C20.34,14.55,18.47,18.29,18.47,23.62Z" style="fill:#2b5e85;opacity:0.52"/><path d="M43.6,52.2V31a25.92,25.92,0,0,0-7.92-7.57c-7.39-4.26-13.39-.81-13.39,7.73A27.67,27.67,0,0,0,26.5,44.84l14.92,8.61C42.62,54.14,43.6,53.57,43.6,52.2Z" style="fill:#3576ab;opacity:0.52"/><path d="M14.94,15.43A20.14,20.14,0,0,0,12.61,6.6L2.17.57C1-.12,0,.44,0,1.82V17.29a18.33,18.33,0,0,0,4.71,4C10.36,24.6,14.94,22,14.94,15.43Z" style="fill:#3576ab;opacity:0.52"/><path d="M29.87,39.65c0-9.52-6.69-21.1-14.93-25.86S0,12.88,0,22.41A25.73,25.73,0,0,0,1.24,30a3.8,3.8,0,0,0,.93.79L28.54,46A14,14,0,0,0,29.87,39.65Z" style="fill:#174666;opacity:0.52"/><path d="M43.6,52.2V44.86c-3.05-6.44-7.9-12.27-13.36-15.43-8.71-5-15.87-1.44-16.61,8L41.42,53.45C42.62,54.14,43.6,53.57,43.6,52.2Z" style="fill:#2b5e85;opacity:0.52"/><path d="M10.38,20.71c0-6.3-2.62-13.4-6.67-19.25L2.17.57C1-.12,0,.44,0,1.82V27a4.84,4.84,0,0,0,2.17,3.77l2.19,1.26C8,30.64,10.38,26.67,10.38,20.71Z" style="fill:#174666;opacity:0.52"/><path d="M2.17,30.79,23.78,43.26a13.31,13.31,0,0,0,.82-4.86c0-8.53-6-18.91-13.39-23.18-4.69-2.71-8.82-2.3-11.21.55V27A4.84,4.84,0,0,0,2.17,30.79Z" style="fill:#3576ab;opacity:0.52"/><path d="M10.29,28.54a1.38,1.38,0,0,0,.68,1l3,1.79c.37.22.68.12.68-.23a1.4,1.4,0,0,0-.68-1l-3-1.79C10.59,28.09,10.29,28.2,10.29,28.54Z" style="fill:#fff"/><path d="M5.87,26.55l3.05,1.8c.38.21.69.11.69-.23a1.36,1.36,0,0,0-.69-1l-3-1.8c-.37-.21-.68-.11-.68.24A1.37,1.37,0,0,0,5.87,26.55Z" style="fill:#fff"/><path d="M6.6,23.33l4.65,2.72c.57.33,1,.18,1-.35a2.11,2.11,0,0,0-1-1.55L6.6,21.42c-.57-.33-1-.17-1,.35A2.14,2.14,0,0,0,6.6,23.33Z" style="fill:#fff"/><path d="M20.48,36.53,5.94,28c-.48-.28-.87-.15-.87.29a1.74,1.74,0,0,0,.87,1.29l14.54,8.54c.47.28.87.15.87-.29A1.77,1.77,0,0,0,20.48,36.53Z" style="fill:#fff"/><path d="M15.09,28.22,19.74,31c.57.33,1,.18,1-.35a2.11,2.11,0,0,0-1-1.55l-4.65-2.73c-.57-.33-1-.17-1,.35A2.11,2.11,0,0,0,15.09,28.22Z" style="fill:#fff"/><path d="M28.22,34l-4.64-2.73c-.58-.33-1-.17-1,.35a2.11,2.11,0,0,0,1,1.55l4.65,2.73c.57.33,1,.18,1-.35A2.11,2.11,0,0,0,28.22,34Z" style="fill:#fff"/><path d="M36.71,38.85l-4.65-2.73c-.57-.33-1-.17-1,.35a2.11,2.11,0,0,0,1,1.55l4.65,2.73c.57.33,1,.17,1-.35A2.11,2.11,0,0,0,36.71,38.85Z" style="fill:#fff"/><path d="M10.77,20.48c0,.25-.18.35-.4.23l-6-3.44A.88.88,0,0,1,4,16.58V12c0-.25.17-.35.39-.23l6,3.44a.89.89,0,0,1,.4.69Z" style="fill:#ff9d26"/><path d="M38,26c0,1.51-1.06,2.12-2.36,1.36a5.2,5.2,0,0,1-2.37-4.09c0-1.51,1.06-2.12,2.37-1.36A5.22,5.22,0,0,1,38,26Z" style="fill:#ff9d26"/><path d="M41.81,28.21c0,1.51-1.06,2.12-2.37,1.37a5.23,5.23,0,0,1-2.36-4.09c0-1.51,1.06-2.12,2.36-1.37A5.22,5.22,0,0,1,41.81,28.21Z" style="fill:#e31b25"/></g></g></svg>