<svg xmlns="http://www.w3.org/2000/svg" viewBox="0 0 64.59 68.48"><g style="isolation:isolate"><g id="Layer_2" data-name="Layer 2"><g id="_0" data-name="0"><g id="_3" data-name="3"><polygon points="64.59 39.62 14.61 68.48 0 60.14 49.98 31.28 64.59 39.62" style="fill:#76a1e6"/><polygon points="49.84 0 1.03 28.18 1.03 59.59 14.34 67.33 63.16 39.15 63.16 7.74 49.84 0" style="fill:#fb9629"/><polygon points="14.34 35.93 1.03 28.18 1.03 59.59 14.34 67.33 14.34 35.93" style="fill:#a44e00"/><polygon points="55.92 3.54 7.22 31.63 7.09 31.7 7.09 63.11 7.61 63.41 7.61 32 56.44 3.83 55.92 3.54" style="fill:#8d501b;opacity:0.4;mix-blend-mode:multiply"/><polygon points="63.16 39.15 14.34 67.33 14.34 35.93 63.16 7.74 63.16 39.15" style="fill:#d7700c"/><path d="M30.27,32.65a.51.51,0,0,1-.17.08.3.3,0,0,0-.2.16.75.75,0,0,1-.15.16.51.51,0,0,1-.17.08.32.32,0,0,0-.2.15.57.57,0,0,1-.15.16.4.4,0,0,1-.17.09.32.32,0,0,0-.2.15.57.57,0,0,1-.15.16.37.37,0,0,1-.17.08.38.38,0,0,0-.2.16.57.57,0,0,1-.15.16.37.37,0,0,1-.17.08.38.38,0,0,0-.2.16,1.14,1.14,0,0,1-.15.16.51.51,0,0,1-.17.08.3.3,0,0,0-.2.16,1.14,1.14,0,0,1-.15.16.51.51,0,0,1-.17.08.32.32,0,0,0-.2.15,1.22,1.22,0,0,1-.15.17.51.51,0,0,1-.17.08.32.32,0,0,0-.2.15.77.77,0,0,1-.15.16.4.4,0,0,1-.17.09.32.32,0,0,0-.2.15.77.77,0,0,1-.15.16.37.37,0,0,1-.17.08.38.38,0,0,0-.2.16.77.77,0,0,1-.15.16.51.51,0,0,1-.17.08.34.34,0,0,0-.2.16,1.14,1.14,0,0,1-.15.16.51.51,0,0,1-.17.08.3.3,0,0,0-.2.16,1.14,1.14,0,0,1-.15.16.51.51,0,0,1-.17.08.32.32,0,0,0-.2.15.77.77,0,0,1-.15.16.4.4,0,0,1-.17.09.32.32,0,0,0-.2.15.77.77,0,0,1-.15.16.37.37,0,0,1-.17.08.38.38,0,0,0-.2.16.77.77,0,0,1-.15.16.37.37,0,0,1-.17.08.38.38,0,0,0-.2.16A1.14,1.14,0,0,1,22,39a.51.51,0,0,1-.17.08.3.3,0,0,0-.2.16,1.14,1.14,0,0,1-.15.16.51.51,0,0,1-.17.08.32.32,0,0,0-.2.15,1.17,1.17,0,0,1-.15.16l0,0a.43.43,0,0,0-.18.36l0,.07,1,4.62,0,.07c0,.11.14.12.26,0h0a.4.4,0,0,1,.17-.09.32.32,0,0,0,.2-.15.57.57,0,0,1,.15-.16.37.37,0,0,1,.17-.08.38.38,0,0,0,.2-.16.57.57,0,0,1,.15-.16.37.37,0,0,1,.17-.08.38.38,0,0,0,.2-.16.75.75,0,0,1,.15-.16.51.51,0,0,1,.17-.08.3.3,0,0,0,.2-.16.75.75,0,0,1,.15-.16.51.51,0,0,1,.17-.08.32.32,0,0,0,.2-.15.8.8,0,0,1,.15-.17.51.51,0,0,1,.17-.08.32.32,0,0,0,.2-.15.57.57,0,0,1,.15-.16.37.37,0,0,1,.17-.08.38.38,0,0,0,.2-.16.57.57,0,0,1,.15-.16.37.37,0,0,1,.17-.08.38.38,0,0,0,.2-.16.75.75,0,0,1,.15-.16.51.51,0,0,1,.17-.08.3.3,0,0,0,.2-.16.75.75,0,0,1,.15-.16.51.51,0,0,1,.17-.08.32.32,0,0,0,.2-.15.61.61,0,0,1,.15-.17.51.51,0,0,1,.17-.08.32.32,0,0,0,.2-.15.57.57,0,0,1,.15-.16.4.4,0,0,1,.17-.09.32.32,0,0,0,.2-.15.57.57,0,0,1,.15-.16.37.37,0,0,1,.17-.08.38.38,0,0,0,.2-.16.57.57,0,0,1,.15-.16.51.51,0,0,1,.17-.08.38.38,0,0,0,.2-.16.75.75,0,0,1,.15-.16.51.51,0,0,1,.17-.08.3.3,0,0,0,.2-.16.75.75,0,0,1,.15-.16A.51.51,0,0,1,30,38.9a.32.32,0,0,0,.2-.15.57.57,0,0,1,.15-.16.4.4,0,0,1,.17-.09.32.32,0,0,0,.2-.15.57.57,0,0,1,.15-.16.37.37,0,0,1,.17-.08.38.38,0,0,0,.2-.16.57.57,0,0,1,.15-.16h0a.41.41,0,0,0,.19-.36l0-.07-1-4.62,0-.07c0-.11-.14-.12-.26,0Z" style="fill:#fafafa;fill-rule:evenodd"/><path d="M30.2,38.11,23,43.64c-.36.28-.71.24-.77-.08l-.65-3.06a1.24,1.24,0,0,1,.53-1.08l7.23-5.54c.36-.27.7-.24.77.08L30.73,37A1.26,1.26,0,0,1,30.2,38.11Z" style="fill:#6bc4ff;fill-rule:evenodd"/><path d="M37,50.12a.67.67,0,0,1,.14-.15.52.52,0,0,0,.13-.21.53.53,0,0,1,.21-.33.42.42,0,0,0,.13-.21.51.51,0,0,1,.07-.18.67.67,0,0,1,.14-.15.42.42,0,0,0,.13-.21.47.47,0,0,1,.07-.17.67.67,0,0,1,.14-.15.52.52,0,0,0,.13-.21.45.45,0,0,1,.07-.18,1,1,0,0,1,.13-.15.38.38,0,0,0,.14-.21.51.51,0,0,1,.07-.18.64.64,0,0,1,.13-.15.38.38,0,0,0,.14-.21.47.47,0,0,1,.07-.17.64.64,0,0,1,.13-.15.46.46,0,0,0,.14-.21.45.45,0,0,1,.07-.18.64.64,0,0,1,.13-.15.32.32,0,0,0,.13-.21.91.91,0,0,1,.08-.18.64.64,0,0,1,.13-.15.32.32,0,0,0,.13-.21.85.85,0,0,1,.08-.17.64.64,0,0,1,.13-.15.37.37,0,0,0,.13-.21.48.48,0,0,1,.08-.18.64.64,0,0,1,.13-.15.32.32,0,0,0,.13-.21.55.55,0,0,1,.08-.18.47.47,0,0,1,.13-.15.32.32,0,0,0,.13-.21.51.51,0,0,1,.08-.17.47.47,0,0,1,.13-.15.43.43,0,0,0,.13-.21.53.53,0,0,1,.21-.33.36.36,0,0,0,.13-.21.83.83,0,0,1,.07-.18.67.67,0,0,1,.14-.15.42.42,0,0,0,.13-.21.77.77,0,0,1,.07-.17.67.67,0,0,1,.14-.15.52.52,0,0,0,.13-.21.45.45,0,0,1,.07-.18.67.67,0,0,1,.14-.15.42.42,0,0,0,.13-.21A.51.51,0,0,1,42.8,41a1,1,0,0,1,.13-.15.38.38,0,0,0,.14-.21.47.47,0,0,1,.07-.17l0,0c.08-.12.08-.25,0-.28l0,0-3.44-1.44-.05,0c-.08,0-.21,0-.28.17l0,0a.64.64,0,0,1-.13.15.37.37,0,0,0-.13.21.48.48,0,0,1-.08.18.64.64,0,0,1-.13.15.32.32,0,0,0-.13.21.51.51,0,0,1-.08.17.51.51,0,0,1-.13.16.32.32,0,0,0-.13.2.48.48,0,0,1-.08.18.47.47,0,0,1-.13.15.43.43,0,0,0-.13.21.53.53,0,0,1-.21.33.36.36,0,0,0-.13.21.77.77,0,0,1-.07.17.73.73,0,0,1-.14.16.44.44,0,0,0-.13.2.53.53,0,0,1-.21.33.52.52,0,0,0-.13.21.45.45,0,0,1-.07.18.67.67,0,0,1-.14.15.42.42,0,0,0-.13.21.47.47,0,0,1-.07.17,1.12,1.12,0,0,1-.13.16.38.38,0,0,0-.14.21.47.47,0,0,1-.07.17,1,1,0,0,1-.13.15.46.46,0,0,0-.14.21.45.45,0,0,1-.07.18.64.64,0,0,1-.13.15.38.38,0,0,0-.14.21.47.47,0,0,1-.07.17.7.7,0,0,1-.13.16.39.39,0,0,0-.14.2.45.45,0,0,1-.07.18.64.64,0,0,1-.13.15.37.37,0,0,0-.13.21.71.71,0,0,1-.08.18.64.64,0,0,1-.13.15.32.32,0,0,0-.13.21.85.85,0,0,1-.08.17.7.7,0,0,1-.13.16.32.32,0,0,0-.13.21.51.51,0,0,1-.08.17.64.64,0,0,1-.13.15.37.37,0,0,0-.13.21.48.48,0,0,1-.08.18.47.47,0,0,1-.13.15.32.32,0,0,0-.13.21.51.51,0,0,1-.08.17.51.51,0,0,1-.13.16.36.36,0,0,0-.13.21.77.77,0,0,1-.07.17h0c-.08.13-.08.26,0,.29l0,0,3.43,1.44.06,0c.08,0,.2,0,.28-.17Z" style="fill:#fafafa;fill-rule:evenodd"/><path d="M34.24,47.62,39,40c.23-.36.6-.57.83-.48l2.31,1c.22.09.23.46,0,.82l-4.8,7.6c-.23.36-.6.57-.83.48l-2.31-1C34,48.35,34,48,34.24,47.62Z" style="fill:#ffad29;fill-rule:evenodd"/><path d="M48.25,29a.12.12,0,0,1,.1,0,.11.11,0,0,0,.16,0,.3.3,0,0,1,.15-.05.12.12,0,0,1,.1.05.14.14,0,0,0,.16,0,.3.3,0,0,1,.15-.05.12.12,0,0,1,.1,0,.12.12,0,0,0,.16,0,.32.32,0,0,1,.15-.06.12.12,0,0,1,.1.05s.1,0,.16,0a.3.3,0,0,1,.14,0A.12.12,0,0,1,50,29s.09,0,.16,0a.3.3,0,0,1,.14-.05.1.1,0,0,1,.11,0s.09,0,.16,0a.3.3,0,0,1,.14-.05.18.18,0,0,1,.11,0s.09,0,.16,0a.3.3,0,0,1,.14-.05.14.14,0,0,1,.11,0s.09,0,.16,0a.3.3,0,0,1,.14-.05.18.18,0,0,1,.11,0s.09,0,.16,0a.24.24,0,0,1,.14,0,.14.14,0,0,1,.11,0s.09,0,.16,0a.25.25,0,0,1,.14-.06.11.11,0,0,1,.1.05.14.14,0,0,0,.16,0,.3.3,0,0,1,.15-.05.12.12,0,0,1,.1,0,.12.12,0,0,0,.16,0,.3.3,0,0,1,.15-.05.1.1,0,0,1,.1,0s.1,0,.16,0a.3.3,0,0,1,.15-.05.15.15,0,0,1,.1,0,.12.12,0,0,0,.16,0,.3.3,0,0,1,.15,0,.12.12,0,0,1,.1,0s.1,0,.16,0a.3.3,0,0,1,.14,0,.16.16,0,0,1,.11,0s.09,0,.16,0a.3.3,0,0,1,.14-.05.12.12,0,0,1,.11,0s.09,0,.16,0a.48.48,0,0,1,.14-.05.14.14,0,0,1,.11.05s.09,0,.16,0a.3.3,0,0,1,.14-.05h0c.09,0,.21-.1.26-.23l0-.08L58.17,23l0-.09c.06-.12,0-.22-.08-.21h0a.12.12,0,0,1-.1,0,.12.12,0,0,0-.16,0,.47.47,0,0,1-.15.06.12.12,0,0,1-.1-.05s-.1,0-.16,0a.3.3,0,0,1-.15,0,.12.12,0,0,1-.1,0,.12.12,0,0,0-.16,0,.3.3,0,0,1-.15.05.1.1,0,0,1-.1,0s-.09,0-.16,0a.3.3,0,0,1-.14.05.16.16,0,0,1-.11,0s-.09,0-.16,0a.3.3,0,0,1-.14.05.14.14,0,0,1-.11,0s-.09,0-.16,0a.48.48,0,0,1-.14.05.14.14,0,0,1-.11-.05s-.09,0-.16,0a.3.3,0,0,1-.14.05.14.14,0,0,1-.11,0s-.09,0-.16,0a.35.35,0,0,1-.14.06.14.14,0,0,1-.11,0s-.09,0-.16,0a.24.24,0,0,1-.14.05.11.11,0,0,1-.1,0,.12.12,0,0,0-.16,0,.3.3,0,0,1-.15,0,.1.1,0,0,1-.1,0s-.1,0-.16,0a.3.3,0,0,1-.15.05.15.15,0,0,1-.1,0,.12.12,0,0,0-.16,0,.3.3,0,0,1-.15.05.12.12,0,0,1-.1,0s-.1,0-.16,0a.3.3,0,0,1-.15.05.12.12,0,0,1-.1-.05.14.14,0,0,0-.16,0,.3.3,0,0,1-.15.05.12.12,0,0,1-.1,0s-.09,0-.16,0a.33.33,0,0,1-.14.06.13.13,0,0,1-.11-.05s-.09,0-.16,0a.3.3,0,0,1-.14.05.14.14,0,0,1-.11,0s-.09,0-.16,0a.3.3,0,0,1-.14.05.11.11,0,0,1-.11,0s-.09,0-.16,0a.3.3,0,0,1-.14.05h0a.34.34,0,0,0-.27.23l0,.08L48.2,28.68l0,.08c0,.13,0,.22.09.22Z" style="fill:#fafafa;fill-rule:evenodd"/><path d="M51.28,23.49l5.78-.2c.28,0,.38.28.23.65L55.8,27.56a1.09,1.09,0,0,1-.79.68l-5.77.21c-.28,0-.39-.29-.24-.66l1.5-3.61A1.07,1.07,0,0,1,51.28,23.49Z" style="fill:#ff5346;fill-rule:evenodd"/><polygon points="8.99 22.56 8.99 23.59 9.4 23.35 22.66 31.13 22.66 62.54 22.98 62.71 23.6 61.27 24.68 54.07 23.97 30.94 23.19 29.36 12.79 22.59 8.99 22.56" style="fill:#874000;fill-rule:evenodd"/><polygon points="35.55 7.24 35.55 8.27 35.97 8.02 49.22 15.8 49.22 47.21 49.54 47.38 50.16 45.95 51.24 38.74 50.53 15.61 49.76 14.03 39.35 7.26 35.55 7.24" style="fill:#874000;fill-rule:evenodd"/><path d="M54.53,44.5l-5,2.88V15.3l5-2.88Z" style="fill:#f58728;fill-rule:evenodd"/><path d="M52.54,20.39a1,1,0,0,1-.52.8c-.28.17-.51.07-.51-.21a1.05,1.05,0,0,1,.51-.81C52.31,20,52.54,20.1,52.54,20.39Z" style="fill:#974902;fill-rule:evenodd"/><path d="M52.54,24.44a1.07,1.07,0,0,1-.52.81c-.28.16-.51.06-.51-.22a1.09,1.09,0,0,1,.51-.81C52.31,24.06,52.54,24.16,52.54,24.44Z" style="fill:#974902;fill-rule:evenodd"/><path d="M52.54,28.49a1.06,1.06,0,0,1-.52.81c-.28.16-.51.06-.51-.22a1.09,1.09,0,0,1,.51-.81C52.31,28.11,52.54,28.21,52.54,28.49Z" style="fill:#974902;fill-rule:evenodd"/><path d="M52.54,32.54a1,1,0,0,1-.52.81c-.28.16-.51.07-.51-.22a1.05,1.05,0,0,1,.51-.8C52.31,32.16,52.54,32.26,52.54,32.54Z" style="fill:#974902;fill-rule:evenodd"/><path d="M52.54,36.6a1,1,0,0,1-.52.8c-.28.17-.51.07-.51-.21a1.05,1.05,0,0,1,.51-.81C52.31,36.22,52.54,36.31,52.54,36.6Z" style="fill:#974902;fill-rule:evenodd"/><path d="M28,59.83l-5,2.88V30.63l5-2.88Z" style="fill:#f58728;fill-rule:evenodd"/><path d="M26,35.72a1.07,1.07,0,0,1-.51.81c-.28.16-.51.07-.51-.22a1.09,1.09,0,0,1,.51-.81C25.74,35.34,26,35.44,26,35.72Z" style="fill:#974902;fill-rule:evenodd"/><path d="M26,39.77a1.05,1.05,0,0,1-.51.81c-.28.16-.51.07-.51-.21a1.05,1.05,0,0,1,.51-.81C25.74,39.39,26,39.49,26,39.77Z" style="fill:#974902;fill-rule:evenodd"/><path d="M26,43.83a1.05,1.05,0,0,1-.51.8c-.28.17-.51.07-.51-.21a1.05,1.05,0,0,1,.51-.81C25.74,43.45,26,43.54,26,43.83Z" style="fill:#974902;fill-rule:evenodd"/><path d="M26,47.88a1.09,1.09,0,0,1-.51.81c-.28.16-.51.06-.51-.22a1.09,1.09,0,0,1,.51-.81C25.74,47.5,26,47.6,26,47.88Z" style="fill:#974902;fill-rule:evenodd"/><path d="M26,51.93a1.07,1.07,0,0,1-.51.81c-.28.16-.51.07-.51-.22a1.05,1.05,0,0,1,.51-.8C25.74,51.55,26,51.65,26,51.93Z" style="fill:#974902;fill-rule:evenodd"/><path d="M28,27.75l-5,2.88L9,22.56l5-2.88Z" style="fill:#ffbe69;fill-rule:evenodd"/><path d="M54.53,12.42l-5,2.88-14-8.07,5-2.88Z" style="fill:#ffbe69;fill-rule:evenodd"/><path d="M54.43,15.62l-4.79,2.77a1.56,1.56,0,0,0-.76,1.18v3.64c0,.42.34.56.76.32l4.79-2.77a1.57,1.57,0,0,0,.75-1.18V15.94C55.18,15.53,54.84,15.39,54.43,15.62ZM54.49,20a.13.13,0,0,1-.06.09l-4.79,2.77s-.06,0-.06,0V19.17a.11.11,0,0,1,.06-.09l4.79-2.76s.06,0,.06,0Z" style="fill:#c4cee8"/><path d="M49.32,21.25V19.32a.64.64,0,0,1,.32-.49l4.79-2.77c.17-.1.31,0,.31.13v1.93l.18-.1V16.09c0-.27-.22-.37-.49-.21l-4.79,2.77a1,1,0,0,0-.5.78v1.92Z" style="fill:#c4cee8;opacity:0.6000000000000001;mix-blend-mode:screen"/><path d="M52,20.94h0c-.22.13-.4.06-.4-.17V18.16a.84.84,0,0,1,.4-.64h0c.23-.13.41-.05.41.17v2.62A.82.82,0,0,1,52,20.94Z" style="fill:#c4cee8;fill-rule:evenodd"/><path d="M52.44,19.12V17.69c0-.22-.18-.3-.41-.17a.84.84,0,0,0-.4.64v1.43Z" style="fill:#c4cee8;fill-rule:evenodd;opacity:0.6000000000000001;mix-blend-mode:screen"/><path d="M27.87,31l-4.8,2.77a1.57,1.57,0,0,0-.75,1.18v3.64c0,.41.34.55.75.31l4.8-2.76a1.57,1.57,0,0,0,.75-1.19V31.28C28.62,30.86,28.28,30.72,27.87,31Zm.05,4.35a.12.12,0,0,1-.05.1l-4.8,2.76s-.05,0-.05,0V34.51a.12.12,0,0,1,.05-.09l4.8-2.77s.05,0,.05,0Z" style="fill:#c4cee8"/><path d="M22.76,36.58V34.66a.65.65,0,0,1,.31-.5l4.8-2.76c.17-.1.31,0,.31.13v1.93l.18-.11V31.42c0-.27-.22-.36-.49-.2L23.07,34a1,1,0,0,0-.49.78v1.93Z" style="fill:#c4cee8;opacity:0.6000000000000001;mix-blend-mode:screen"/><path d="M25.47,36.28h0c-.22.13-.4,0-.4-.17V33.49a.85.85,0,0,1,.4-.64h0c.23-.12.41-.05.41.18v2.61A.84.84,0,0,1,25.47,36.28Z" style="fill:#c4cee8;fill-rule:evenodd"/><path d="M25.88,34.46V33c0-.23-.18-.3-.41-.18a.85.85,0,0,0-.4.64v1.43Z" style="fill:#c4cee8;fill-rule:evenodd;opacity:0.6000000000000001;mix-blend-mode:screen"/><polygon points="42.43 13.44 24.42 23.87 21.12 21.96 39.12 11.53 42.43 13.44" style="fill:#895d33;opacity:0.7000000000000001;mix-blend-mode:multiply"/><polygon points="25.62 17.63 24.38 23.73 21.31 21.98 23.92 16.64 25.62 17.63" style="fill:#222"/><polygon points="41.44 13.9 38.56 12.21 36.88 9.16 39.31 11.04 41.44 13.9" style="fill:#222"/><polygon points="38.58 10.14 25.62 17.63 23.92 16.64 36.88 9.16 38.58 10.14" style="fill:#b7b7b7"/><polygon points="38.58 10.14 25.62 17.63 24.38 23.73 25.5 23.1 26.48 18.25 38.47 11.33 41.44 13.9 42.32 13.39 38.58 10.14" style="fill:#3d3d3d"/></g></g></g></g></svg>