<svg xmlns="http://www.w3.org/2000/svg" viewBox="0 0 18.97 37.69"><g id="Layer_2" data-name="Layer 2"><g id="Layer_1-2" data-name="Layer 1"><g style="isolation:isolate"><g style="isolation:isolate"><g style="isolation:isolate"><path d="M7.5,18,4.88,16.47a3.3,3.3,0,0,0,3.31-.32l2.62,1.52A3.3,3.3,0,0,1,7.5,18Z" style="fill:#a9650b"/></g></g><g style="isolation:isolate"><g style="isolation:isolate"><path d="M10.81,17.67,8.19,16.15a10.21,10.21,0,0,0,4.63-8,3.24,3.24,0,0,0-1.37-3l2.61,1.52a3.24,3.24,0,0,1,1.38,3,10.21,10.21,0,0,1-4.63,8Z" style="fill:#a9650b"/></g></g><g style="isolation:isolate"><g style="isolation:isolate"><path d="M10.76,2.63,8.15,1.11C10.42-.19,12.47-.31,14,.55l2.61,1.52c-1.48-.86-3.52-.74-5.8.56Z" style="fill:#a9650b"/></g></g><path d="M10.76,2.63C15.34,0,19,2.19,19,7.46c0,9-7.35,20.89-8.13,22.13a.44.44,0,0,1-.07.12A14.17,14.17,0,0,1,2.62,16.79C2.63,11.55,6.27,5.23,10.76,2.63Zm.05,15a10.21,10.21,0,0,0,4.63-8,3.24,3.24,0,0,0-1.38-3A3.29,3.29,0,0,0,10.77,7a10.26,10.26,0,0,0-4.63,8c0,2.94,2.1,4.13,4.67,2.65Z" style="fill:#f49110"/><g style="isolation:isolate"><g style="isolation:isolate"><path d="M9.76,29.19,7.15,27.67A14.07,14.07,0,0,1,0,15.27C0,10,3.66,3.71,8.15,1.11l2.61,1.52c-4.49,2.6-8.13,8.92-8.14,14.16a14.09,14.09,0,0,0,7.14,12.4Z" style="fill:#a9650b"/></g></g></g><path d="M10.84,5.38a13.33,13.33,0,0,0-6,10.44c0,3.84,2.7,5.4,6,3.48a12.34,12.34,0,0,0,4.26-4.5,12.34,12.34,0,0,0,1.77-5.94C16.87,5,14.17,3.45,10.84,5.38Zm0,12.3C8.28,19.15,6.21,18,6.21,15a10.2,10.2,0,0,1,4.63-8,3.25,3.25,0,0,1,3.27-.33,3.24,3.24,0,0,1,1.35,3A10.24,10.24,0,0,1,10.84,17.68Z" style="fill:#feba11"/><path d="M13.26,34.22a3.48,3.48,0,1,0-3.48,3.47A3.48,3.48,0,0,0,13.26,34.22Z" style="fill:#f49110"/><g style="isolation:isolate"><g style="isolation:isolate"><g style="isolation:isolate"><path d="M7.5,18,4.88,16.47a3.3,3.3,0,0,0,3.31-.32l2.62,1.52A3.3,3.3,0,0,1,7.5,18Z" style="fill:#a9650b"/></g></g><g style="isolation:isolate"><g style="isolation:isolate"><path d="M10.81,17.67,8.19,16.15a10.21,10.21,0,0,0,4.63-8,3.24,3.24,0,0,0-1.37-3l2.61,1.52a3.24,3.24,0,0,1,1.38,3,10.21,10.21,0,0,1-4.63,8Z" style="fill:#a9650b"/></g></g><g style="isolation:isolate"><g style="isolation:isolate"><path d="M10.76,2.63,8.15,1.11C10.42-.19,12.47-.31,14,.55l2.61,1.52c-1.48-.86-3.52-.74-5.8.56Z" style="fill:#a9650b"/></g></g><path d="M10.76,2.63C15.34,0,19,2.19,19,7.46c0,9-7.35,20.89-8.13,22.13a.44.44,0,0,1-.07.12A14.17,14.17,0,0,1,2.62,16.79C2.63,11.55,6.27,5.23,10.76,2.63Zm.05,15a10.21,10.21,0,0,0,4.63-8,3.24,3.24,0,0,0-1.38-3A3.29,3.29,0,0,0,10.77,7a10.26,10.26,0,0,0-4.63,8c0,2.94,2.1,4.13,4.67,2.65Z" style="fill:#f49110"/><g style="isolation:isolate"><g style="isolation:isolate"><path d="M9.76,29.19,7.15,27.67A14.07,14.07,0,0,1,0,15.27C0,10,3.66,3.71,8.15,1.11l2.61,1.52c-4.49,2.6-8.13,8.92-8.14,14.16a14.09,14.09,0,0,0,7.14,12.4Z" style="fill:#a9650b"/></g></g></g><path d="M10.84,5.38a13.33,13.33,0,0,0-6,10.44c0,3.84,2.7,5.4,6,3.48a12.34,12.34,0,0,0,4.26-4.5,12.34,12.34,0,0,0,1.77-5.94C16.87,5,14.17,3.45,10.84,5.38Zm0,12.3C8.28,19.15,6.21,18,6.21,15a10.2,10.2,0,0,1,4.63-8,3.25,3.25,0,0,1,3.27-.33,3.24,3.24,0,0,1,1.35,3A10.24,10.24,0,0,1,10.84,17.68Z" style="fill:#feba11"/><path d="M12.25,33.13a1.31,1.31,0,1,0-1.31,1.31A1.31,1.31,0,0,0,12.25,33.13Z" style="fill:#feba11"/></g></g></svg>