<svg xmlns="http://www.w3.org/2000/svg" viewBox="0 0 76.35 71.12"><g id="Layer_2" data-name="Layer 2"><g id="Layer_1-2" data-name="Layer 1"><path d="M27.65,71.12v-2.6H56.84v2.6Z" style="fill:#616161"/><polygon points="27.65 71.11 0.02 55.16 0.02 52.57 27.65 68.52 27.65 71.11" style="fill:#454545"/><polygon points="56.84 68.52 76.35 57.25 76.35 59.85 56.84 71.11 56.84 68.52" style="fill:gray"/><path d="M27.65,38.24v-2.6H56.84v2.6Z" style="fill:#8f8f8f"/><polygon points="27.65 38.24 0.02 22.29 0.02 19.69 27.65 35.64 27.65 38.24" style="fill:gray"/><polygon points="56.84 35.64 76.35 24.38 76.35 26.98 56.84 38.24 56.84 35.64" style="fill:#a8a8a8"/><path d="M27.65,35.64,0,19.69,34.12,0,76.35,24.38,56.84,35.64Z" style="fill:#969696"/><polygon points="33.95 4.47 6.32 20.42 4.01 19.09 33.95 1.8 33.95 4.47" style="fill:#757575"/><polygon points="72.36 23.95 70.05 25.29 33.95 4.47 33.95 1.8 72.36 23.95" style="fill:#363636"/><polygon points="70.05 25.29 55.23 33.84 29.61 33.84 6.32 20.42 33.95 4.47 70.05 25.29" style="fill:#5c5c5c"/><rect x="27.65" y="38.24" width="29.19" height="30.28" style="fill:#b52828"/><polygon points="76.35 57.25 56.84 68.52 56.84 38.24 76.35 26.98 76.35 57.25" style="fill:#ff3838"/><polygon points="0.02 52.57 27.65 68.52 27.65 38.24 0.02 22.29 0.02 52.57" style="fill:#922"/><polygon points="24.35 43.56 24.35 43.84 2.78 31.44 2.78 28.12 3.03 28.27 3.03 31.3 24.35 43.56" style="fill:#541313"/><polygon points="24.35 40.51 24.35 43.56 3.03 31.3 3.03 28.27 24.35 40.51" style="fill:#0c778f"/><polygon points="9.18 34.82 10.46 35.56 9.68 32.05 8.37 31.29 9.18 34.82" style="fill:#fff;opacity:0.2"/><polygon points="14.02 37.6 18.43 40.15 17.82 36.74 13.43 34.24 14.02 37.6" style="fill:#fff;opacity:0.2"/><polygon points="59.27 43.56 59.27 43.84 74.49 35.09 74.49 31.77 74.25 31.92 74.25 34.95 59.27 43.56" style="fill:#8a1e1e"/><polygon points="59.27 40.51 59.27 43.56 74.25 34.95 74.25 31.92 59.27 40.51" style="fill:#1ac"/><polygon points="72.3 36.09 71.02 36.83 71.79 33.33 73.06 32.6 72.3 36.09" style="fill:#fff;opacity:0.2"/><polygon points="66.16 39.59 61.75 42.13 62.37 38.73 66.76 36.22 66.16 39.59" style="fill:#fff;opacity:0.2"/><polygon points="59.27 51.35 59.27 51.63 74.49 42.87 74.49 39.56 74.25 39.7 74.25 42.74 59.27 51.35" style="fill:#8a1e1e"/><polygon points="59.27 48.3 59.27 51.35 74.25 42.74 74.25 39.7 59.27 48.3" style="fill:#1ac"/><polygon points="72.3 43.87 71.02 44.61 71.79 41.11 73.06 40.38 72.3 43.87" style="fill:#fff;opacity:0.2"/><polygon points="66.16 47.37 61.75 49.92 62.37 46.52 66.76 44.01 66.16 47.37" style="fill:#fff;opacity:0.2"/><polygon points="24.35 51.35 24.35 51.63 2.78 39.23 2.78 35.91 3.03 36.05 3.03 39.09 24.35 51.35" style="fill:#541313"/><polygon points="24.35 48.3 24.35 51.35 3.03 39.09 3.03 36.05 24.35 48.3" style="fill:#0c778f"/><polygon points="9.18 42.61 10.46 43.35 9.68 39.83 8.37 39.08 9.18 42.61" style="fill:#fff;opacity:0.2"/><polygon points="14.02 45.39 18.43 47.93 17.82 44.53 13.43 42.02 14.02 45.39" style="fill:#fff;opacity:0.2"/><polygon points="15.18 64.18 3.56 57.47 5.84 56.16 17.45 62.86 15.18 64.18" style="fill:#969696"/><polygon points="13.99 65.41 2.38 58.7 3.56 58.05 15.18 64.75 13.99 65.41" style="fill:#969696"/><polygon points="12.8 66.64 1.19 59.94 2.38 59.28 13.99 65.98 12.8 66.64" style="fill:#969696"/><polygon points="11.61 67.88 0 61.17 1.19 60.51 12.8 67.22 11.61 67.88" style="fill:#969696"/><polygon points="15.18 64.75 3.56 58.05 3.56 57.47 15.18 64.18 15.18 64.75" style="fill:#757575"/><polygon points="13.99 65.98 2.38 59.28 2.38 58.7 13.99 65.41 13.99 65.98" style="fill:#757575"/><polygon points="12.8 67.22 1.19 60.51 1.19 59.94 12.8 66.64 12.8 67.22" style="fill:#757575"/><polygon points="11.61 68.66 0 61.95 0 61.17 11.61 67.88 11.61 68.66" style="fill:#757575"/><polygon points="17.45 65.24 11.61 68.66 11.61 67.88 12.8 67.22 12.8 66.64 13.99 65.98 13.99 65.41 15.18 64.75 15.18 64.18 17.45 62.86 17.45 65.24" style="fill:#c7c7c7"/><polygon points="8.71 51.94 8.71 57.45 6.43 56.13 6.43 50.62 8.71 51.94" style="fill:#c9c9c9"/><polygon points="8.53 54.57 8.53 54.73 6.6 53.63 6.6 51.09 6.74 51.17 6.74 53.55 8.53 54.57" style="fill:gray"/><polygon points="8.53 52.19 8.53 54.57 6.74 53.55 6.74 51.17 8.53 52.19" style="fill:#0c778f"/><polygon points="8.35 52.09 7.85 51.8 6.88 53.63 7.3 53.88 8.35 52.09" style="fill:#fff;opacity:0.2"/><polygon points="8.53 53.06 8.53 52.56 7.71 54.11 7.89 54.21 8.53 53.06" style="fill:#fff;opacity:0.2"/><polygon points="8.53 56.82 8.53 56.98 6.6 55.88 6.6 53.89 6.74 53.97 6.74 55.8 8.53 56.82" style="fill:gray"/><polygon points="8.53 54.99 8.53 56.82 6.74 55.8 6.74 53.97 8.53 54.99" style="fill:#0c778f"/><polygon points="8.1 54.75 7.6 54.47 6.88 55.88 7.3 56.12 8.1 54.75" style="fill:#fff;opacity:0.2"/><polygon points="8.53 55.3 8.53 54.99 8.45 54.95 7.71 56.35 7.89 56.46 8.53 55.3" style="fill:#fff;opacity:0.2"/><polygon points="10.99 58.76 10.99 59.01 6.22 56.26 6.22 50.5 6.43 50.62 6.43 56.13 10.99 58.76" style="fill:#3b3b3b"/><polygon points="10.99 53.25 10.99 58.76 8.71 57.45 8.71 51.94 10.99 53.25" style="fill:#c9c9c9"/><polygon points="8.65 51.9 8.65 57.41 8.71 57.45 8.71 51.94 8.65 51.9" style="fill:#8a8a8a"/><polygon points="10.81 55.89 10.81 56.05 8.88 54.95 8.88 52.4 9.01 52.48 9.01 54.87 10.81 55.89" style="fill:gray"/><polygon points="10.81 53.5 10.81 55.89 9.01 54.87 9.01 52.48 10.81 53.5" style="fill:#0c778f"/><polygon points="10.63 53.41 10.13 53.12 9.16 54.95 9.58 55.19 10.63 53.41" style="fill:#fff;opacity:0.2"/><polygon points="10.81 54.37 10.81 53.87 9.98 55.42 10.17 55.53 10.81 54.37" style="fill:#fff;opacity:0.2"/><polygon points="10.81 58.14 10.81 58.3 8.88 57.19 8.88 55.21 9.01 55.29 9.01 57.12 10.81 58.14" style="fill:gray"/><polygon points="10.81 56.31 10.81 58.14 9.01 57.12 9.01 55.29 10.81 56.31" style="fill:#0c778f"/><polygon points="10.38 56.07 9.88 55.78 9.16 57.2 9.58 57.44 10.38 56.07" style="fill:#fff;opacity:0.2"/><polygon points="10.81 56.62 10.81 56.31 10.73 56.27 9.98 57.67 10.17 57.77 10.81 56.62" style="fill:#fff;opacity:0.2"/><circle cx="8.8" cy="55.1" r="0.15" style="fill:#666"/><path d="M8.89,55s0,0,0,0,0,0-.05,0a0,0,0,0,1,0,0S8.87,55,8.89,55Z" style="fill:#d6d6d6"/><path d="M8.62,54.93a.15.15,0,1,1-.15-.15A.15.15,0,0,1,8.62,54.93Z" style="fill:#666"/><path d="M8.56,54.84s0,0,0,0a0,0,0,0,1,0,0,0,0,0,0,1,0,0S8.55,54.83,8.56,54.84Z" style="fill:#d6d6d6"/><polygon points="14.87 55.48 14.87 60.99 12.59 59.67 12.59 54.16 14.87 55.48" style="fill:#c9c9c9"/><polygon points="14.69 58.12 14.69 58.28 12.75 57.17 12.75 54.63 12.89 54.71 12.89 57.09 14.69 58.12" style="fill:gray"/><polygon points="14.69 55.73 14.69 58.12 12.89 57.09 12.89 54.71 14.69 55.73" style="fill:#0c778f"/><polygon points="14.51 55.63 14.01 55.34 13.04 57.18 13.46 57.42 14.51 55.63" style="fill:#fff;opacity:0.2"/><polygon points="14.69 56.6 14.69 56.1 13.86 57.65 14.05 57.76 14.69 56.6" style="fill:#fff;opacity:0.2"/><polygon points="14.69 60.36 14.69 60.52 12.75 59.42 12.75 57.44 12.89 57.52 12.89 59.34 14.69 60.36" style="fill:gray"/><polygon points="14.69 58.54 14.69 60.36 12.89 59.34 12.89 57.52 14.69 58.54" style="fill:#0c778f"/><polygon points="14.26 58.3 13.76 58.01 13.04 59.42 13.46 59.66 14.26 58.3" style="fill:#fff;opacity:0.2"/><polygon points="14.69 58.84 14.69 58.54 14.61 58.49 13.86 59.9 14.05 60 14.69 58.84" style="fill:#fff;opacity:0.2"/><polygon points="17.15 62.3 17.15 62.55 12.38 59.8 12.38 54.04 12.59 54.16 12.59 59.67 17.15 62.3" style="fill:#3b3b3b"/><polygon points="17.15 56.8 17.15 62.3 14.87 60.99 14.87 55.48 17.15 56.8" style="fill:#c9c9c9"/><polygon points="14.81 55.44 14.81 60.95 14.87 60.99 14.87 55.48 14.81 55.44" style="fill:#8a8a8a"/><polygon points="16.96 59.43 16.96 59.59 15.03 58.49 15.03 55.94 15.17 56.02 15.17 58.41 16.96 59.43" style="fill:gray"/><polygon points="16.96 57.05 16.96 59.43 15.17 58.41 15.17 56.02 16.96 57.05" style="fill:#0c778f"/><polygon points="16.79 56.95 16.29 56.66 15.31 58.49 15.74 58.73 16.79 56.95" style="fill:#fff;opacity:0.2"/><polygon points="16.96 57.91 16.96 57.41 16.14 58.97 16.33 59.07 16.96 57.91" style="fill:#fff;opacity:0.2"/><polygon points="16.96 61.68 16.96 61.84 15.03 60.74 15.03 58.75 15.17 58.83 15.17 60.66 16.96 61.68" style="fill:gray"/><polygon points="16.96 59.85 16.96 61.68 15.17 60.66 15.17 58.83 16.96 59.85" style="fill:#0c778f"/><polygon points="16.54 59.61 16.04 59.32 15.31 60.74 15.74 60.98 16.54 59.61" style="fill:#fff;opacity:0.2"/><polygon points="16.96 60.16 16.96 59.85 16.88 59.81 16.14 61.21 16.33 61.32 16.96 60.16" style="fill:#fff;opacity:0.2"/><path d="M15.1,58.64a.15.15,0,0,1-.15.15.15.15,0,0,1,0-.3A.15.15,0,0,1,15.1,58.64Z" style="fill:#666"/><path d="M15.05,58.55a0,0,0,0,1,0,.05s0,0,0,0,0,0,0-.05S15,58.54,15.05,58.55Z" style="fill:#d6d6d6"/><path d="M14.78,58.47a.15.15,0,1,1-.15-.15A.15.15,0,0,1,14.78,58.47Z" style="fill:#666"/><path d="M14.72,58.38s0,0,0,0,0,0-.05,0a0,0,0,0,1,0-.05S14.71,58.37,14.72,58.38Z" style="fill:#d6d6d6"/><path d="M15,63.74v-7.4h-.22v7.4s0,0,0,0a.15.15,0,0,0,.16,0S15,63.76,15,63.74Z" style="fill:#2e2e2e"/><path d="M4.32,57.4V50H4.1v7.4a.05.05,0,0,0,0,.05.15.15,0,0,0,.16,0A.05.05,0,0,0,4.32,57.4Z" style="fill:#2e2e2e"/><polygon points="15.61 58.27 2.72 50.79 2.72 50.22 15.61 57.69 15.61 58.27" style="fill:#3d3d3d"/><polygon points="15.61 58.27 15.61 57.69 19.51 54.84 19.51 55.42 15.61 58.27" style="fill:#696969"/><polygon points="15.61 57.69 2.72 50.22 6.62 47.37 19.51 54.84 15.61 57.69" style="fill:#595959"/><path d="M60.83,32.21V28.8h.28v3.41s0,0,0,.06a.21.21,0,0,1-.19,0A.07.07,0,0,1,60.83,32.21Z" style="fill:#2e2e2e"/><path d="M66.62,28.81V25.4h.27v3.41a.05.05,0,0,1,0,.05.17.17,0,0,1-.19,0A.05.05,0,0,1,66.62,28.81Z" style="fill:#2e2e2e"/><path d="M71.51,26V22.63h.28V26a.07.07,0,0,1,0,.06.23.23,0,0,1-.2,0S71.51,26.06,71.51,26Z" style="fill:#2e2e2e"/><polygon points="58.72 30.94 58.2 30.69 58.2 22.19 58.72 22.44 58.72 30.94" style="fill:#424242"/><polygon points="73.16 14.11 58.72 22.44 58.2 22.19 72.63 13.86 73.16 14.11" style="fill:gray"/><polygon points="73.16 22.61 58.72 30.94 58.72 22.44 73.16 14.11 73.16 22.61" style="fill:#ffc830"/><polygon points="73.16 22.61 58.72 22.44 73.16 14.11 73.16 22.61" style="fill:#ff3838"/><polygon points="70.32 23.51 66.9 25.49 66.9 19.45 70.32 17.48 70.32 23.51" style="fill:#5caeff"/><polygon points="64.97 20.97 59.88 23.91 59.88 22.98 64.97 20.04 64.97 20.97" style="fill:#577bff"/><polygon points="64.97 22.75 59.88 25.69 59.88 24.77 64.97 21.83 64.97 22.75" style="fill:#577bff"/><polygon points="64.97 24.54 59.88 27.48 59.88 26.55 64.97 23.61 64.97 24.54" style="fill:#577bff"/><polygon points="64.97 26.32 59.88 29.26 59.88 28.34 64.97 25.4 64.97 26.32" style="fill:#577bff"/><path d="M14.1,26.07V23.21h-.23v2.86s0,0,0,.05a.25.25,0,0,0,.17,0S14.1,26.09,14.1,26.07Z" style="fill:#2e2e2e"/><path d="M9.25,23.22V20.36H9v2.86s0,0,0,.05a.22.22,0,0,0,.16,0S9.25,23.24,9.25,23.22Z" style="fill:#2e2e2e"/><path d="M5.15,20.9V18H4.91V20.9s0,0,0,.05a.22.22,0,0,0,.16,0S5.15,20.92,5.15,20.9Z" style="fill:#2e2e2e"/><polygon points="15.87 25.01 16.31 24.8 16.31 17.67 15.87 17.88 15.87 25.01" style="fill:#424242"/><polygon points="3.77 10.9 15.87 17.88 16.31 17.67 4.21 10.69 3.77 10.9" style="fill:gray"/><polygon points="3.77 18.02 15.87 25.01 15.87 17.88 3.77 10.9 3.77 18.02" style="fill:#714dff"/><path d="M6.2,17.06l0,0A3.48,3.48,0,0,0,4.58,14.3v0c.88.51,1.59.1,1.59-.91l0,0a3.53,3.53,0,0,0,1.58,2.74v0C6.91,15.64,6.2,16.05,6.2,17.06Z" style="fill:#fff"/><path d="M8.26,19l0,0a2.16,2.16,0,0,0-1-1.7v0c.54.32,1,.06,1-.57h0a2.16,2.16,0,0,0,1,1.71v0C8.7,18.09,8.26,18.35,8.26,19Z" style="fill:#fff"/><path d="M11,20l0,0a2.85,2.85,0,0,0-1.29-2.23v0c.71.41,1.29.08,1.29-.75l0,0a2.83,2.83,0,0,0,1.29,2.23v0C11.56,18.84,11,19.18,11,20Z" style="fill:#fff"/><polygon points="10.67 21.19 14.94 23.66 14.94 22.88 10.67 20.42 10.67 21.19" style="fill:#fff"/><path d="M27.12,33.82V31h-.23v2.85a.05.05,0,0,0,0,0,.17.17,0,0,0,.17,0A.05.05,0,0,0,27.12,33.82Z" style="fill:#2e2e2e"/><path d="M22.27,31V28.11H22V31a.05.05,0,0,0,0,.05.22.22,0,0,0,.16,0A.05.05,0,0,0,22.27,31Z" style="fill:#2e2e2e"/><path d="M18.17,28.65V25.79h-.24v2.86a.07.07,0,0,0,0,.05.22.22,0,0,0,.16,0A.07.07,0,0,0,18.17,28.65Z" style="fill:#2e2e2e"/><polygon points="28.89 32.76 29.33 32.55 29.33 25.43 28.89 25.64 28.89 32.76" style="fill:#424242"/><polygon points="16.79 18.65 28.89 25.64 29.33 25.43 17.23 18.44 16.79 18.65" style="fill:gray"/><polygon points="16.79 25.77 28.89 32.76 28.89 25.64 16.79 18.65 16.79 25.77" style="fill:#ffc830"/><ellipse cx="20.2" cy="24.16" rx="1.76" ry="3.04" transform="translate(-9.37 13.34) rotate(-30)" style="fill:#ff3838"/><polygon points="24.72 27.92 26.85 29.15 26.85 25.39 24.72 24.16 24.72 27.92" style="fill:#3d9eff"/><polygon points="23.65 28.89 27.92 31.35 27.92 30.58 23.65 28.11 23.65 28.89" style="fill:#577bff"/><rect x="29.47" y="40.73" width="24.92" height="7.02" style="fill:#4fd0ff"/><rect x="29.47" y="45.4" width="24.92" height="2.34" style="fill:#4f72ff"/><circle cx="47.89" cy="43.09" r="1.87" style="fill:#ffc21c"/><rect x="32.2" y="42.38" width="8.47" height="1.63" style="fill:#fff"/><rect x="29.47" y="48.51" width="24.92" height="7.02" style="fill:#ff6a00"/><path d="M43.25,52.31a2.58,2.58,0,1,1-2.58-2.58A2.59,2.59,0,0,1,43.25,52.31Z" style="fill:#ffc526"/><polygon points="44.79 52.57 40.57 54.45 36.12 50.86 29.47 55.53 50.24 55.53 44.79 52.57" style="fill:#733000"/><rect x="46.31" y="50.09" width="6.59" height="1.26" style="fill:#ffc526"/><rect x="46.31" y="52.57" width="6.59" height="1.26" style="fill:#ffc526"/><rect x="29.47" y="56.3" width="24.92" height="7.02" style="fill:#e169ff"/><path d="M36.87,59.4a1.46,1.46,0,1,1-1.46-1.46A1.46,1.46,0,0,1,36.87,59.4Z" style="fill:#e63ed5"/><circle cx="37.26" cy="60.64" r="0.83" style="fill:#ff9d00"/><path d="M42.17,59.6a.75.75,0,1,1-.75-.75A.75.75,0,0,1,42.17,59.6Z" style="fill:#00ffd9"/><path d="M47.35,61.24a1.43,1.43,0,1,1-1.43-1.43A1.42,1.42,0,0,1,47.35,61.24Z" style="fill:#0080ff"/><circle cx="49.87" cy="58.8" r="1.55" style="fill:#02f"/><circle cx="32.88" cy="61.08" r="1.88" style="fill:#f40"/><path d="M46.16,58.62a1,1,0,1,1-1-1A1,1,0,0,1,46.16,58.62Z" style="fill:#ff1c14"/><rect x="35.41" y="57.25" width="6.76" height="1.14" style="fill:#fff"/><rect x="35.41" y="60.67" width="6.76" height="1.14" style="fill:#fff"/><path d="M19.83,53.91l-1.31-.76-.11,0L18.3,53l-1.07-.61a.38.38,0,0,0-.13-.06L17,52.26,16.5,52a1.11,1.11,0,0,0-.21-.08,1.12,1.12,0,0,0-.22-.16l-.43-.25a.52.52,0,0,0-.36-.08,2.58,2.58,0,0,0-.62-.49L14,50.56a.57.57,0,0,0-.33-.08,1.32,1.32,0,0,0-.33-.3l-.53-.3a.57.57,0,0,0-.33-.09,1.32,1.32,0,0,0-.33-.3l-.46-.26a.53.53,0,0,0-.35-.08,1.17,1.17,0,0,0-.35-.32l-.45-.26c-.28-.16-.51-.09-.6.15a1.35,1.35,0,0,0-.59-.84l-.53-.31a.46.46,0,0,0-.43,0,2.72,2.72,0,0,0-.72-.65,1.31,1.31,0,0,0-.71-.2,1.27,1.27,0,0,0-.4-.4l-1.07-.62-.18-.07-.18-.14-.45-.26a.54.54,0,0,0-.35-.08A1.19,1.19,0,0,0,4,44.78l-.45-.27a.46.46,0,0,0-.45,0h0L2,45.13H2a.47.47,0,0,1,.42.06l.45.26a1.17,1.17,0,0,1,.35.32.54.54,0,0,1,.35.08l.45.27a.62.62,0,0,1,.19.14.6.6,0,0,1,.18.07l1.07.61a1.15,1.15,0,0,1,.39.4,1.33,1.33,0,0,1,.71.21,2.54,2.54,0,0,1,.72.64.46.46,0,0,1,.43.06l.53.3a1.46,1.46,0,0,1,.6.84c.08-.24.32-.31.59-.15l.46.26a1.2,1.2,0,0,1,.35.33.49.49,0,0,1,.35.08l.45.26a1.15,1.15,0,0,1,.33.3.48.48,0,0,1,.33.08l.53.3a1.32,1.32,0,0,1,.33.3.54.54,0,0,1,.33.08l.62.37a2.55,2.55,0,0,1,.62.48.51.51,0,0,1,.36.08l.44.25a1,1,0,0,1,.21.17.6.6,0,0,1,.21.08l.48.27.13.09.13.06,1.06.62.12.07.11.06,1.31.75a1.39,1.39,0,0,1,.63,1.1v.42c0,.32-.18.49-.44.44v.79a.45.45,0,0,1-.17.4h0l1.14-.65h0a.43.43,0,0,0,.2-.41v-.79c.25.05.44-.12.44-.44V55A1.4,1.4,0,0,0,19.83,53.91Z" style="fill:#c2c2c2"/><path d="M18.67,54.58l-1.31-.75-.11-.06-.12-.07-1.06-.62L15.94,53l-.13-.09-.48-.27a.6.6,0,0,0-.21-.08,1,1,0,0,0-.21-.17l-.44-.25a.51.51,0,0,0-.36-.08,2.55,2.55,0,0,0-.62-.48l-.62-.37a.54.54,0,0,0-.33-.08,1.32,1.32,0,0,0-.33-.3l-.53-.3a.48.48,0,0,0-.33-.08,1.15,1.15,0,0,0-.33-.3l-.45-.26a.49.49,0,0,0-.35-.08,1.2,1.2,0,0,0-.35-.33l-.46-.26c-.27-.16-.51-.09-.59.15a1.46,1.46,0,0,0-.6-.84l-.53-.3a.46.46,0,0,0-.43-.06,2.54,2.54,0,0,0-.72-.64,1.33,1.33,0,0,0-.71-.21,1.15,1.15,0,0,0-.39-.4l-1.07-.61a.6.6,0,0,0-.18-.07A.62.62,0,0,0,4,46.12l-.45-.27a.54.54,0,0,0-.35-.08,1.17,1.17,0,0,0-.35-.32l-.45-.26c-.35-.2-.64,0-.64.36v1.91a1.43,1.43,0,0,0,.64,1.1l.4.23a.53.53,0,0,0,.39.07h0a1.18,1.18,0,0,0,.39.38l.4.23a.56.56,0,0,0,.19.07.49.49,0,0,0,.18.14l1.09.63a.47.47,0,0,0,.38.08,2.73,2.73,0,0,0,.69.58,1.62,1.62,0,0,0,.45.18,1.46,1.46,0,0,0,.21.16l.45.26a.57.57,0,0,0,.31.09,1.12,1.12,0,0,0,.31.27l.46.27h0a.5.5,0,0,0,.34.08,1.46,1.46,0,0,0,.34.32l.41.23a.52.52,0,0,0,.39.07h0a1.4,1.4,0,0,0,.39.38l.41.23.09,0,.07.06.44.25a.52.52,0,0,0,.32.09,1.12,1.12,0,0,0,.31.27l.46.27h0l.07,0,.08.05.44.25a.57.57,0,0,0,.22.09,1.3,1.3,0,0,0,.23.18l.49.28h0l.11.05.11.08.44.25a.56.56,0,0,0,.26.08,1.05,1.05,0,0,0,.26.22l.48.28.09,0,.07.05,1.09.63a.51.51,0,0,0,.32.08,1.21,1.21,0,0,0,.31.29l.44.25c.35.2.63,0,.63-.37v-.79c.26.05.44-.12.44-.44v-.42A1.39,1.39,0,0,0,18.67,54.58Z" style="fill:#dbdbdb"/><path d="M2.4,45.92l.45.26.26.94.09.37h0l.09-.26.25-.65.45.27v1.9l-.4-.23V48c0-.19,0-.46,0-.64h0l-.14.37-.22.51-.17-.1-.23-.77-.13-.52h0c0,.2.06.52.06.71v.57l-.4-.23Z" style="fill:#ff2b2b"/><path d="M4.37,47.06l1.07.61v.43l-.63-.37V48l.53.31v.42l-.53-.31v.34l.65.38v.42L4.37,49Z" style="fill:#ff2b2b"/><path d="M6.54,48.28a1.39,1.39,0,0,1,.53.55L6.83,49a.81.81,0,0,0-.28-.3c-.23-.12-.39,0-.39.33a.86.86,0,0,0,.43.81l.13,0v-.27l-.25-.14v-.41l.63.36v.91a.67.67,0,0,1-.57-.09,1.69,1.69,0,0,1-.82-1.45C5.71,48.16,6.09,48,6.54,48.28Z" style="fill:#ff2b2b"/><path d="M8.18,50.76l-.46-.27-.08.36-.45-.26L7.69,49l.53.3.5,2.2-.46-.27Zm-.08-.44,0-.14C8,50,8,49.71,8,49.5h0c0,.18-.08.38-.12.54l0,.12Z" style="fill:#ff2b2b"/><path d="M9.41,50l.46.26.26.94.09.37h0l.09-.26.25-.64.45.26v1.9l-.41-.23V52c0-.2,0-.47.06-.65h0l-.14.37-.23.51-.16-.09-.23-.78-.13-.52h0c0,.2.06.52.06.72v.56l-.41-.23Z" style="fill:#ff2b2b"/><path d="M12.17,53.06l-.46-.26-.09.35-.44-.25.5-1.62.53.3.5,2.2-.46-.27Zm-.08-.43,0-.15c0-.21-.08-.46-.12-.68h0c0,.17-.08.38-.12.53l0,.12Z" style="fill:#ff2b2b"/><path d="M13.76,54.39l-.29-.81-.16-.1v.64l-.44-.25V52l.62.37a1.14,1.14,0,0,1,.67,1c0,.28-.11.39-.27.4l.36,1Zm-.45-1.3.15.09c.18.1.27.06.27-.1s-.09-.27-.27-.37l-.15-.09Z" style="fill:#ff2b2b"/><path d="M14.47,52.89l.44.25v.71h0l.41-.47.48.27-.49.49.59,1.48-.48-.28-.36-.94-.16.16v.48l-.44-.25Z" style="fill:#ff2b2b"/><path d="M16.07,53.81l1.06.62v.42l-.63-.36v.29l.54.32v.42l-.54-.31v.34l.66.38v.42l-1.09-.63Z" style="fill:#ff2b2b"/><path d="M17.79,55.23,17.36,55v-.42l1.31.75v.43l-.44-.26V57l-.44-.25Z" style="fill:#ff2b2b"/><polygon points="58.16 58.63 65.76 54.24 65.76 61.96 58.16 66.35 58.16 58.63" style="fill:#3d3d3d"/><polygon points="58.16 58.63 65.64 54.31 65.64 61.67 58.16 65.99 58.16 58.63" style="fill:#616161"/><polygon points="58.16 59.06 65.64 54.75 65.64 54.58 58.16 58.9 58.16 59.06" style="fill:#575757"/><polygon points="58.16 60.08 65.64 55.77 65.64 55.6 58.16 59.91 58.16 60.08" style="fill:#575757"/><polygon points="58.16 61.1 65.64 56.78 65.64 56.62 58.16 60.93 58.16 61.1" style="fill:#575757"/><polygon points="58.16 62.12 65.64 57.8 65.64 57.63 58.16 61.95 58.16 62.12" style="fill:#575757"/><polygon points="58.16 63.14 65.64 58.82 65.64 58.65 58.16 62.97 58.16 63.14" style="fill:#575757"/><polygon points="58.16 64.16 65.64 59.84 65.64 59.67 58.16 63.99 58.16 64.16" style="fill:#575757"/><polygon points="58.16 65.17 65.64 60.86 65.64 60.69 58.16 65 58.16 65.17" style="fill:#575757"/><polygon points="67.72 53.11 75.31 48.73 75.31 56.45 67.72 60.83 67.72 53.11" style="fill:#3d3d3d"/><polygon points="67.72 53.11 75.19 48.8 75.19 56.16 67.72 60.47 67.72 53.11" style="fill:#616161"/><polygon points="67.72 53.55 75.19 49.23 75.19 49.06 67.72 53.38 67.72 53.55" style="fill:#575757"/><polygon points="67.72 54.56 75.19 50.25 75.19 50.08 67.72 54.4 67.72 54.56" style="fill:#575757"/><polygon points="67.72 55.58 75.19 51.27 75.19 51.1 67.72 55.41 67.72 55.58" style="fill:#575757"/><polygon points="67.72 56.6 75.19 52.29 75.19 52.12 67.72 56.43 67.72 56.6" style="fill:#575757"/><polygon points="67.72 57.62 75.19 53.3 75.19 53.13 67.72 57.45 67.72 57.62" style="fill:#575757"/><polygon points="67.72 58.64 75.19 54.32 75.19 54.15 67.72 58.47 67.72 58.64" style="fill:#575757"/><polygon points="67.72 59.66 75.19 55.34 75.19 55.17 67.72 59.49 67.72 59.66" style="fill:#575757"/></g></g></svg>