<svg xmlns="http://www.w3.org/2000/svg" viewBox="0 0 68.62 72.74"><g id="Layer_2" data-name="Layer 2"><g id="Layer_1-2" data-name="Layer 1"><polygon points="41.72 72.74 6.18 52.26 6.18 48.63 41.72 69.12 41.72 72.74" style="fill:#474747"/><polygon points="13.61 56.92 5.44 52.2 8.91 50.2 17.08 54.92 13.61 56.92" style="fill:#969696"/><polygon points="11.8 58.8 3.63 54.08 5.44 53.08 13.61 57.8 11.8 58.8" style="fill:#969696"/><polygon points="9.99 60.68 1.81 55.96 3.63 54.96 11.8 59.68 9.99 60.68" style="fill:#969696"/><polygon points="8.17 62.56 0 57.84 1.81 56.84 9.99 61.56 8.17 62.56" style="fill:#969696"/><polygon points="13.61 57.8 5.44 53.08 5.44 52.2 13.61 56.92 13.61 57.8" style="fill:#757575"/><polygon points="11.8 59.68 3.63 54.96 3.63 54.08 11.8 58.8 11.8 59.68" style="fill:#757575"/><polygon points="9.99 61.56 1.81 56.84 1.81 55.96 9.99 60.68 9.99 61.56" style="fill:#757575"/><polygon points="8.17 63.76 0 59.04 0 57.84 8.17 62.56 8.17 63.76" style="fill:#757575"/><polygon points="17.08 58.55 8.17 63.76 8.17 62.56 9.99 61.56 9.99 60.68 11.8 59.68 11.8 58.8 13.61 57.8 13.61 56.92 17.08 54.92 17.08 58.55" style="fill:#c7c7c7"/><polygon points="41.72 72.74 41.72 69.12 68.62 53.61 68.62 57.23 41.72 72.74" style="fill:#575757"/><polygon points="41.72 69.12 6.18 48.63 33.08 33.12 68.62 53.61 41.72 69.12" style="fill:#616161"/><polygon points="41.68 46.95 41.72 39.43 67.05 24.81 67.01 32.32 41.68 46.95" style="fill:#f2ad72"/><polygon points="41.68 46.95 7.76 27.4 7.76 19.86 41.72 39.43 41.68 46.95" style="fill:#d99a66"/><polygon points="41.68 68.1 41.72 48.55 67.05 33.92 67.01 53.47 41.68 68.1" style="fill:#8c5642"/><polygon points="41.68 68.1 7.76 48.55 7.76 28.98 41.72 48.55 41.68 68.1" style="fill:#663f30"/><polygon points="41.68 48.55 41.72 46.95 67.05 32.32 67.01 33.92 41.68 48.55" style="fill:#c2c2c2"/><polygon points="41.68 48.55 7.76 29 7.76 27.38 41.72 46.95 41.68 48.55" style="fill:#a8a8a8"/><polygon points="41.72 39.43 6.18 18.95 6.18 15.32 41.72 35.81 41.72 39.43" style="fill:#474747"/><polygon points="41.72 39.43 41.72 35.81 68.26 20.48 68.26 24.11 41.72 39.43" style="fill:#575757"/><polygon points="41.72 35.81 6.18 15.32 32.72 0 68.26 20.48 41.72 35.81" style="fill:#616161"/><polygon points="32.72 4.23 12 16.19 9.8 14.92 32.72 1.69 32.72 4.23" style="fill:#696969"/><polygon points="64.63 20.08 62.44 21.35 32.72 4.23 32.72 1.69 64.63 20.08" style="fill:#404040"/><polygon points="62.44 21.35 41.72 33.31 12 16.19 32.72 4.23 62.44 21.35" style="fill:#545454"/><polygon points="50.34 20.26 55.62 23.3 60.4 20.54 55.12 17.5 50.34 20.26" style="fill:#383838"/><polygon points="53.68 17.35 57.56 19.59 59.3 18.59 55.42 16.35 53.68 17.35" style="fill:#ccc"/><polygon points="53.68 19.35 57.56 21.59 57.56 19.59 53.68 17.35 53.68 19.35" style="fill:gray"/><polygon points="57.56 21.59 59.3 20.59 59.3 18.59 57.56 19.59 57.56 21.59" style="fill:#999"/><path d="M56.12,16.94a1.53,1.53,0,0,0-1.38,0,.42.42,0,0,0,0,.8,1.53,1.53,0,0,0,1.38,0A.42.42,0,0,0,56.12,16.94Z" style="fill:#2e2e2e"/><path d="M54.74,16.94c-.24.14.64.37.64.37S55,16.8,54.74,16.94Z" style="fill:#5c5c5c"/><path d="M55.43,16.78c-.34,0,0,.51,0,.51S55.77,16.78,55.43,16.78Z" style="fill:#5c5c5c"/><path d="M56.11,16.94c-.24-.14-.63.36-.63.36S56.35,17.08,56.11,16.94Z" style="fill:#5c5c5c"/><path d="M55.5,17.33s.89.2.89,0S55.5,17.33,55.5,17.33Z" style="fill:#5c5c5c"/><path d="M55.48,17.36s.39.51.63.37S55.48,17.36,55.48,17.36Z" style="fill:#5c5c5c"/><path d="M55.43,17.89c.34,0,0-.51,0-.51S55.09,17.89,55.43,17.89Z" style="fill:#5c5c5c"/><path d="M54.75,17.73c.24.14.63-.37.63-.37S54.51,17.59,54.75,17.73Z" style="fill:#5c5c5c"/><path d="M54.46,17.34c0,.19.9,0,.9,0S54.46,17.14,54.46,17.34Z" style="fill:#5c5c5c"/><path d="M55.61,17.24a.36.36,0,0,0-.35,0c-.1.05-.1.14,0,.2a.36.36,0,0,0,.35,0C55.7,17.38,55.7,17.29,55.61,17.24Z" style="fill:#696969"/><path d="M55.55,17.27a.24.24,0,0,0-.23,0c-.07,0-.07.1,0,.14a.3.3,0,0,0,.23,0A.08.08,0,0,0,55.55,17.27Z" style="fill:#424242"/><path d="M55.39,17.26s0,0,0,0h0a0,0,0,0,0,0,0A0,0,0,0,0,55.39,17.26Z" style="fill:#fff"/><path d="M58.15,18.07a1.5,1.5,0,0,0-1.37,0,.42.42,0,0,0,0,.79,1.5,1.5,0,0,0,1.37,0A.42.42,0,0,0,58.15,18.07Z" style="fill:#2e2e2e"/><path d="M56.78,18.07c-.24.13.63.36.63.36S57,17.93,56.78,18.07Z" style="fill:#5c5c5c"/><path d="M57.46,17.9c-.34,0,0,.52,0,.52S57.8,17.9,57.46,17.9Z" style="fill:#5c5c5c"/><path d="M58.14,18.06c-.24-.13-.63.37-.63.37S58.38,18.2,58.14,18.06Z" style="fill:#5c5c5c"/><path d="M57.53,18.46s.9.19.9,0S57.53,18.46,57.53,18.46Z" style="fill:#5c5c5c"/><path d="M57.51,18.49s.4.5.64.36S57.51,18.49,57.51,18.49Z" style="fill:#5c5c5c"/><path d="M57.46,19c.34,0,0-.52,0-.52S57.12,19,57.46,19Z" style="fill:#5c5c5c"/><path d="M56.78,18.85c.24.14.63-.36.63-.36S56.54,18.72,56.78,18.85Z" style="fill:#5c5c5c"/><path d="M56.49,18.46c0,.2.9,0,.9,0S56.49,18.26,56.49,18.46Z" style="fill:#5c5c5c"/><ellipse cx="57.46" cy="18.46" rx="0.25" ry="0.14" style="fill:#696969"/><ellipse cx="57.46" cy="18.46" rx="0.16" ry="0.09" style="fill:#424242"/><path d="M57.42,18.38s0,0,0,0a0,0,0,0,0,0,0,0,0,0,0,0,0,0Z" style="fill:#fff"/><polygon points="51.73 18.43 55.62 20.67 57.35 19.67 53.47 17.43 51.73 18.43" style="fill:#ccc"/><polygon points="51.73 20.43 55.62 22.67 55.62 20.67 51.73 18.43 51.73 20.43" style="fill:gray"/><polygon points="55.62 22.67 57.35 21.67 57.35 19.67 55.62 20.67 55.62 22.67" style="fill:#999"/><path d="M54.17,18a1.5,1.5,0,0,0-1.37,0,.42.42,0,0,0,0,.79,1.5,1.5,0,0,0,1.37,0A.42.42,0,0,0,54.17,18Z" style="fill:#2e2e2e"/><path d="M52.8,18c-.24.14.63.36.63.36S53,17.88,52.8,18Z" style="fill:#5c5c5c"/><path d="M53.48,17.85c-.34,0,0,.52,0,.52S53.82,17.85,53.48,17.85Z" style="fill:#5c5c5c"/><path d="M54.16,18c-.24-.14-.63.36-.63.36S54.4,18.15,54.16,18Z" style="fill:#5c5c5c"/><path d="M53.55,18.41s.9.2.9,0S53.55,18.41,53.55,18.41Z" style="fill:#5c5c5c"/><path d="M53.53,18.44s.4.5.64.37S53.53,18.44,53.53,18.44Z" style="fill:#5c5c5c"/><path d="M53.48,19c.34,0,0-.52,0-.52S53.14,19,53.48,19Z" style="fill:#5c5c5c"/><path d="M52.8,18.81c.24.14.63-.37.63-.37S52.56,18.67,52.8,18.81Z" style="fill:#5c5c5c"/><path d="M52.51,18.41c0,.2.9,0,.9,0S52.51,18.22,52.51,18.41Z" style="fill:#5c5c5c"/><path d="M53.66,18.32a.36.36,0,0,0-.35,0c-.1.05-.1.14,0,.2a.43.43,0,0,0,.35,0C53.76,18.46,53.76,18.37,53.66,18.32Z" style="fill:#696969"/><path d="M53.6,18.35a.24.24,0,0,0-.23,0c-.07,0-.07.1,0,.13a.24.24,0,0,0,.23,0C53.66,18.45,53.66,18.39,53.6,18.35Z" style="fill:#424242"/><path d="M53.44,18.33s0,0,0,0a0,0,0,0,0,.05,0s0,0,0,0Z" style="fill:#fff"/><path d="M56.21,19.14a1.53,1.53,0,0,0-1.38,0,.42.42,0,0,0,0,.8,1.53,1.53,0,0,0,1.38,0A.42.42,0,0,0,56.21,19.14Z" style="fill:#2e2e2e"/><path d="M54.83,19.14c-.24.14.63.37.63.37S55.07,19,54.83,19.14Z" style="fill:#5c5c5c"/><path d="M55.51,19c-.34,0,0,.51,0,.51S55.85,19,55.51,19Z" style="fill:#5c5c5c"/><path d="M56.19,19.14c-.24-.14-.63.37-.63.37S56.43,19.28,56.19,19.14Z" style="fill:#5c5c5c"/><path d="M55.59,19.54s.89.19.89,0S55.59,19.54,55.59,19.54Z" style="fill:#5c5c5c"/><path d="M55.57,19.57s.39.5.63.36S55.57,19.57,55.57,19.57Z" style="fill:#5c5c5c"/><path d="M55.52,20.09c.33,0,0-.51,0-.51S55.18,20.09,55.52,20.09Z" style="fill:#5c5c5c"/><path d="M54.83,19.93c.24.14.63-.36.63-.36S54.59,19.79,54.83,19.93Z" style="fill:#5c5c5c"/><path d="M54.55,19.54c0,.19.89,0,.89,0S54.55,19.34,54.55,19.54Z" style="fill:#5c5c5c"/><path d="M55.69,19.44a.36.36,0,0,0-.35,0c-.1.06-.1.15,0,.2a.36.36,0,0,0,.35,0C55.79,19.59,55.79,19.5,55.69,19.44Z" style="fill:#696969"/><path d="M55.63,19.47a.31.31,0,0,0-.23,0,.08.08,0,0,0,0,.14.24.24,0,0,0,.23,0C55.7,19.57,55.7,19.51,55.63,19.47Z" style="fill:#424242"/><path d="M55.47,19.46a0,0,0,0,0,0,0,0,0,0,0,0,.05,0,0,0,0,0,0,0,0A0,0,0,0,0,55.47,19.46Z" style="fill:#fff"/><polygon points="10.15 23.93 10.15 26.71 21.26 33.12 21.26 32.89 10.36 26.6 10.36 24.05 10.15 23.93" style="fill:#a8774f"/><polygon points="10.36 24.05 10.36 26.6 21.26 32.89 21.26 30.34 10.36 24.05" style="fill:#0f93b0"/><polygon points="10.36 24.05 10.36 26.6 11.35 27.17 13.56 25.89 10.36 24.05" style="fill:#1ac"/><polygon points="11.97 27.54 13.02 28.14 12.33 25.19 11.26 24.58 11.97 27.54" style="fill:#fff;opacity:0.2"/><polygon points="15.95 29.81 19.53 31.89 19 29.04 15.4 26.95 15.95 29.81" style="fill:#fff;opacity:0.2"/><polygon points="27.99 34.23 27.99 37.01 39.1 43.42 39.1 43.19 28.2 36.9 28.2 34.34 27.99 34.23" style="fill:#a8774f"/><polygon points="28.2 34.34 28.2 36.9 39.1 43.19 39.1 40.64 28.2 34.34" style="fill:#0f93b0"/><polygon points="28.2 34.34 28.2 36.9 29.18 37.47 31.39 36.19 28.2 34.34" style="fill:#1ac"/><polygon points="29.81 37.83 30.86 38.44 30.16 35.49 29.1 34.88 29.81 37.83" style="fill:#fff;opacity:0.2"/><polygon points="33.78 40.1 37.36 42.19 36.83 39.33 33.24 37.24 33.78 40.1" style="fill:#fff;opacity:0.2"/><polygon points="60.59 31.17 60.59 33.95 49.49 40.36 49.49 40.13 60.39 33.84 60.39 31.29 60.59 31.17" style="fill:#a8774f"/><polygon points="60.39 31.29 60.39 33.84 49.49 40.13 49.49 37.58 60.39 31.29" style="fill:#0f93b0"/><polygon points="60.39 31.29 60.39 33.84 59.4 34.41 57.19 33.13 60.39 31.29" style="fill:#1ac"/><polygon points="58.78 34.78 57.73 35.38 58.42 32.43 59.48 31.82 58.78 34.78" style="fill:#fff;opacity:0.2"/><polygon points="54.8 37.05 51.22 39.13 51.75 36.28 55.35 34.19 54.8 37.05" style="fill:#fff;opacity:0.2"/><polygon points="41.72 51.09 20.31 38.77 20.31 54.5 41.68 66.8 41.72 51.09" style="fill:#bdbdbd"/><polygon points="41.69 64.51 22.31 53.35 22.31 41 21.33 40.43 21.33 53.9 41.68 65.63 41.69 64.51" style="fill:#757575"/><polygon points="41.72 52.18 22.31 41 22.31 53.35 41.69 64.51 41.72 52.18" style="fill:#0c778f"/><g style="opacity:0.7000000000000001"><path d="M24.52,49.1a.47.47,0,0,0,.42-.13c-.07-.26-.13-.52-.2-.79l-.54-.08.09.31.24,0,.08.29a.16.16,0,0,1-.14,0c-.27,0-.46-.26-.56-.61s0-.53.23-.5a.53.53,0,0,1,.31.17l.12-.2a1,1,0,0,0-.52-.3c-.41-.06-.64.24-.47.81A1.27,1.27,0,0,0,24.52,49.1Z" style="fill:#b5b5b5"/><path d="M26.2,49.41l-.07-.32-.6-.15-.09-.39.5.12-.07-.32-.51-.12-.08-.34c.21,0,.41.09.61.15l-.07-.32c-.32-.09-.64-.16-1-.22l.42,1.7C25.59,49.26,25.89,49.33,26.2,49.41Z" style="fill:#b5b5b5"/><path d="M26.8,49.57c0-.2-.07-.4-.11-.59s-.11-.43-.16-.62h0l.22.41.54.95.33.11-.26-1.65L27,48.07c0,.19.07.39.1.58s.11.44.15.62h0l-.21-.42-.55-1-.36-.1c.12.56.23,1.12.34,1.68Z" style="fill:#b5b5b5"/><path d="M28.93,50.32a2.91,2.91,0,0,1,0-.31c-.21-.08-.41-.17-.62-.24l-.05-.38.51.2,0-.31-.52-.2c0-.11,0-.22-.05-.33l.62.25,0-.31c-.33-.14-.66-.27-1-.38L28,50Z" style="fill:#b5b5b5"/><path d="M29.55,50.59,29.5,50l.19.09.33.71.38.18c-.13-.26-.25-.53-.38-.8.15,0,.25-.09.24-.32a1,1,0,0,0-.64-.79l-.57-.25.17,1.62Zm.07-1.23c.18.08.29.19.3.34s-.08.19-.27.11l-.17-.08,0-.46Z" style="fill:#b5b5b5"/><path d="M30.83,50.85l.46.25c0,.14.06.28.1.42l.35.2c-.15-.61-.32-1.21-.5-1.82l-.43-.23c-.14.44-.28.88-.4,1.33l.34.17C30.78,51.07,30.8,51,30.83,50.85Zm.09-.36c0-.14.07-.3.1-.44h0c0,.19.1.39.14.57l0,.16-.32-.17Z" style="fill:#b5b5b5"/><path d="M32.84,52.09l-.59-.37c0-.41,0-.82,0-1.23l-.36-.21v1.53l.92.56Z" style="fill:#b5b5b5"/><path d="M34.05,52.91a1.33,1.33,0,0,1-.36-.41l-.21.1a2,2,0,0,0,.53.59c.35.24.58.19.61,0a.78.78,0,0,0-.25-.61l-.19-.21c-.13-.15-.23-.25-.22-.34s.09-.08.21,0a1.46,1.46,0,0,1,.31.34l.2-.07a1.62,1.62,0,0,0-.48-.55c-.33-.23-.58-.2-.6.05a1,1,0,0,0,.28.61l.19.21c.13.15.21.24.2.33S34.19,53,34.05,52.91Z" style="fill:#b5b5b5"/><path d="M35.07,53.93l.33.25.18-1.11.43.33.05-.26c-.41-.32-.81-.63-1.22-.93l0,.27.42.32Z" style="fill:#b5b5b5"/><path d="M36.56,55.15c.39.34.72.32.84-.1a1.31,1.31,0,0,0-.53-1.26c-.42-.36-.76-.34-.84.11A1.38,1.38,0,0,0,36.56,55.15Zm-.18-1c.06-.26.22-.31.43-.14a.7.7,0,0,1,.24.71c-.07.26-.23.32-.43.15A.76.76,0,0,1,36.38,54.18Z" style="fill:#b5b5b5"/><path d="M38,55.79l.18.17c0,.24.09.47.14.71l.36.35c0-.27-.11-.53-.16-.8.18.09.32.08.38-.1s-.13-.63-.45-.93-.37-.34-.55-.51L37.5,56l.32.29Zm.18-.57.17.16c.18.17.26.3.22.42s-.15.09-.33-.07L38,55.57Z" style="fill:#b5b5b5"/><path d="M40.14,57.22l.1-.22c-.31-.33-.63-.65-.94-1l-.45,1.19c.31.3.61.61.91.92l.09-.21c-.19-.21-.39-.41-.59-.61l.11-.27c.16.17.33.33.49.51l.09-.22-.49-.51.09-.24C39.75,56.81,40,57,40.14,57.22Z" style="fill:#b5b5b5"/><path d="M24.11,49.87c.16.51.31,1,.46,1.53,4.65.47,9.87,3.49,14.52,8.4.15-.34.31-.67.46-1C34.61,53.58,29.06,50.37,24.11,49.87Z" style="fill:#b5b5b5"/></g><polygon points="22.31 41 22.31 53.35 33.65 59.88 31.34 46.2 22.31 41" style="fill:#fff;opacity:0.1"/><polygon points="41.72 51.09 41.68 66.8 65.24 53.27 65.24 37.54 41.72 51.09" style="fill:#fff"/><polygon points="63.25 39.77 63.25 52.12 41.69 64.51 41.68 65.63 64.22 52.68 64.22 39.21 63.25 39.77" style="fill:#8f8f8f"/><polygon points="41.72 52.18 41.69 64.51 63.25 52.12 63.25 39.77 41.72 52.18" style="fill:#0f93b0"/><g style="opacity:0.7000000000000001"><path d="M45,57.35a2.25,2.25,0,0,0,.45-.67l-.21-.59-.58.57.09.23.26-.26.08.22a.69.69,0,0,1-.15.21c-.29.29-.49.29-.6,0a.79.79,0,0,1,.25-.83.6.6,0,0,1,.33-.2c.05-.12.09-.25.14-.38a1.07,1.07,0,0,0-.57.34A1.49,1.49,0,0,0,44,57.49C44.19,57.89,44.61,57.76,45,57.35Z" style="fill:#fff"/><path d="M46.83,55.58l-.07-.26-.65.6-.1-.3.54-.5-.07-.26c-.19.16-.37.33-.55.5l-.09-.26q.33-.32.66-.6l-.08-.26-1,.95.45,1.32Z" style="fill:#fff"/><path d="M47.48,55l-.12-.5c0-.16-.12-.32-.17-.47h0l.23.17.58.36.37-.3c-.1-.48-.19-1-.29-1.45l-.36.29.11.51a3.13,3.13,0,0,0,.16.49h0l-.23-.19-.6-.34-.38.34.36,1.39Z" style="fill:#fff"/><path d="M49.77,53.18l0-.29c-.22.17-.45.33-.67.51,0-.12,0-.23-.05-.35l.55-.42,0-.28-.56.42-.05-.3.67-.5,0-.29q-.52.39-1,.81c.08.49.17,1,.26,1.47Q49.26,53.55,49.77,53.18Z" style="fill:#fff"/><path d="M50.45,52.69l-.06-.56.2-.14.36.35.41-.27-.42-.39a.9.9,0,0,0,.27-.65c0-.38-.33-.3-.69-.05l-.61.43L50.09,53Zm.06-1.41c.2-.14.32-.16.33,0a.54.54,0,0,1-.28.44l-.2.13c0-.14,0-.29,0-.43Z" style="fill:#fff"/><path d="M51.82,51.38l.5-.31c0,.11.07.22.1.33l.39-.22c-.17-.46-.35-.9-.54-1.34l-.46.29c-.16.65-.31,1.29-.44,1.94.12-.09.24-.16.37-.24S51.79,51.53,51.82,51.38Zm.1-.51c0-.18.08-.4.11-.6h0l.15.44,0,.12-.35.22Z" style="fill:#fff"/><path d="M54,50.21l-.64.34,0-1.35-.38.22c0,.55,0,1.1,0,1.65.33-.19.67-.37,1-.54Z" style="fill:#fff"/><path d="M55.29,49.6a.46.46,0,0,1-.38,0l-.23.37a.68.68,0,0,0,.57,0,1.12,1.12,0,0,0,.66-.81c0-.25-.08-.33-.27-.33h-.21c-.13,0-.24,0-.23-.09s.09-.19.22-.25a.41.41,0,0,1,.34,0l.22-.33a.55.55,0,0,0-.53,0,1.09,1.09,0,0,0-.64.8.26.26,0,0,0,.3.31h.21c.13,0,.22,0,.21.11A.37.37,0,0,1,55.29,49.6Z" style="fill:#fff"/><path d="M56.39,49.42l.36-.14c.07-.47.13-1,.2-1.43l.46-.17c0-.11,0-.22.05-.34-.44.16-.87.33-1.31.51l0,.33.46-.18Z" style="fill:#fff"/><path d="M58,48.89a1.46,1.46,0,0,0,.9-1.16c.13-.58-.11-.85-.56-.71a1.4,1.4,0,0,0-.91,1.17C57.34,48.77,57.58,49,58,48.89Zm-.19-.83a.82.82,0,0,1,.46-.69c.23-.07.33.11.26.47a.87.87,0,0,1-.47.7C57.85,48.6,57.75,48.42,57.81,48.06Z" style="fill:#fff"/><path d="M59.51,47.83l.2,0c0,.19.1.39.14.59l.39-.07c-.05-.23-.11-.45-.17-.67a1,1,0,0,0,.42-.58c.11-.44-.14-.52-.49-.44l-.6.14L59,48.57l.35-.08ZM59.7,47l.19,0c.19,0,.28,0,.24.18a.43.43,0,0,1-.36.33l-.18,0Z" style="fill:#fff"/><path d="M61.87,46.65l.1-.35c-.34,0-.67.08-1,.13-.17.61-.33,1.23-.49,1.84.33-.06.66-.1,1-.13l.1-.35c-.21,0-.42,0-.64.08l.12-.43c.18,0,.35,0,.53-.06s.07-.24.1-.35l-.54.07.11-.37Z" style="fill:#fff"/><path d="M44.58,58.68c.16.37.33.73.49,1.09,5-5.29,10.65-8.53,15.66-9,.17-.55.33-1.1.49-1.65C55.9,49.61,49.91,53.07,44.58,58.68Z" style="fill:#fff"/></g><polygon points="52.19 46.14 59.52 54.27 50.4 59.52 43.97 50.88 52.19 46.14" style="fill:#fff;opacity:0.2"/><polygon points="16.17 40.9 16.17 52.51 11.37 49.73 11.37 38.13 16.17 40.9" style="fill:#c9c9c9"/><polygon points="15.78 46.46 15.78 46.79 11.71 44.47 11.71 39.11 12 39.28 12 44.3 15.78 46.46" style="fill:gray"/><polygon points="15.78 41.43 15.78 46.46 12 44.3 12 39.28 15.78 41.43" style="fill:#0c778f"/><polygon points="15.41 41.22 14.35 40.62 12.31 44.48 13.19 44.98 15.41 41.22" style="fill:#fff;opacity:0.1"/><polygon points="15.78 43.26 15.78 42.2 14.05 45.47 14.44 45.7 15.78 43.26" style="fill:#fff;opacity:0.1"/><polygon points="15.78 51.19 15.78 51.53 11.71 49.21 11.71 45.02 12 45.19 12 49.04 15.78 51.19" style="fill:gray"/><polygon points="15.78 47.34 15.78 51.19 12 49.04 12 45.19 15.78 47.34" style="fill:#0c778f"/><polygon points="14.89 46.83 13.83 46.23 12.31 49.21 13.19 49.71 14.89 46.83" style="fill:#fff;opacity:0.1"/><polygon points="15.78 47.99 15.78 47.34 15.61 47.25 14.05 50.2 14.44 50.43 15.78 47.99" style="fill:#fff;opacity:0.1"/><polygon points="16.17 52.51 16.17 53.03 10.91 50 10.91 37.86 11.37 38.13 11.37 49.73 16.17 52.51" style="fill:#42291f"/><circle cx="15.66" cy="47.2" r="0.31" style="fill:#666"/><path d="M15.85,47s0,.07,0,.09-.06,0-.09,0,0-.07,0-.09S15.82,47,15.85,47Z" style="fill:#d6d6d6"/><path d="M13.73,56.35V44.05h-.37v12.3a.1.1,0,0,0,.05.07.3.3,0,0,0,.26,0A.1.1,0,0,0,13.73,56.35Z" style="fill:#2e2e2e"/><path d="M6.58,52.22V39.92H6.21v12.3a.08.08,0,0,0,0,.07.3.3,0,0,0,.26,0A.1.1,0,0,0,6.58,52.22Z" style="fill:#2e2e2e"/><path d="M14.88,34.11A3,3,0,0,0,12,33.76h0l-.06,0-.07.05L4.54,38.07l7.32,7.51,7.23-4.18A9.29,9.29,0,0,0,14.88,34.11Z" style="fill:#e33f3f"/><path d="M7.65,38.28C5.32,36.94,3.44,38,3.44,40.71l8.42,4.87A9.34,9.34,0,0,0,7.65,38.28Z" style="fill:#a12d2d"/><path d="M4,41.75c.33.19.6,0,.6-.35l-1.18-.69A1.3,1.3,0,0,0,4,41.75Z" style="fill:#822424"/><path d="M5.23,42.45c.33.19.6,0,.6-.35l-1.21-.7A1.34,1.34,0,0,0,5.23,42.45Z" style="fill:#822424"/><path d="M6.43,43.14c.34.19.61,0,.61-.35L5.83,42.1A1.33,1.33,0,0,0,6.43,43.14Z" style="fill:#822424"/><path d="M7.64,43.84c.33.19.6,0,.6-.35L7,42.79A1.34,1.34,0,0,0,7.64,43.84Z" style="fill:#822424"/><path d="M8.84,44.53c.34.2.61,0,.61-.34l-1.21-.7A1.33,1.33,0,0,0,8.84,44.53Z" style="fill:#822424"/><path d="M10.05,45.23c.33.19.6,0,.6-.35l-1.2-.69A1.33,1.33,0,0,0,10.05,45.23Z" style="fill:#822424"/><path d="M11.26,45.93c.33.19.6,0,.6-.35l-1.21-.7A1.34,1.34,0,0,0,11.26,45.93Z" style="fill:#822424"/><path d="M18.49,42.45c-.33.19-.6,0-.6-.35l1.2-.7A1.35,1.35,0,0,1,18.49,42.45Z" style="fill:#a12d2d"/><path d="M17.28,43.14c-.33.19-.6,0-.6-.35l1.21-.69A1.32,1.32,0,0,1,17.28,43.14Z" style="fill:#a12d2d"/><path d="M16.08,43.84c-.33.19-.6,0-.6-.35l1.2-.7A1.34,1.34,0,0,1,16.08,43.84Z" style="fill:#a12d2d"/><path d="M14.87,44.53c-.33.2-.6,0-.6-.34l1.21-.7A1.32,1.32,0,0,1,14.87,44.53Z" style="fill:#a12d2d"/><path d="M13.67,45.23c-.34.19-.61,0-.61-.35l1.21-.69A1.33,1.33,0,0,1,13.67,45.23Z" style="fill:#a12d2d"/><path d="M12.46,45.93c-.33.19-.6,0-.6-.35l1.2-.7A1.35,1.35,0,0,1,12.46,45.93Z" style="fill:#a12d2d"/></g></g></svg>