<svg xmlns="http://www.w3.org/2000/svg" viewBox="0 0 160.96 90.81"><g id="Layer_2" data-name="Layer 2"><g id="Layer_1-2" data-name="Layer 1"><polygon points="137.64 67.67 133.46 67.67 130.5 69.37 130.51 71.78 133.46 73.49 137.64 73.49 140.59 71.78 140.59 69.37 137.64 67.67" style="opacity:0.30000000000000004"/><polygon points="137.62 72.47 135.21 72.21 133.47 72.35 133.71 72.96 137.39 72.96 137.62 72.47" style="fill:#b5afa7"/><polygon points="137.39 72.69 138.29 71.45 139.99 71.19 139.99 71.45 137.39 72.96 137.39 72.69" style="fill:#a39c95"/><polygon points="133.71 72.69 132.98 71.7 131.11 71.19 131.11 71.45 133.71 72.96 133.71 72.69" style="fill:#d8d1c7"/><polygon points="137.39 67.56 133.71 67.56 131.11 69.07 131.11 71.19 133.71 72.69 137.39 72.69 139.99 71.19 139.99 69.07 137.39 67.56" style="fill:#e6e1dd"/><polygon points="139.59 69.16 139.59 69.49 137.22 68.12 133.87 68.12 131.5 69.49 131.5 69.16 133.87 67.79 137.22 67.79 139.59 69.16" style="fill:#a39c95"/><polygon points="139.59 69.49 139.59 71.1 137.22 72.46 133.87 72.46 131.51 71.09 131.5 69.49 133.87 68.12 137.22 68.12 139.59 69.49" style="fill:#d8d1c7"/><polygon points="140.56 70.43 130.54 70.43 131.11 71.19 133.71 72.69 137.39 72.69 139.99 71.19 140.56 70.43" style="fill:#cc934c"/><polygon points="140.56 58.12 140.56 70.43 137.62 72.12 136.59 59.19 140.56 58.12" style="fill:#cc934c"/><polygon points="137.62 59.82 137.62 72.12 133.47 72.12 130.54 58.12 137.62 59.82" style="fill:#d6a950"/><polygon points="133.47 59.82 133.47 72.12 130.54 70.43 130.54 58.12 133.47 59.82" style="fill:#e3bd5e"/><polygon points="131.1 56.88 134.25 57.92 133.47 59.82 131.49 59.69 130.54 58.12 131.1 56.88" style="fill:#e3bd5e"/><polygon points="139.49 57.03 140.56 58.12 140.56 55.73 139.99 54.76 139.49 57.03" style="fill:#cc934c"/><polygon points="139.99 56.88 136.85 57.92 137.62 59.82 139.61 59.69 140.56 58.12 139.99 56.88" style="fill:#cc934c"/><polygon points="137.39 58.39 135.72 57.75 133.71 58.39 133.47 59.82 135.74 60.53 137.62 59.82 137.39 58.39" style="fill:#d6a950"/><polygon points="131.61 57.03 130.54 58.12 130.54 55.73 131.11 54.76 131.61 57.03" style="fill:#e3bd5e"/><polygon points="137.62 57.9 135.21 57.64 133.47 57.78 133.71 58.39 137.39 58.39 137.62 57.9" style="fill:#b5afa7"/><polygon points="137.39 58.12 138.29 56.88 139.99 56.62 139.99 56.88 137.39 58.39 137.39 58.12" style="fill:#a39c95"/><polygon points="133.71 58.12 132.98 57.13 131.11 56.62 131.11 56.88 133.71 58.39 133.71 58.12" style="fill:#d8d1c7"/><polygon points="137.39 52.99 133.71 52.99 131.11 54.5 131.11 56.62 133.71 58.12 137.39 58.12 139.99 56.62 139.99 54.5 137.39 52.99" style="fill:#e6e1dd"/><polygon points="139.59 54.59 139.59 54.92 137.22 53.55 133.87 53.55 131.5 54.92 131.5 54.59 133.87 53.22 137.22 53.22 139.59 54.59" style="fill:#a39c95"/><polygon points="139.59 54.92 139.59 56.53 137.22 57.89 133.87 57.89 131.51 56.52 131.5 54.92 133.87 53.55 137.22 53.55 139.59 54.92" style="fill:#d8d1c7"/><polygon points="135.11 56.21 135.11 56.38 134.58 56.07 133.84 56.07 132.71 56.72 132.71 56.55 133.84 55.9 134.58 55.9 135.11 56.21" style="fill:#a39c95"/><polygon points="135.11 56.38 135.11 56.64 133.99 57.29 133.24 57.29 132.71 56.98 132.71 56.72 133.84 56.07 134.58 56.07 135.11 56.38" style="fill:#211a1a"/><polygon points="137.63 69.49 133.48 69.49 133.26 69.71 133.48 70.34 137.63 70.34 137.83 69.79 137.63 69.49" style="fill:#e0dedc"/><polygon points="137.63 69.49 137.63 70.34 140.56 68.64 140.56 67.79 137.63 69.49" style="fill:#b5afa7"/><polygon points="130.54 67.79 130.54 68.64 133.48 70.34 133.48 69.49 133.48 69.49 130.54 67.79" style="fill:#fff"/><polygon points="137.63 67.96 133.48 67.96 133.26 68.18 133.48 68.8 137.63 68.8 137.83 68.26 137.63 67.96" style="fill:#e0dedc"/><polygon points="137.63 67.96 137.63 68.8 140.56 67.11 140.56 66.26 137.63 67.96" style="fill:#b5afa7"/><polygon points="130.54 66.26 130.54 67.11 133.48 68.8 133.48 67.96 133.48 67.96 130.54 66.26" style="fill:#fff"/><polygon points="137.63 61.36 133.48 61.36 133.26 61.58 133.48 62.21 137.63 62.21 137.83 61.66 137.63 61.36" style="fill:#e0dedc"/><polygon points="137.63 61.36 137.63 62.21 140.56 60.51 140.56 59.67 137.63 61.36" style="fill:#b5afa7"/><polygon points="130.54 59.67 130.54 60.51 133.48 62.21 133.48 61.36 133.48 61.36 130.54 59.67" style="fill:#fff"/><polygon points="131.15 73.23 124.5 71.65 117.85 73.24 115.1 77.08 117.86 80.92 124.51 82.51 131.16 80.92 133.91 77.08 131.15 73.23" style="opacity:0.30000000000000004"/><polygon points="131 72.28 127.94 72.11 128.53 77.39 130.86 78 132.29 75.17 131 72.28" style="fill:#4ba3b5"/><polygon points="130.86 78 131.98 77.09 133.29 72.47 131 72.28 130.86 78" style="fill:#368899"/><polygon points="118.01 72.28 121.07 72.11 120.48 77.39 118.16 78 116.72 75.17 118.01 72.28" style="fill:#368899"/><polygon points="118.16 78 117.03 77.09 115.72 72.47 118.01 72.28 118.16 78" style="fill:#4ba3b5"/><polygon points="124.5 76.42 118.45 76.25 122.17 81.23 124.5 81.84 125.79 79.31 124.5 76.42" style="fill:#4ba3b5"/><polygon points="124.5 81.84 126.83 81.23 130.73 76.5 124.5 76.42 124.5 81.84" style="fill:#368899"/><polygon points="118.69 51.8 119.48 49.21 118.68 48.12 116.27 51.48 118.69 51.8" style="fill:#6bc"/><polygon points="121.42 51.13 120.14 49.74 118.45 49.32 116.27 51.48 115.72 54.49 115.72 57.06 117.08 60.1 116.93 66.09 115.72 66.01 115.72 72.47 118.45 76.25 121.66 59.1 121.41 54.18 121.42 51.13" style="fill:#7dd2e3"/><polygon points="126.65 55.78 124.51 52.82 122.37 51.94 120.23 51.8 118.7 54.84 118.31 58.08 118.45 76.25 124.51 77.98 126.84 69.6 126.65 55.78" style="fill:#6bc"/><polygon points="128.97 47.8 128.88 49.74 128.8 51.79 128.97 47.8" style="fill:#6bc"/><polygon points="132.75 51.48 130.34 48.12 129.64 48.73 129.98 50.77 132.75 51.48" style="fill:#4ba3b5"/><polygon points="132.75 51.48 130.57 49.32 129.43 50.05 128.8 51.79 127.26 55.46 127.45 69.22 130.73 76.5 133.29 72.47 133.3 54.49 132.75 51.48" style="fill:#368899"/><polygon points="130.34 54.84 128.8 51.79 126.64 51.94 124.51 52.82 124.51 56.23 124.51 59.56 124.51 77.98 130.73 76.5 130.73 58.07 130.34 54.84" style="fill:#4ba3b5"/><polygon points="128.79 46.85 126.92 46.3 127.14 46.97 126.99 47.97 125.34 48.78 123.68 48.78 122.02 47.97 121.88 46.97 122.1 46.3 120.23 46.85 118.45 49.32 120.23 51.8 124.51 52.82 128.8 51.79 130.57 49.32 128.79 46.85" style="fill:#368899"/><polygon points="126.91 46.3 124.51 45.72 122.1 46.3 121.11 47.69 122.11 49.08 124.51 49.65 126.92 49.07 127.91 47.68 126.91 46.3" style="fill:#e8f3ff"/><polygon points="118.33 60.66 115.72 57.06 115.72 66.01 118.39 69.76 118.82 66.88 118.33 60.66" style="fill:#fff"/><polygon points="130.74 60.65 124.52 62.14 122.95 66.45 124.52 71.52 130.74 70.04 130.74 60.65" style="fill:#e0dedc"/><polygon points="124.52 62.14 118.33 60.66 118.39 69.76 124.52 71.52 124.52 62.14" style="fill:#f4efe9"/><polygon points="120.22 35.72 118.68 36.99 116.26 40.35 119.04 39.96 121.1 36.56 121.87 35.84 122.09 35.17 120.22 35.72" style="fill:#6bc"/><polygon points="121.1 36.56 118.44 38.19 116.26 40.35 115.71 43.36 116.26 46.37 118.69 49.74 121.42 44.95 122.1 37.95 122.37 36.41 121.1 36.56" style="fill:#7dd2e3"/><polygon points="127.86 45.11 124.51 38.52 123.67 37.66 122.1 37.95 120.22 40.67 118.69 43.72 118.31 46.95 118.69 49.74 120.22 51.02 124.51 52.05 127.86 45.11" style="fill:#6bc"/><polygon points="130.34 36.99 128.8 35.72 126.92 35.17 127.14 35.84 127.91 36.56 130.57 40.67 132.76 40.35 130.34 36.99" style="fill:#4ba3b5"/><polygon points="132.76 40.35 130.57 38.19 127.91 36.56 126.65 36.41 126.91 37.95 127.91 45.52 130.32 49.74 132.76 46.37 133.3 43.36 132.76 40.35" style="fill:#368899"/><polygon points="130.32 43.72 128.79 40.67 126.91 37.95 125.34 37.66 124.51 38.52 124.51 41.7 124.51 45.11 124.51 48.44 124.51 51.13 124.51 52.05 128.79 51.02 130.32 49.74 130.71 46.95 130.32 43.72" style="fill:#4ba3b5"/><polygon points="126.91 35.17 124.5 34.6 122.1 35.18 121.1 36.56 122.1 37.95 124.51 38.52 126.91 37.95 127.91 36.56 126.91 35.17" style="fill:#368899"/><polygon points="124.51 34.99 122.1 34.41 121.6 35.29 122.1 37.56 124.51 38.14 125.51 35.85 124.51 34.99" style="fill:#6bc"/><polygon points="124.51 34.99 126.91 34.41 127.41 35.29 126.91 37.56 124.51 38.14 124.51 34.99" style="fill:#4ba3b5"/><polygon points="126.91 31.64 124.5 31.06 122.1 31.64 121.1 33.03 122.1 34.41 124.51 34.99 126.91 34.41 127.91 33.02 126.91 31.64" style="fill:#e8f3ff"/><polygon points="126.91 34.41 127.91 33.03 127.91 36.17 126.91 37.56 126.91 34.41" style="fill:#368899"/><polygon points="122.1 34.41 121.1 33.03 121.1 36.17 122.1 37.56 122.1 34.41" style="fill:#7dd2e3"/><polygon points="127.21 28.83 124.5 28.18 121.8 28.83 120.68 30.39 121.8 31.95 124.51 32.6 127.21 31.95 128.33 30.39 127.21 28.83" style="fill:#ff7269"/><polygon points="126.23 29.39 124.5 28.98 122.77 29.39 122.06 30.39 122.78 31.39 124.5 31.81 126.24 31.39 126.95 30.39 126.23 29.39" style="fill:#fff"/><polygon points="124.51 32.6 121.8 31.95 121.1 33.4 121.8 35.08 124.51 35.72 125.27 33.84 124.51 32.6" style="fill:#c84030"/><polygon points="124.51 32.6 127.21 31.95 127.91 33.02 127.21 35.08 124.51 35.72 124.51 32.6" style="fill:#ab281f"/><polygon points="127.21 31.95 128.34 30.39 128.34 33.51 127.21 35.08 127.21 31.95" style="fill:#8a1c14"/><polygon points="121.8 31.95 120.68 30.39 120.68 33.51 121.8 35.08 121.8 31.95" style="fill:#fa5c52"/><polygon points="150.92 62.45 141.81 67.71 151.85 73.51 160.96 68.25 150.92 62.45" style="opacity:0.30000000000000004"/><polygon points="151.83 73.28 142.11 67.67 142.11 43.06 154.07 48.67 151.83 73.28" style="fill:#e0dedc"/><polygon points="155.86 40.5 146.14 34.89 142.11 43.06 151.83 48.67 155.86 44.51 155.86 40.5" style="fill:#f4efe9"/><polygon points="160.57 68.23 151.83 73.28 151.83 48.67 160.57 43.62 160.57 68.23" style="fill:#d1d1d1"/><polygon points="151.83 67.48 142.11 61.86 142.11 60.45 151.83 66.06 152.98 66.16 151.83 67.48" style="fill:#8ccccb"/><polygon points="160.57 62.43 151.83 67.48 151.83 66.06 160.57 61.01 160.57 62.43" style="fill:#389998"/><polygon points="151.83 70.36 142.11 64.74 142.11 63.33 151.83 68.94 152.98 69.04 151.83 70.36" style="fill:#8ccccb"/><polygon points="160.57 65.31 151.83 70.36 151.83 68.94 160.57 63.9 160.57 65.31" style="fill:#389998"/><polygon points="156.54 40.11 155.86 40.5 151.83 48.67 160.57 43.62 156.54 40.11" style="fill:#bdbdbd"/><polygon points="152.6 47.1 158.24 43.85 155.31 41.63 152.6 47.1" style="opacity:0.2"/><polygon points="155.86 38.13 146.14 32.52 146.82 32.13 156.54 37.74 155.86 38.13" style="fill:#fff"/><polygon points="155.86 40.5 146.14 34.89 146.14 32.52 155.86 38.13 155.86 40.5" style="fill:#e0dedc"/><polygon points="156.54 40.11 155.86 40.5 155.86 38.13 156.54 37.74 156.54 40.11" style="fill:#d1d1d1"/><polygon points="145.51 74.19 141.34 74.19 138.38 75.89 138.38 78.31 141.34 80.01 145.51 80.01 148.47 78.31 148.47 75.89 145.51 74.19" style="opacity:0.30000000000000004"/><polygon points="145.5 79 143.09 78.73 141.35 78.87 141.59 79.48 145.26 79.48 145.5 79" style="fill:#b5afa7"/><polygon points="145.26 79.22 146.17 77.98 147.87 77.71 147.87 77.97 145.26 79.48 145.26 79.22" style="fill:#a39c95"/><polygon points="141.59 79.22 140.86 78.23 138.98 77.71 138.98 77.97 141.59 79.48 141.59 79.22" style="fill:#d8d1c7"/><polygon points="145.26 74.08 141.59 74.09 138.98 75.59 138.98 77.71 141.59 79.21 145.26 79.22 147.87 77.71 147.87 75.59 145.26 74.08" style="fill:#e6e1dd"/><polygon points="147.46 75.68 147.46 76.01 145.1 74.64 141.75 74.64 139.38 76.01 139.38 75.68 141.75 74.31 145.1 74.31 147.46 75.68" style="fill:#a39c95"/><polygon points="147.46 76.01 147.46 77.62 145.1 78.98 141.75 78.98 139.38 77.61 139.38 76.01 141.75 74.64 145.1 74.64 147.46 76.01" style="fill:#d8d1c7"/><polygon points="148.43 76.95 138.41 76.95 138.98 77.71 141.59 79.21 145.26 79.21 147.87 77.71 148.43 76.95" style="fill:#8a1c14"/><polygon points="148.43 64.64 148.43 76.95 145.5 78.64 144.46 65.72 148.43 64.64" style="fill:#8a1c14"/><polygon points="145.5 66.34 145.5 78.64 141.35 78.65 138.42 64.64 145.5 66.34" style="fill:#ab281f"/><polygon points="141.35 66.34 141.35 78.65 138.41 76.95 138.42 71.56 139.38 71.64 138.95 69.5 138.42 68.31 138.42 64.64 141.35 66.34" style="fill:#c84030"/><polygon points="138.98 63.41 142.12 64.44 141.35 66.34 139.36 66.22 138.42 64.64 138.98 63.41" style="fill:#c84030"/><polygon points="147.36 63.55 148.43 64.64 148.43 62.25 147.87 61.28 147.36 63.55" style="fill:#8a1c14"/><polygon points="147.87 63.41 144.73 64.44 145.5 66.34 147.49 66.22 148.43 64.64 147.87 63.41" style="fill:#8a1c14"/><polygon points="145.26 64.91 143.59 64.27 141.59 64.91 141.35 66.34 143.62 67.05 145.5 66.34 145.26 64.91" style="fill:#ab281f"/><polygon points="139.49 63.55 138.42 64.64 138.41 62.25 138.98 61.28 139.49 63.55" style="fill:#c84030"/><polygon points="145.5 64.43 143.09 64.16 141.35 64.31 141.59 64.91 145.26 64.91 145.5 64.43" style="fill:#b5afa7"/><polygon points="145.26 64.64 146.17 63.41 147.87 63.14 147.87 63.41 145.26 64.91 145.26 64.64" style="fill:#a39c95"/><polygon points="141.59 64.64 140.86 63.66 138.98 63.14 138.98 63.41 141.59 64.91 141.59 64.64" style="fill:#d8d1c7"/><polygon points="145.26 59.51 141.59 59.51 138.98 61.02 138.98 63.14 141.59 64.64 145.26 64.64 147.87 63.14 147.87 61.02 145.26 59.51" style="fill:#e6e1dd"/><polygon points="147.46 61.11 147.46 61.44 145.1 60.07 141.75 60.07 139.38 61.44 139.38 61.11 141.75 59.74 145.1 59.74 147.46 61.11" style="fill:#a39c95"/><polygon points="147.46 61.44 147.46 63.05 145.1 64.41 141.75 64.41 139.38 63.04 139.38 61.44 141.75 60.07 145.1 60.07 147.46 61.44" style="fill:#d8d1c7"/><polygon points="142.99 62.73 142.99 62.9 142.46 62.59 141.71 62.59 140.59 63.24 140.59 63.07 141.71 62.42 142.46 62.42 142.99 62.73" style="fill:#a39c95"/><polygon points="142.99 62.9 142.99 63.16 141.86 63.81 141.11 63.81 140.59 63.5 140.59 63.24 141.71 62.59 142.46 62.59 142.99 62.9" style="fill:#211a1a"/><polygon points="145.5 72.09 147.66 71.83 145.5 75.34 144.56 73.72 145.5 72.09" style="fill:#b5afa7"/><polygon points="145.5 75.34 141.35 74.38 140.65 72.39 141.35 71.13 145.5 72.09 145.5 75.34" style="fill:#e0dedc"/><polygon points="141.35 74.38 138.41 71.56 138.41 68.31 141.35 71.13 141.35 74.38" style="fill:#fff"/><polygon points="133.25 81.83 132.23 81.83 131.51 82.24 131.51 82.83 132.23 83.24 133.24 83.24 133.96 82.83 133.96 82.24 133.25 81.83" style="opacity:0.30000000000000004"/><polygon points="133.9 78.58 133.9 82.78 133.22 83.17 132.98 78.83 133.9 78.58" style="fill:#d1d1d1"/><polygon points="133.22 78.97 133.22 83.17 132.26 83.17 131.58 78.58 133.22 78.97" style="fill:#e0dedc"/><polygon points="132.26 78.97 132.26 83.17 131.58 82.78 131.58 78.58 132.26 78.97" style="fill:#f4efe9"/><polygon points="131.58 78.03 131.58 78.58 132.26 78.97 133.22 78.97 133.9 78.58 133.9 78.03 133.22 77.63 132.26 77.63 131.58 78.03" style="fill:#d6a950"/><polygon points="133.9 78.32 133.9 78.58 133.22 78.97 132.98 78.57 133.9 78.32" style="fill:#cc934c"/><polygon points="133.22 78.72 133.22 78.97 132.26 78.97 131.58 78.32 133.22 78.72" style="fill:#d6a950"/><polygon points="132.26 78.72 132.26 78.97 131.58 78.58 131.58 78.32 132.26 78.72" style="fill:#e3bd5e"/><polygon points="131.58 77.77 131.58 78.32 132.26 78.72 133.22 78.72 133.9 78.32 133.9 77.77 133.22 77.37 132.26 77.37 131.58 77.77" style="fill:#211a1a"/><polygon points="133.9 76.5 133.9 78.32 133.22 78.72 132.98 76.75 133.9 76.5" style="fill:#0a0808"/><polygon points="133.22 76.9 133.22 78.72 132.26 78.72 131.58 76.5 133.22 76.9" style="fill:#211a1a"/><polygon points="132.26 76.9 132.26 78.72 131.58 78.32 131.58 76.5 132.26 76.9" style="fill:#362c29"/><polygon points="131.58 75.95 131.58 76.5 132.26 76.9 133.22 76.9 133.9 76.5 133.9 75.95 133.22 75.56 132.26 75.56 131.58 75.95" style="fill:#574943"/><polygon points="133.45 76.06 133.45 76.18 133.03 75.94 132.44 75.94 132.03 76.18 132.03 76.06 132.44 75.82 133.03 75.82 133.45 76.06" style="fill:#211a1a"/><polygon points="133.45 76.18 133.45 76.4 133.03 76.64 132.44 76.64 132.03 76.4 132.03 76.18 132.44 75.94 133.03 75.94 133.45 76.18" style="fill:#d8d1c7"/><polygon points="133.04 76.14 133.04 76.38 132.86 76.48 132.8 76.21 133.04 76.14" style="fill:#a39c95"/><polygon points="132.86 76.25 132.86 76.48 132.62 76.48 132.44 76.14 132.86 76.25" style="fill:#b5afa7"/><polygon points="132.62 76.25 132.62 76.48 132.44 76.38 132.44 76.14 132.62 76.25" style="fill:#d8d1c7"/><polygon points="132.44 76 132.44 76.14 132.62 76.25 132.86 76.25 133.04 76.15 133.04 76 132.86 75.9 132.62 75.9 132.44 76" style="fill:#e6e1dd"/><polygon points="137.84 82.37 132.32 85.56 133.98 86.52 139.51 83.33 137.84 82.37" style="opacity:0.30000000000000004"/><polygon points="134.61 82.86 138.25 80.76 138.93 81.16 135.29 83.54 134.61 82.86" style="fill:#f4efe9"/><polygon points="135.29 83.26 138.93 81.16 139.41 81.99 135.78 84.87 135.29 83.26" style="fill:#e0dedc"/><polygon points="135.78 84.09 139.41 81.99 139.41 82.78 135.78 84.87 135.78 84.09" style="fill:#d1d1d1"/><polygon points="135.29 85.15 135.78 84.87 135.78 84.09 135.29 83.26 134.61 82.86 134.13 83.14 134.13 83.92 134.61 84.76 135.29 85.15" style="fill:#d6a950"/><polygon points="134.39 82.99 134.61 82.86 135.29 83.26 135.06 83.67 134.39 82.99" style="fill:#fbe979"/><polygon points="135.07 83.39 135.29 83.26 135.78 84.09 135.55 85 135.07 83.39" style="fill:#d6a950"/><polygon points="135.55 84.22 135.78 84.09 135.78 84.87 135.55 85 135.55 84.22" style="fill:#cc934c"/><polygon points="135.07 85.28 135.55 85 135.55 84.22 135.07 83.38 134.39 82.99 133.91 83.27 133.91 84.05 134.39 84.89 135.07 85.28" style="fill:#211a1a"/><polygon points="132.81 83.9 134.39 82.99 135.07 83.39 133.49 84.57 132.81 83.9" style="fill:#574943"/><polygon points="133.5 84.29 135.07 83.39 135.55 84.22 133.98 85.91 133.5 84.29" style="fill:#211a1a"/><polygon points="133.98 85.13 135.55 84.22 135.55 85 133.98 85.91 133.98 85.13" style="fill:#0a0808"/><polygon points="133.5 86.19 133.98 85.91 133.98 85.13 133.5 84.29 132.82 83.9 132.33 84.18 132.33 84.96 132.81 85.8 133.5 86.19" style="fill:#362c29"/><polygon points="132.65 84.51 132.76 84.45 132.76 84.94 133.05 85.45 133.47 85.69 133.37 85.75 132.95 85.5 132.65 84.99 132.65 84.51" style="fill:#0a0808"/><polygon points="132.76 84.45 132.95 84.34 133.37 84.58 133.66 85.09 133.66 85.58 133.47 85.69 133.05 85.45 132.76 84.94 132.76 84.45" style="fill:#d8d1c7"/><polygon points="132.94 84.83 133.14 84.71 133.31 84.81 133.11 85 132.94 84.83" style="fill:#e6e1dd"/><polygon points="133.11 84.93 133.31 84.81 133.44 85.03 133.24 85.34 133.11 84.93" style="fill:#b5afa7"/><polygon points="133.24 85.14 133.44 85.03 133.44 85.23 133.24 85.34 133.24 85.14" style="fill:#a39c95"/><polygon points="133.11 85.42 133.24 85.34 133.24 85.14 133.11 84.93 132.94 84.83 132.81 84.9 132.81 85.1 132.94 85.32 133.11 85.42" style="fill:#d8d1c7"/><polygon points="111.73 70.35 107.68 69.39 103.64 70.35 102.03 72.6 103.64 75.02 107.69 75.99 111.73 75.02 113.31 72.56 111.73 70.35" style="opacity:0.30000000000000004"/><polygon points="105.07 53.66 104.13 54.43 102.66 56.47 104.13 56.67 105.6 54.17 106.07 53.73 106.2 53.33 105.07 53.66" style="fill:#898c55"/><polygon points="106.29 54.31 105.6 54.17 103.99 55.16 102.66 56.47 102.33 58.3 102.33 59.87 103.16 61.72 103.06 65.36 102.33 68.97 102.33 72.45 103.99 74.75 105.94 61.1 105.79 58.12 105.79 56.26 106.21 55.01 106.29 54.31" style="fill:#c3c270"/><polygon points="108.97 59.09 108.42 56.76 107.67 55.36 107.25 54.39 106.21 55.01 105.07 56.67 104.14 58.52 103.9 60.49 103.99 74.75 107.67 75.8 109.09 70.7 108.97 59.09" style="fill:#898c55"/><polygon points="110.39 54.23 110.33 55.42 110.28 56.66 110.39 54.23" style="fill:#6bc"/><polygon points="112.68 56.47 111.21 54.43 110.28 53.66 109.14 53.33 109.09 53.58 109.62 54.19 111 56.04 112.68 56.47" style="fill:#7c8552"/><polygon points="112.68 56.47 111.36 55.16 109.74 54.17 109.18 54.34 109.13 55.01 109.34 58.89 109.46 70.47 111.45 74.9 113.01 72.45 113.01 58.3 112.68 56.47" style="fill:#6a7147"/><polygon points="111.22 58.52 110.28 56.66 109.13 55.01 108.17 54.84 107.67 55.36 107.67 75.8 111.45 74.9 111.45 60.48 111.22 58.52" style="fill:#7c8552"/><polygon points="109.13 53.33 107.67 52.98 106.21 53.33 105.6 54.17 106.21 55.01 107.67 55.36 109.13 55.01 109.74 54.17 109.13 53.33" style="fill:#898c55"/><polygon points="103.91 62.05 102.33 59.87 102.33 68.97 103.95 71.25 104.43 67.19 103.91 62.05" style="fill:#e3bd5e"/><polygon points="111.45 62.05 107.68 62.95 106.72 65.57 107.68 72.32 111.45 71.42 111.45 62.05" style="fill:#cc934c"/><polygon points="107.68 62.95 103.91 62.05 103.95 71.25 107.68 72.32 107.68 62.95" style="fill:#d6a950"/><polygon points="107.67 46.09 106.21 45.75 105.91 46.28 106.21 55.01 107.67 55.36 108.28 53.97 107.67 46.09" style="fill:#898c55"/><polygon points="107.67 46.09 109.13 45.75 109.44 46.28 109.13 55.01 107.67 55.36 107.67 46.09" style="fill:#7c8552"/><polygon points="109.13 44.06 107.67 43.71 106.2 44.06 105.6 44.9 106.21 45.75 107.67 46.09 109.13 45.74 109.73 44.9 109.13 44.06" style="fill:#e8f3ff"/><polygon points="109.13 45.75 109.74 44.9 109.74 54.17 109.13 55.01 109.13 45.75" style="fill:#6a7147"/><polygon points="106.21 45.75 105.6 44.9 105.6 54.17 106.21 55.01 106.21 45.75" style="fill:#c3c270"/><polygon points="109.13 45.83 109.13 45.83 109.13 45.83 107.67 46.18 106.21 45.83 105.6 44.99 105.6 45.69 106.21 46.54 107.67 46.88 109.13 46.54 109.13 46.53 109.13 46.54 109.74 45.69 109.74 44.99 109.13 45.83" style="opacity:0.30000000000000004"/><polygon points="107.67 44.52 106.07 44.14 105.74 44.72 106.07 45.95 107.67 46.33 108.34 44.81 107.67 44.52" style="fill:#898c55"/><polygon points="107.67 44.52 109.27 44.14 109.6 44.72 109.27 45.95 107.67 46.33 107.67 44.52" style="fill:#7c8552"/><polygon points="109.27 42.29 107.67 41.91 106.07 42.29 105.41 43.22 106.07 44.14 107.67 44.52 109.27 44.14 109.93 43.22 109.27 42.29" style="fill:#c3c270"/><polygon points="109.05 42.42 107.67 42.09 106.29 42.42 105.72 43.22 106.29 44.02 107.67 44.35 109.05 44.01 109.62 43.22 109.05 42.42" style="fill:#6a7147"/><polygon points="109.27 44.14 109.94 43.22 109.94 45.02 109.27 45.95 109.27 44.14" style="fill:#6a7147"/><polygon points="106.07 44.14 105.41 43.22 105.41 45.02 106.07 45.95 106.07 44.14" style="fill:#c3c270"/><polygon points="118.69 83.29 115.8 82.6 112.91 83.29 111.71 84.96 112.91 86.63 115.8 87.32 118.7 86.63 119.89 84.96 118.69 83.29" style="opacity:0.30000000000000004"/><polygon points="117.51 85.66 115.8 85.91 114.1 85.66 112.91 85.59 114.18 86.08 115.81 86.48 117.5 86.08 118.7 85.59 117.51 85.66" style="fill:#8a1c14"/><polygon points="118.69 82.25 115.8 81.56 112.91 82.25 111.7 83.91 112.91 85.59 115.81 86.28 118.7 85.59 119.9 83.91 118.69 82.25" style="fill:#fbe979"/><polygon points="114.34 81.84 114.12 82.27 113.17 83.76 114.99 84.96 116.75 84.7 114.34 81.84" style="fill:#e3bd5e"/><polygon points="116.93 82.01 118.05 82.47 118.17 83.77 117.04 83.64 116.93 82.01" style="fill:#e3bd5e"/><polygon points="113.58 83.66 113.81 83.17 114.28 82.14 114.56 80.86 114.3 79.69 113.77 78.41 117.8 78.41 116.96 79.7 116.83 81.18 117.05 82.14 117.78 82.65 118.17 83.77 116.75 84.7 115.03 84.7 113.58 83.66" style="fill:#fbe979"/><polygon points="114.04 79.06 115.02 79.4 115.29 79.62 115.49 80.21 115.61 79.61 116.65 79.42 117.37 79.06 117.5 78.86 117.44 78.69 113.94 78.82 114.04 79.06" style="fill:#e3bd5e"/><polygon points="115.42 81.21 115.18 81.64 115.3 81.96 115.52 81.94 115.61 81.68 115.42 81.21" style="fill:#685750"/><polygon points="116.11 81.55 115.95 82.02 116.07 82.22 116.19 82.26 116.29 82.08 116.29 81.87 116.11 81.55" style="fill:#685750"/><polygon points="115.09 80.6 114.92 81.77 115.05 82.53 114.67 83.07 114.86 82.42 114.71 81.53 115.09 80.6" style="fill:#e3bd5e"/><polygon points="116.37 80.57 116.41 81.53 116.72 82.35 116.59 83.01 116.93 83.46 116.75 82.86 116.89 82.33 116.45 81.5 116.61 80.12 116.37 80.57" style="fill:#e3bd5e"/><polygon points="118.7 75.22 117.44 74.85 117.58 75.3 117.49 75.98 116.37 76.53 115.24 76.53 114.12 75.98 114.02 75.3 114.17 74.85 112.9 75.22 111.69 76.89 112.9 78.58 115.8 79.27 118.71 78.57 119.91 76.89 118.7 75.22" style="fill:#fa5c52"/><polygon points="117.44 74.85 115.8 74.46 114.17 74.85 113.5 75.79 114.18 76.73 115.8 77.12 117.44 76.73 118.11 75.79 117.44 74.85" style="fill:#c84030"/><polygon points="116.67 76.67 117.05 76.12 116.67 75.58 115.72 75.35 114.78 75.58 114.39 76.12 114.78 76.67 115.72 76.89 116.67 76.67" style="fill:#ab281f"/><polygon points="115.98 76.15 115.72 76.09 115.47 76.15 115.36 76.3 115.47 76.45 115.72 76.51 115.98 76.45 116.08 76.3 115.98 76.15" style="fill:#852122"/><polygon points="115.73 76.37 115.66 75.05 116.2 73.69 116.63 73.49 116.8 73.99 116.04 75.16 115.73 76.37" style="fill:#6b4414"/><polygon points="79.07 40.98 66.57 40.98 57.74 46.08 57.74 53.29 49.41 61.41 50.76 62.19 63.26 62.19 69.84 58.39 79.07 58.39 87.91 53.29 87.91 46.08 79.07 40.98" style="opacity:0.30000000000000004"/><polygon points="87.76 15.55 79.01 10.41 66.64 10.41 57.89 15.55 57.89 22.53 66.64 27.62 79.01 27.62 87.76 22.52 87.76 15.55" style="fill:#544540"/><polygon points="67.33 41.52 59.56 46.01 58.45 15.58 66.87 10.72 67.33 41.52" style="fill:#403531"/><polygon points="78.31 41.52 86.09 46.01 87.2 15.58 78.78 10.72 78.31 41.52" style="fill:#685750"/><polygon points="58.96 24.14 60.52 21.55 63.98 20.2 67.82 20.77 70.55 22.97 71.83 26.23 71.53 29.38 64.43 30.34 58.96 24.14" style="fill:#211a1a"/><polygon points="71.14 24.48 70.29 25.14 70.98 29.45 72.18 28.94 72.18 26.06 71.14 24.48" style="fill:#0a0808"/><polygon points="66.11 19.93 65.49 20.57 65.71 21.23 66.84 22 68.36 21.83 68.77 21.23 68.23 20.38 66.11 19.93" style="fill:#836e69"/><polygon points="63.11 16.74 64.15 15.42 66.37 15.65 68.23 14.9 69.89 16.22 69.15 17.91 66.95 18.55 64.43 17.97 63.11 16.74" style="fill:#0a0808"/><polygon points="65.94 20.86 65.49 19.39 64.19 17.93 63.11 16.74 65.07 17.71 67.13 17.24 68.52 17.5 68.77 17.17 68.77 16.44 69.89 16.22 69.63 18.26 68.54 19.97 68.38 21.28 68.07 21.59 67.13 21.7 66.41 21.47 65.94 20.86" style="fill:#211a1a"/><polygon points="71.19 30.66 70.83 25.18 72.39 21.66 75.37 19.35 76.15 17.86 79.24 17.29 82.76 20.06 84.52 22.72 85.64 26.23 81.22 29.97 74.87 31.44 71.19 30.66" style="fill:#211a1a"/><polygon points="76.41 17.44 76.26 18.31 76.81 18.74 78.18 18.74 79.34 17.74 79.34 17.01 78.41 16.61 76.41 17.44" style="fill:#836e69"/><polygon points="75.49 11.93 73.83 12.47 73.24 14.15 73.41 16.04 74.9 16.61 76.55 16.16 76.88 14.08 76.53 12.92 75.49 11.93" style="fill:#0a0808"/><polygon points="75.87 17.01 76.81 18.22 77.92 18.22 78.96 17.46 79.11 16.21 78.58 14.27 75.49 11.93 76.34 13.04 75.72 13.8 76.34 15.07 74.99 16.21 73.41 16.04 74.64 16.82 75.87 17.01" style="fill:#211a1a"/><polygon points="88.31 22.72 77.9 27.96 74.12 43.88 78.57 57.54 86.7 52.85 88.31 22.72" style="fill:#a39c95"/><polygon points="57.33 22.72 67.74 27.96 71.53 43.88 67.07 57.54 58.95 52.85 57.33 22.72" style="fill:#d8d1c7"/><polygon points="79.24 27.96 66.41 27.96 67.07 57.54 78.57 57.54 79.24 27.96" style="fill:#b5afa7"/><path d="M88.31,15.31l-9.07-5.23H66.41l-9.08,5.24v7.4L66.41,28H79.24l9.07-5.24Zm-9.53,12H66.87l-8.42-4.86V15.58l8.42-4.86H78.78l8.42,4.86v6.88Z" style="fill:#e6e1dd"/><polygon points="79.86 14.36 79.9 14.59 80.08 14.85 80.22 14.93 80.28 14.89 80.28 14.73 80.14 14.45 79.97 14.3 79.86 14.36" style="fill:#b5afa7;opacity:0.5"/><polygon points="81 14.67 80.84 14.51 80.62 14.51 80.46 14.67 80.46 14.89 80.62 15.05 80.84 15.05 81 14.89 81 14.67" style="fill:#211a1a"/><polygon points="80.72 14.95 80.54 14.77 80.29 14.77 80.11 14.95 80.11 15.2 80.29 15.38 80.54 15.38 80.72 15.2 80.72 14.95" style="fill:#211a1a"/><polygon points="80.39 15.21 80.29 15.11 80.13 15.11 80.02 15.21 80.02 15.37 80.13 15.47 80.29 15.47 80.39 15.37 80.39 15.21" style="fill:#211a1a"/><polygon points="80.87 14.82 80.69 14.76 80.55 14.89 80.55 15.05 80.61 15.16 80.75 15.24 80.93 15.18 80.97 15 80.87 14.82" style="fill:#b5afa7;opacity:0.5"/><polygon points="66.52 12.95 66.49 13.18 66.31 13.44 66.17 13.52 66.11 13.49 66.11 13.32 66.25 13.04 66.42 12.89 66.52 12.95" style="fill:#b5afa7;opacity:0.5"/><polygon points="65.39 13.26 65.55 13.1 65.77 13.1 65.93 13.26 65.93 13.48 65.77 13.64 65.55 13.64 65.39 13.48 65.39 13.26" style="fill:#211a1a"/><polygon points="65.67 13.54 65.85 13.36 66.1 13.36 66.28 13.54 66.28 13.79 66.1 13.97 65.85 13.97 65.67 13.79 65.67 13.54" style="fill:#211a1a"/><polygon points="66 13.8 66.11 13.7 66.26 13.7 66.37 13.8 66.37 13.96 66.26 14.07 66.11 14.07 66 13.96 66 13.8" style="fill:#211a1a"/><polygon points="65.52 13.42 65.7 13.36 65.84 13.48 65.84 13.64 65.78 13.75 65.63 13.83 65.46 13.77 65.42 13.59 65.52 13.42" style="fill:#b5afa7;opacity:0.5"/><polygon points="72.09 7.92 72.05 8.15 71.88 8.41 71.74 8.49 71.68 8.46 71.68 8.29 71.81 8.01 71.99 7.87 72.09 7.92" style="fill:#b5afa7;opacity:0.5"/><polygon points="70.96 8.23 71.12 8.07 71.34 8.07 71.5 8.23 71.5 8.45 71.34 8.61 71.12 8.61 70.96 8.45 70.96 8.23" style="fill:#211a1a"/><polygon points="71.24 8.51 71.42 8.34 71.67 8.34 71.84 8.51 71.84 8.76 71.67 8.94 71.42 8.94 71.24 8.76 71.24 8.51" style="fill:#211a1a"/><polygon points="71.56 8.78 71.67 8.67 71.83 8.67 71.93 8.78 71.93 8.93 71.83 9.04 71.67 9.04 71.56 8.93 71.56 8.78" style="fill:#211a1a"/><polygon points="71.09 8.39 71.27 8.33 71.41 8.45 71.41 8.61 71.34 8.72 71.2 8.8 71.03 8.74 70.99 8.56 71.09 8.39" style="fill:#b5afa7;opacity:0.5"/><polygon points="64.69 4.86 64.66 5.08 64.48 5.34 64.34 5.43 64.28 5.39 64.28 5.23 64.42 4.95 64.59 4.8 64.69 4.86" style="fill:#b5afa7;opacity:0.5"/><polygon points="63.56 5.16 63.72 5 63.94 5 64.1 5.16 64.1 5.38 63.94 5.54 63.72 5.54 63.56 5.38 63.56 5.16" style="fill:#211a1a"/><polygon points="63.84 5.45 64.02 5.27 64.27 5.27 64.45 5.45 64.45 5.7 64.27 5.87 64.02 5.87 63.84 5.7 63.84 5.45" style="fill:#211a1a"/><polygon points="64.17 5.71 64.27 5.6 64.43 5.6 64.53 5.71 64.53 5.86 64.43 5.97 64.27 5.97 64.17 5.86 64.17 5.71" style="fill:#211a1a"/><polygon points="63.69 5.32 63.87 5.26 64.01 5.38 64.01 5.55 63.95 5.65 63.8 5.74 63.63 5.68 63.59 5.49 63.69 5.32" style="fill:#b5afa7;opacity:0.5"/><polygon points="81.44 7.81 81.48 8.04 81.66 8.3 81.8 8.38 81.86 8.35 81.86 8.18 81.72 7.9 81.54 7.75 81.44 7.81" style="fill:#b5afa7;opacity:0.5"/><polygon points="82.58 8.12 82.42 7.96 82.2 7.96 82.04 8.12 82.04 8.34 82.2 8.5 82.42 8.5 82.58 8.34 82.58 8.12" style="fill:#211a1a"/><polygon points="82.3 8.4 82.12 8.22 81.87 8.22 81.69 8.4 81.69 8.65 81.87 8.83 82.12 8.83 82.3 8.65 82.3 8.4" style="fill:#211a1a"/><polygon points="81.97 8.66 81.86 8.55 81.71 8.55 81.6 8.66 81.6 8.82 81.71 8.93 81.86 8.93 81.97 8.82 81.97 8.66" style="fill:#211a1a"/><polygon points="82.45 8.28 82.27 8.21 82.13 8.34 82.13 8.5 82.19 8.61 82.33 8.69 82.51 8.63 82.55 8.45 82.45 8.28" style="fill:#b5afa7;opacity:0.5"/><polygon points="55.55 27.8 47.45 28.21 42.23 38.41 42.94 52.42 49.16 62.05 57.25 61.64 62.47 51.44 61.77 37.42 55.55 27.8" style="fill:#d8d1c7"/><rect x="62.12" y="37.32" width="3.73" height="14.03" transform="translate(-2.15 3.27) rotate(-2.88)" style="fill:#b5afa7"/><polygon points="62.47 51.44 57.25 61.64 60.98 61.45 66.2 51.25 62.47 51.44" style="fill:#a39c95"/><polygon points="55.55 27.8 61.77 37.42 65.49 37.24 59.27 27.62 55.55 27.8" style="fill:#e6e1dd"/><polygon points="54.95 42.25 51.12 49.73 49.75 47.6 53.58 40.12 54.95 42.25" style="opacity:0.30000000000000004"/><polygon points="50.83 50.31 50.12 51.68 49.45 51.72 49.53 50.69 50.25 49.91 50.83 50.31" style="fill:#a39c95"/><polygon points="50.16 50.34 49.45 51.72 48.08 49.59 48.78 48.21 50.16 50.34" style="fill:#f4efe9"/><polygon points="49.45 48.18 50.83 50.31 50.16 50.34 48.78 48.21 49.45 48.18" style="fill:#a39c95"/><polygon points="49.75 47.6 51.12 49.73 47.6 49.9 46.23 47.77 49.75 47.6" style="fill:#66635d"/><polygon points="51.42 41.86 47 50.5 45.62 48.37 50.05 39.73 51.42 41.86" style="fill:#f4efe9"/><polygon points="53.87 39.54 55.25 41.67 51.42 41.86 50.05 39.73 53.87 39.54" style="fill:#e6e1dd"/><polygon points="51.42 41.86 47 50.5 50.83 50.31 51.12 49.73 47.98 49.88 51.8 42.41 54.95 42.25 55.25 41.67 51.42 41.86" style="fill:#a39c95"/><polygon points="55.95 40.3 55.25 41.67 54.58 41.7 54.66 40.68 55.38 39.9 55.95 40.3" style="fill:#a39c95"/><polygon points="55.29 40.33 54.58 41.7 53.2 39.57 53.91 38.2 55.29 40.33" style="fill:#f4efe9"/><polygon points="54.58 38.17 55.95 40.3 55.29 40.33 53.91 38.2 54.58 38.17" style="fill:#e6e1dd"/><polygon points="116.95 70.11 116.95 62.01 107.03 56.28 93 56.28 83.07 62.01 83.08 70.11 93 75.84 107.03 75.84 116.95 70.11" style="opacity:0.30000000000000004"/><polygon points="114.95 31.7 106.2 26.57 93.83 26.57 85.08 31.7 85.08 38.68 93.83 43.77 106.2 43.77 114.95 38.66 114.95 31.7" style="fill:#544540"/><polygon points="94.52 57.67 86.75 62.16 85.64 31.73 94.06 26.87 94.52 57.67" style="fill:#403531"/><polygon points="105.5 57.67 113.28 62.16 114.39 31.73 105.97 26.87 105.5 57.67" style="fill:#685750"/><polygon points="115.5 38.87 105.09 44.11 101.31 60.03 105.76 73.69 113.89 69 115.5 38.87" style="fill:#a39c95"/><polygon points="84.52 38.87 94.93 44.11 98.72 60.03 94.26 73.69 86.14 69 84.52 38.87" style="fill:#d8d1c7"/><polygon points="106.43 44.11 93.6 44.11 94.26 73.69 105.76 73.69 106.43 44.11" style="fill:#b5afa7"/><polygon points="93.6 42.88 84.47 37.89 84.67 41.68 93.65 46.87 106.38 46.87 115.35 41.68 115.53 38.44 106.65 43.33 93.6 42.88" style="opacity:0.30000000000000004"/><path d="M115.5,31.46l-9.07-5.23H93.6l-9.08,5.24v7.4l9.08,5.24h12.83l9.07-5.24Zm-9.53,12H94.06l-8.42-4.86V31.73l8.42-4.86H106l8.42,4.86v6.88Z" style="fill:#e6e1dd"/><polygon points="116.95 35.49 116.95 27.39 107.03 21.66 93 21.66 83.07 27.39 83.08 35.49 93 41.22 107.03 41.22 116.95 35.49" style="fill:#e6e1dd"/><rect x="93" y="41.22" width="14.03" height="3.73" style="fill:#b5afa7"/><polygon points="93 41.22 83.08 35.49 83.08 39.22 93 44.95 93 41.22" style="fill:#d8d1c7"/><polygon points="116.95 35.49 107.03 41.22 107.03 44.95 116.95 39.22 116.95 35.49" style="fill:#a39c95"/><polygon points="102.55 34.17 95.28 29.97 97.47 28.7 104.75 32.9 102.55 34.17" style="opacity:0.30000000000000004"/><polygon points="94.71 29.64 93.38 28.87 93.38 28.2 94.4 28.33 95.14 29.09 94.71 29.64" style="fill:#d8d1c7"/><polygon points="94.71 28.98 93.38 28.2 95.57 26.93 96.91 27.71 94.71 28.98" style="fill:#f4efe9"/><polygon points="96.91 28.38 94.71 29.64 94.71 28.98 96.91 27.71 96.91 28.38" style="fill:#a39c95"/><polygon points="97.47 28.7 95.28 29.97 95.28 26.45 97.47 25.18 97.47 28.7" style="fill:#a39c95"/><polygon points="103.12 30.66 94.71 25.81 96.91 24.55 105.31 29.4 103.12 30.66" style="fill:#f4efe9"/><polygon points="105.31 33.23 103.12 34.5 103.12 30.66 105.31 29.4 105.31 33.23" style="fill:#a39c95"/><polygon points="103.12 30.66 94.71 25.81 94.71 29.64 95.28 29.97 95.28 26.82 102.55 31.02 102.55 34.17 103.12 34.5 103.12 30.66" style="fill:#d8d1c7"/><polygon points="104.45 35.27 103.12 34.5 103.12 33.83 104.14 33.95 104.88 34.72 104.45 35.27" style="fill:#d8d1c7"/><polygon points="104.45 34.6 103.12 33.83 105.31 32.56 106.65 33.33 104.45 34.6" style="fill:#f4efe9"/><polygon points="106.65 34 104.45 35.27 104.45 34.6 106.65 33.33 106.65 34" style="fill:#a39c95"/><path d="M29.52,57.71,4,72.43,35.85,90.81l25.5-14.72Z" style="opacity:0.30000000000000004"/><polygon points="11.32 66.74 8.74 71.83 8.3 71.58 8.03 68.14 10.88 66.48 11.32 66.74" style="fill:#d8d1c7"/><polygon points="11.05 70.5 8.74 71.83 8.46 68.39 11.32 66.74 11.05 70.5" style="fill:#a39c95"/><polygon points="9.04 73.14 7.9 72.48 7.9 70.56 9.64 70.89 9.04 73.14" style="fill:#211a1a"/><polygon points="9.04 71.22 7.9 70.56 9.07 68.53 11.88 68.23 9.04 71.22" style="fill:#362c29"/><polygon points="13.05 68.91 11.88 68.23 10.22 69.19 9.04 71.22 9.04 73.14 10.22 73.82 11.88 72.86 13.05 70.83 13.05 68.91" style="fill:#0a0808"/><polygon points="12.27 69.73 12.27 70.9 11.55 72.14 10.54 72.73 10.25 72.56 11.27 71.98 11.98 70.73 11.98 69.56 12.27 69.73" style="fill:#362c29"/><polygon points="11.98 69.56 11.98 70.73 11.27 71.98 10.25 72.56 9.82 72.32 9.82 71.14 10.54 69.9 11.55 69.32 11.98 69.56" style="fill:#d8d1c7"/><polygon points="10.62 71.31 10.43 71.2 10.43 70.89 10.71 70.94 10.62 71.31" style="fill:#211a1a"/><polygon points="10.62 71 10.43 70.89 10.62 70.56 11.08 70.51 10.62 71" style="fill:#362c29"/><polygon points="11.27 70.62 11.08 70.51 10.81 70.67 10.62 71 10.62 71.31 10.81 71.42 11.08 71.26 11.27 70.93 11.27 70.62" style="fill:#0a0808"/><polygon points="10.81 70.67 10.62 70.56 10.89 70.41 11.08 70.51 10.81 70.67" style="fill:#574943"/><polygon points="10.22 69.19 9.07 68.53 10.73 67.57 11.88 68.23 10.22 69.19" style="fill:#574943"/><polygon points="12.92 67.66 10.33 72.75 9.9 72.5 9.62 69.06 12.48 67.41 12.92 67.66" style="fill:#d8d1c7"/><polygon points="10.06 68.8 8.03 67.26 10.88 65.61 12.92 66.78 10.06 68.8" style="fill:#e6e1dd"/><polygon points="10.06 69.31 8.03 68.14 8.03 67.26 10.06 68.43 10.06 69.31" style="fill:#d8d1c7"/><polygon points="12.64 71.42 10.33 72.75 10.06 69.31 10.06 68.43 12.92 66.78 12.92 67.66 12.64 71.42" style="fill:#a39c95"/><polygon points="11.81 70.96 11.81 71.27 11.62 71.6 11.35 71.76 11.16 71.65 11.16 71.6 11.39 71.47 11.58 71.14 11.58 70.88 11.62 70.85 11.81 70.96" style="fill:#d8d1c7"/><polygon points="11.58 70.88 11.58 71.14 11.39 71.47 11.16 71.6 11.16 71.34 11.35 71.01 11.58 70.88" style="fill:#574943"/><polygon points="55.75 70.59 53.16 75.69 52.73 75.44 52.45 71.99 55.31 70.34 55.75 70.59" style="fill:#d8d1c7"/><polygon points="55.47 74.36 53.16 75.69 52.89 72.25 55.75 70.59 55.47 74.36" style="fill:#a39c95"/><polygon points="53.47 77 52.32 76.33 52.32 74.42 54.07 74.75 53.47 77" style="fill:#211a1a"/><polygon points="53.47 75.08 52.32 74.42 53.5 72.38 56.3 72.08 53.47 75.08" style="fill:#362c29"/><polygon points="57.48 72.76 56.3 72.08 54.64 73.04 53.47 75.08 53.47 77 54.64 77.67 56.3 76.72 57.48 74.68 57.48 72.76" style="fill:#0a0808"/><polygon points="56.7 73.59 56.7 74.76 55.98 76 54.97 76.59 54.67 76.42 55.69 75.83 56.41 74.59 56.41 73.42 56.7 73.59" style="fill:#362c29"/><polygon points="56.41 73.42 56.41 74.59 55.69 75.83 54.67 76.42 54.25 76.17 54.25 75 54.97 73.76 55.98 73.17 56.41 73.42" style="fill:#d8d1c7"/><polygon points="55.04 75.16 54.86 75.06 54.86 74.75 55.14 74.8 55.04 75.16" style="fill:#211a1a"/><polygon points="55.04 74.85 54.86 74.75 55.05 74.42 55.5 74.37 55.04 74.85" style="fill:#362c29"/><polygon points="55.69 74.48 55.5 74.37 55.23 74.52 55.04 74.85 55.04 75.16 55.23 75.27 55.5 75.12 55.69 74.79 55.69 74.48" style="fill:#0a0808"/><polygon points="55.23 74.52 55.05 74.42 55.31 74.26 55.5 74.37 55.23 74.52" style="fill:#574943"/><polygon points="54.64 73.04 53.5 72.38 55.16 71.42 56.3 72.08 54.64 73.04" style="fill:#574943"/><polygon points="57.34 71.52 54.76 76.61 54.32 76.36 54.04 72.91 56.9 71.26 57.34 71.52" style="fill:#d8d1c7"/><polygon points="54.48 72.66 52.45 71.11 55.31 69.46 57.34 70.64 54.48 72.66" style="fill:#e6e1dd"/><polygon points="54.48 73.17 52.45 71.99 52.45 71.11 54.48 72.29 54.48 73.17" style="fill:#d8d1c7"/><polygon points="57.06 75.28 54.76 76.61 54.48 73.17 54.48 72.29 57.34 70.64 57.34 71.52 57.06 75.28" style="fill:#a39c95"/><polygon points="56.23 74.82 56.23 75.13 56.05 75.46 55.78 75.61 55.59 75.5 55.59 75.46 55.81 75.32 56 75 56 74.73 56.05 74.71 56.23 74.82" style="fill:#d8d1c7"/><polygon points="56 74.73 56 75 55.81 75.32 55.59 75.46 55.59 75.19 55.78 74.86 56 74.73" style="fill:#574943"/><polygon points="30.19 55.85 27.61 60.95 27.17 60.69 26.89 57.25 29.75 55.6 30.19 55.85" style="fill:#d8d1c7"/><polygon points="29.91 59.61 27.61 60.95 27.33 57.5 30.19 55.85 29.91 59.61" style="fill:#a39c95"/><polygon points="27.91 62.25 26.76 61.59 26.76 59.67 28.51 60 27.91 62.25" style="fill:#211a1a"/><polygon points="27.91 60.34 26.76 59.67 27.94 57.64 30.75 57.34 27.91 60.34" style="fill:#362c29"/><polygon points="31.92 58.02 30.75 57.34 29.08 58.3 27.91 60.34 27.91 62.25 29.08 62.93 30.75 61.97 31.92 59.94 31.92 58.02" style="fill:#0a0808"/><polygon points="31.14 58.84 31.14 60.02 30.42 61.26 29.41 61.84 29.12 61.67 30.13 61.09 30.85 59.85 30.85 58.68 31.14 58.84" style="fill:#362c29"/><polygon points="30.85 58.68 30.85 59.85 30.13 61.09 29.12 61.67 28.69 61.43 28.69 60.26 29.41 59.02 30.42 58.43 30.85 58.68" style="fill:#d8d1c7"/><polygon points="29.48 60.42 29.3 60.31 29.3 60 29.58 60.06 29.48 60.42" style="fill:#211a1a"/><polygon points="29.48 60.11 29.3 60 29.49 59.67 29.94 59.63 29.48 60.11" style="fill:#362c29"/><polygon points="30.13 59.73 29.94 59.63 29.67 59.78 29.48 60.11 29.48 60.42 29.67 60.53 29.94 60.37 30.13 60.04 30.13 59.73" style="fill:#0a0808"/><polygon points="29.67 59.78 29.49 59.67 29.76 59.52 29.94 59.63 29.67 59.78" style="fill:#574943"/><polygon points="29.08 58.3 27.94 57.64 29.6 56.68 30.75 57.34 29.08 58.3" style="fill:#574943"/><polygon points="31.78 56.77 29.2 61.87 28.76 61.61 28.48 58.17 31.34 56.52 31.78 56.77" style="fill:#d8d1c7"/><polygon points="28.92 57.92 26.89 56.37 29.75 54.72 31.78 55.89 28.92 57.92" style="fill:#e6e1dd"/><polygon points="28.92 58.42 26.89 57.25 26.89 56.37 28.92 57.54 28.92 58.42" style="fill:#d8d1c7"/><polygon points="31.5 60.53 29.2 61.87 28.92 58.42 28.92 57.54 31.78 55.89 31.78 56.77 31.5 60.53" style="fill:#a39c95"/><polygon points="30.68 60.08 30.68 60.39 30.49 60.72 30.22 60.87 30.03 60.76 30.03 60.71 30.25 60.58 30.44 60.25 30.44 59.99 30.49 59.97 30.68 60.08" style="fill:#d8d1c7"/><polygon points="30.44 59.99 30.44 60.25 30.25 60.58 30.03 60.71 30.03 60.45 30.22 60.12 30.44 59.99" style="fill:#574943"/><polygon points="36.29 56.62 16.69 45.48 30.28 36.58 45.89 30.18 64.22 40.72 36.29 56.62" style="fill:#6a7147"/><polygon points="36.29 56.62 16.69 45.48 30.28 36.58 45.89 30.18 64.22 40.72 36.29 56.62" style="opacity:0.4"/><polygon points="56.83 44.58 55.58 41.84 52.54 40.02 49.5 40.49 48.09 41.05 46.98 41.84 46.09 40.22 46.09 38.01 44.36 35.99 40.92 34.97 39.51 35.59 37.16 33.67 31.78 35.79 22.01 43.09 18.15 45.7 18.14 46.31 36.18 56.68 56.83 44.58" style="fill:#0a0808"/><polygon points="34.17 46.79 35.63 42.56 38.54 39.85 42.42 39.17 46.68 39.85 48.09 42.27 49.23 46.31 47.54 49.55 40.33 51.37 35.63 50.7 34.17 46.79" style="fill:#211a1a"/><polygon points="47.35 40.48 47.34 41.24 46.8 41.51 45.65 41.29 44.84 40.27 44.95 39.66 45.8 39.47 47.35 40.48" style="fill:#836e69"/><polygon points="49 35.99 50.3 36.71 50.53 38.22 50.1 39.78 48.75 40.02 47.43 39.38 47.48 37.58 47.96 36.66 49 35.99" style="fill:#0a0808"/><polygon points="47.87 40.21 46.89 41.07 45.95 40.9 45.2 40.1 45.27 39.02 46.02 37.47 49 35.99 48.1 36.79 48.5 37.52 47.78 38.5 48.74 39.67 50.1 39.78 48.94 40.24 47.87 40.21" style="fill:#211a1a"/><polygon points="34.51 45.81 35.98 46.95 37.16 45.7 40.74 44.76 39.51 42.28 45.32 41.84 45.64 43.77 44.76 45.25 45.27 46.44 46.29 44.52 48.45 43.56 48.95 44.65 45.11 48.73 38.54 49.55 34.51 47.97 34.51 45.81" style="fill:#0a0808"/><polygon points="57.89 37.17 33.36 23.05 33.36 25.6 62.72 42.55 62.72 40.72 57.89 37.17" style="fill:#6a7147"/><polygon points="44.76 48.2 46.41 45.38 49.1 42.92 53.03 42.92 55.58 43.77 57.81 46.1 45.89 52.76 44.76 48.2" style="fill:#211a1a"/><polygon points="45.27 47.32 46.68 47.72 48.09 50.73 47.13 51.06 45.27 47.32" style="fill:#0a0808"/><polygon points="24.15 54.23 23.85 49.52 25.18 46.51 27.73 44.53 28.4 43.26 31.05 42.77 34.06 45.14 35.58 47.42 36.53 50.42 34.72 55.16 27.31 54.89 24.15 54.23" style="fill:#362c29"/><polygon points="35.82 48.2 33.53 49.84 33.67 55.38 35.98 54.72 35.82 48.2" style="fill:#0a0808"/><polygon points="28.62 42.89 28.5 43.64 28.97 44 30.14 44 31.13 43.15 31.14 42.53 30.34 42.18 28.62 42.89" style="fill:#836e69"/><polygon points="27.84 38.17 26.42 38.64 25.91 40.08 26.05 41.7 27.33 42.18 28.75 41.8 29.03 40.02 28.73 39.02 27.84 38.17" style="fill:#0a0808"/><polygon points="28.16 42.53 28.97 43.56 29.92 43.56 30.81 42.91 30.94 41.84 30.49 40.18 27.84 38.17 28.57 39.13 28.04 39.77 28.57 40.87 27.41 41.84 26.05 41.7 27.11 42.36 28.16 42.53" style="fill:#362c29"/><polygon points="34.3 50.06 37.3 46.4 40.26 45.25 43.55 45.73 45.89 47.62 46.98 50.41 46.73 53.11 40.01 55.39 36.49 57.14 33.67 55.17 34.3 50.06" style="fill:#362c29"/><polygon points="42.08 45.02 41.56 45.56 41.74 46.13 42.71 46.79 44.01 46.65 44.36 46.13 43.9 45.4 42.08 45.02" style="fill:#836e69"/><polygon points="39.51 42.28 40.41 41.15 42.31 41.35 43.9 40.71 45.32 41.84 44.69 43.29 42.81 43.84 40.64 43.34 39.51 42.28" style="fill:#0a0808"/><polygon points="41.94 45.81 41.56 44.55 40.44 43.3 39.51 42.28 41.19 43.12 42.96 42.71 44.15 42.93 44.36 42.65 44.36 42.02 45.32 41.84 45.1 43.58 44.17 45.05 44.03 46.17 43.76 46.44 42.96 46.53 42.34 46.34 41.94 45.81" style="fill:#362c29"/><polygon points="38.54 84.86 40.63 84.48 41.82 67.68 38.35 57.36 36.26 57.74 33.53 69.34 38.54 84.86" style="fill:#7c8552"/><polygon points="60.27 72.31 59.62 73.52 58.55 57.54 61.9 43.77 62.55 42.56 60.27 72.31" style="fill:#7c8552"/><polygon points="59.62 73.52 40.63 84.48 38.35 57.36 61.9 43.77 59.62 73.52" style="fill:#6a7147"/><polygon points="38.54 84.86 5.1 65.58 2.82 38.45 36.26 57.74 38.54 84.86" style="fill:#898c55"/><polygon points="62.3 45.79 62.55 42.56 61.9 43.77 38.35 57.36 36.26 57.74 2.82 38.45 3.06 41.35 36.5 60.65 38.58 60.28 61.65 46.96 62.3 45.79" style="opacity:0.30000000000000004"/><polygon points="65.37 40.75 62.55 41.69 35.98 56.79 36.29 59.36 65.37 42.58 65.37 40.75" style="fill:#6a7147"/><polygon points="36.29 57.54 31.46 53.98 4.28 38.34 0 36.58 0 38.4 36.29 59.36 36.29 57.54" style="fill:#898c55"/><path d="M29.08,19.79,0,36.58l36.29,21L65.37,40.75ZM36.22,56,19.39,46.31l11.06-9.08L45.89,31l16.83,9.71Z" style="fill:#c3c270"/><polygon points="19.39 45.48 2.62 35.79 29.11 20.49 45.89 30.18 19.39 45.48" style="fill:#c3c270"/><polygon points="45.89 30.18 19.39 45.48 19.39 46.31 45.89 31.01 45.89 30.18" style="fill:#6a7147"/><polygon points="19.39 45.48 2.62 35.79 2.62 36.62 19.39 46.31 19.39 45.48" style="fill:#898c55"/><polygon points="38.92 30.05 26.15 20 28.77 20.94 45.11 30.38 42.96 30.67 38.92 30.05" style="fill:#7c8552"/><polygon points="42.49 29.43 32.42 34.39 22.36 41.05 19.74 45.02 45.11 30.38 42.49 29.43" style="fill:#6a7147"/><polygon points="22.36 41.05 6.02 31.62 16.09 24.95 32.42 34.39 22.36 41.05" style="fill:#c3c270"/><polygon points="32.42 34.39 16.09 24.95 26.15 20 42.49 29.43 32.42 34.39" style="fill:#9c9b59"/><polygon points="19.74 45.02 3.4 35.59 6.02 31.62 22.36 41.05 19.74 45.02" style="fill:#898c55"/><polygon points="63.9 21.12 48.61 12.73 47.68 26.82 63.55 36.46 63.9 21.12" style="fill:#c3c270"/><polygon points="63.18 11.29 61.73 10.24 50.03 3.61 48.36 2.93 47.68 11.02 49.1 14.12 64.07 22.76 63.18 11.29" style="fill:#898c55"/><polygon points="48.36 26.13 49.1 14.12 48.36 2.9 46.27 1.1 46.27 30.94 47.51 30.55 48.36 26.13" style="fill:#6a7147"/><polygon points="46.27 1.1 48.36 2.9 64.75 12.35 62.66 10.56 46.27 1.1" style="fill:#7c8552"/><polygon points="64.75 35.59 48.36 26.13 46.41 30.71 46.78 31.3 62.36 40.22 62.66 39.85 64.75 35.59" style="fill:#9c9b59"/><polygon points="64.75 35.59 65.49 23.57 64.75 12.35 62.66 10.56 62.66 39.85 64.75 35.59" style="fill:#6a7147"/><path d="M46.42,1.33l15.77,9.1V39.81l-15.77-9.1V1.33ZM45.89.42V31l16.83,9.7V10.13L45.89.42Z" style="fill:#898c55"/><polygon points="62.72 40.72 62.72 10.13 63.44 9.71 63.44 40.31 62.72 40.72" style="fill:#6a7147"/><polygon points="62.72 10.13 45.89 0.42 46.61 0 63.44 9.71 62.72 10.13" style="fill:#c3c270"/><polygon points="44.54 34.61 44.56 34.73 44.65 34.87 44.72 34.91 44.76 34.89 44.76 34.81 44.69 34.66 44.59 34.58 44.54 34.61" style="fill:#b5afa7;opacity:0.5"/><polygon points="45.13 34.77 45.05 34.69 44.93 34.69 44.85 34.77 44.85 34.89 44.93 34.97 45.05 34.97 45.13 34.89 45.13 34.77" style="fill:#211a1a"/><polygon points="44.99 34.92 44.89 34.83 44.76 34.83 44.67 34.92 44.67 35.05 44.76 35.15 44.89 35.15 44.99 35.05 44.99 34.92" style="fill:#211a1a"/><polygon points="44.82 35.06 44.76 35 44.68 35 44.62 35.06 44.62 35.14 44.68 35.2 44.76 35.2 44.82 35.14 44.82 35.06" style="fill:#211a1a"/><polygon points="45.06 34.86 44.97 34.83 44.9 34.89 44.9 34.98 44.93 35.03 45.01 35.07 45.1 35.04 45.12 34.95 45.06 34.86" style="fill:#b5afa7;opacity:0.5"/><polygon points="57.81 34.8 57.83 34.92 57.92 35.05 58 35.1 58.03 35.08 58.03 34.99 57.96 34.84 57.87 34.77 57.81 34.8" style="fill:#b5afa7;opacity:0.5"/><polygon points="58.41 34.96 58.32 34.88 58.2 34.88 58.12 34.96 58.12 35.07 58.2 35.16 58.32 35.16 58.41 35.07 58.41 34.96" style="fill:#211a1a"/><polygon points="58.26 35.1 58.17 35.01 58.04 35.01 57.94 35.1 57.94 35.24 58.04 35.33 58.17 35.33 58.26 35.24 58.26 35.1" style="fill:#211a1a"/><polygon points="58.09 35.24 58.03 35.19 57.95 35.19 57.9 35.24 57.9 35.32 57.95 35.38 58.03 35.38 58.09 35.32 58.09 35.24" style="fill:#211a1a"/><polygon points="58.34 35.04 58.24 35.01 58.17 35.07 58.17 35.16 58.2 35.22 58.28 35.26 58.37 35.23 58.39 35.13 58.34 35.04" style="fill:#b5afa7;opacity:0.5"/><polygon points="25.18 40.21 25.16 40.33 25.06 40.47 24.99 40.51 24.96 40.49 24.96 40.41 25.03 40.26 25.12 40.18 25.18 40.21" style="fill:#b5afa7;opacity:0.5"/><polygon points="24.58 40.37 24.67 40.29 24.78 40.29 24.87 40.37 24.87 40.49 24.78 40.57 24.67 40.57 24.58 40.49 24.58 40.37" style="fill:#211a1a"/><polygon points="24.73 40.52 24.82 40.43 24.95 40.43 25.05 40.52 25.05 40.65 24.95 40.74 24.82 40.74 24.73 40.65 24.73 40.52" style="fill:#211a1a"/><polygon points="24.9 40.66 24.96 40.6 25.04 40.6 25.09 40.66 25.09 40.74 25.04 40.8 24.96 40.8 24.9 40.74 24.9 40.66" style="fill:#211a1a"/><polygon points="24.65 40.45 24.75 40.42 24.82 40.49 24.82 40.57 24.79 40.63 24.71 40.67 24.62 40.64 24.6 40.55 24.65 40.45" style="fill:#b5afa7;opacity:0.5"/><polygon points="33.97 35.51 33.95 35.63 33.86 35.77 33.79 35.81 33.75 35.79 33.75 35.7 33.83 35.56 33.92 35.48 33.97 35.51" style="fill:#b5afa7;opacity:0.5"/><polygon points="33.38 35.67 33.46 35.59 33.58 35.59 33.66 35.67 33.66 35.79 33.58 35.87 33.46 35.87 33.38 35.79 33.38 35.67" style="fill:#211a1a"/><polygon points="33.52 35.82 33.62 35.73 33.75 35.73 33.84 35.82 33.84 35.95 33.75 36.04 33.62 36.04 33.52 35.95 33.52 35.82" style="fill:#211a1a"/><polygon points="33.7 35.96 33.75 35.9 33.83 35.9 33.89 35.96 33.89 36.04 33.83 36.09 33.75 36.09 33.7 36.04 33.7 35.96" style="fill:#211a1a"/><polygon points="33.45 35.75 33.54 35.72 33.61 35.79 33.61 35.87 33.58 35.93 33.51 35.97 33.41 35.94 33.4 35.84 33.45 35.75" style="fill:#b5afa7;opacity:0.5"/><polygon points="30.21 34.11 30.19 34.23 30.1 34.37 30.02 34.41 29.99 34.39 29.99 34.31 30.06 34.16 30.16 34.08 30.21 34.11" style="fill:#b5afa7;opacity:0.5"/><polygon points="29.62 34.27 29.7 34.19 29.82 34.19 29.9 34.27 29.9 34.39 29.82 34.47 29.7 34.47 29.62 34.39 29.62 34.27" style="fill:#211a1a"/><polygon points="29.76 34.42 29.86 34.33 29.99 34.33 30.08 34.42 30.08 34.55 29.99 34.64 29.86 34.64 29.76 34.55 29.76 34.42" style="fill:#211a1a"/><polygon points="29.93 34.56 29.99 34.5 30.07 34.5 30.13 34.56 30.13 34.64 30.07 34.7 29.99 34.7 29.93 34.64 29.93 34.56" style="fill:#211a1a"/><polygon points="29.69 34.35 29.78 34.32 29.85 34.39 29.85 34.47 29.82 34.53 29.75 34.57 29.65 34.54 29.63 34.45 29.69 34.35" style="fill:#b5afa7;opacity:0.5"/><polygon points="40.16 32.9 40.17 33.02 40.27 33.15 40.34 33.2 40.37 33.18 40.37 33.09 40.3 32.95 40.21 32.87 40.16 32.9" style="fill:#b5afa7;opacity:0.5"/><polygon points="40.75 33.06 40.66 32.98 40.55 32.98 40.47 33.06 40.47 33.17 40.55 33.26 40.66 33.26 40.75 33.17 40.75 33.06" style="fill:#211a1a"/><polygon points="40.6 33.21 40.51 33.11 40.38 33.11 40.29 33.21 40.29 33.34 40.38 33.43 40.51 33.43 40.6 33.34 40.6 33.21" style="fill:#211a1a"/><polygon points="40.43 33.34 40.38 33.29 40.3 33.29 40.24 33.34 40.24 33.42 40.3 33.48 40.38 33.48 40.43 33.42 40.43 33.34" style="fill:#211a1a"/><polygon points="40.68 33.14 40.59 33.11 40.51 33.17 40.51 33.26 40.55 33.31 40.62 33.36 40.71 33.33 40.73 33.23 40.68 33.14" style="fill:#b5afa7;opacity:0.5"/></g></g></svg>